<svg xmlns="http://www.w3.org/2000/svg" viewBox="0 0 26.48 20.59"><defs><style>.cls-1{fill:#231f20;}</style></defs><title>PistolAsset 1</title><g id="Layer_2" data-name="Layer 2"><g id="Layer_1-2" data-name="Layer 1"><path class="cls-1" d="M23.81,8.14a1.34,1.34,0,1,1,1.33-1.33,1.33,1.33,0,0,1-1.33,1.33M21.46,4.25V0H20.7l-.38,1.31L19.39,2.4H13l-.44-.82h-6l-.43,1H5.5V4H2.23L0,6.81v3.81l6.56-.13a3.3,3.3,0,0,1-1,2.48C4.49,14,2.91,16.86,3.32,18s4.2,1.69,4.2,1.69c-.68-3.95,1.58-5.86,1.58-5.86h3.38v1H13a13.36,13.36,0,0,0,.93,4.53l-.3.22.25,1,7-2.1-.27-1.09-.36.11a9.75,9.75,0,0,1-.57-2.64h.76v-3.7H23.7V9.32h2.78V4.25Z"/></g></g></svg>