<svg xmlns="http://www.w3.org/2000/svg" viewBox="0 0 25.82 24.59"><defs><style>.cls-1{fill:#231f20;}</style></defs><title>Asset 1</title><g id="Layer_2" data-name="Layer 2"><g id="Layer_1-2" data-name="Layer 1"><path class="cls-1" d="M10.29,16.37l.82.82a9.24,9.24,0,0,0-.94.36,4.2,4.2,0,0,0-1.59,1.13H6.51a4.9,4.9,0,0,1,2.27-1.76,11.58,11.58,0,0,1,1.51-.55"/><path class="cls-1" d="M23.56,18.68H21.49a4.07,4.07,0,0,0-1.59-1.13,8.33,8.33,0,0,0-1-.37l.82-.81a10.56,10.56,0,0,1,1.53.55,4.93,4.93,0,0,1,2.27,1.76"/><rect class="cls-1" x="19.9" y="19.23" width="5.92" height="1"/><path class="cls-1" d="M21.5,20.79a4.19,4.19,0,0,1-1.6,1.13h0a9.87,9.87,0,0,1-2.51.72v.93a13.56,13.56,0,0,0,3.9-1,4.87,4.87,0,0,0,2.27-1.76Z"/><rect class="cls-1" x="4.25" y="19.23" width="5.92" height="1"/><polygon class="cls-1" points="16.15 24.59 16.15 23.68 16.15 22.79 16.15 21.93 13.92 21.93 13.92 22.79 13.92 22.79 13.92 23.68 13.92 23.68 13.92 24.59 16.15 24.59"/><path class="cls-1" d="M12.68,22.64a9.87,9.87,0,0,1-2.51-.72,4.2,4.2,0,0,1-1.59-1.13H6.51a4.92,4.92,0,0,0,2.26,1.76,13.72,13.72,0,0,0,3.91,1Z"/><path class="cls-1" d="M10.9,13.87v0h0v0m7.59-1.08c0-.15-.06-.3-.1-.44a15.34,15.34,0,0,0-.48-1.71,16.71,16.71,0,0,0-1.43-3.2,14.58,14.58,0,0,0-4.63-5A14.63,14.63,0,0,0,5.9.21,21.59,21.59,0,0,0,0,.2,20,20,0,0,1,5.3,2.07,11.62,11.62,0,0,1,9.24,5.35,9.75,9.75,0,0,1,11,9.62a10.73,10.73,0,0,1,.14,2.26,9.06,9.06,0,0,1-.07.91H8l3.33,3.34.82.81L15,19.87l3-2.93.8-.81,3.35-3.34Z"/></g></g></svg>