<svg xmlns="http://www.w3.org/2000/svg" viewBox="0 0 32.81 22.68">
  <defs>
    <style>.cls-1{fill:#231f20;}</style>
  </defs>
  <title>RapidFire</title>
  <g id="Layer_2" data-name="Layer 2">
    <g id="Layer_1-2" data-name="Layer 1">
    	<path class="st0" d="M3.1,9.5c0,0.3,0.3,0.6,0.6,0.6h0.1c0.3,0,0.6-0.3,0.6-0.6V1.1c0-0.3-0.3-0.6-0.6-0.6H3.7c-0.3,0-0.6,0.3-0.6,0.6V9.5z"/>
	<path class="st0" d="M0,10c0,0.3,0.2,0.6,0.5,0.6l0,0h1C1.8,10.6,2,10.3,2,10V0.6C2,0.2,1.8,0,1.5,0H0.6C0.2,0,0,0.3,0,0.6V10z"/>
	<path class="st0" d="M5.4,9.5c0,0.3,0.3,0.6,0.6,0.6h6.6c9.4,0,10-4.8,10-4.8s-0.5-4.8-10-4.8H6c-0.3,0-0.6,0.3-0.6,0.6V9.5z"/>
	<path class="st0" d="M13.4,21.6c0,0.3,0.3,0.6,0.6,0.6l0,0c0.3,0,0.6-0.3,0.6-0.6v-8.4c0-0.3-0.2-0.6-0.5-0.6l0,0H14c-0.3,0-0.6,0.2-0.6,0.5l0,0V21.6z"/>
	<path class="st0" d="M10.2,22.1c0,0.3,0.3,0.6,0.6,0.6h0.9c0.3,0,0.6-0.3,0.6-0.6v-9.4c0-0.3-0.2-0.6-0.5-0.6l0,0h-0.9c-0.3,0-0.6,0.3-0.6,0.6L10.2,22.1z"/>
	<path class="st0" d="M15.6,21.7c0,0.3,0.2,0.6,0.6,0.6h6.5c9.4,0,10-4.8,10-4.8s-0.6-4.8-10-4.8h-6.5c-0.3,0-0.6,0.2-0.6,0.6V21.7z"/>
    </g>
  </g>
</svg>
