<svg xmlns="http://www.w3.org/2000/svg" viewBox="0 0 19.69 20.73"><defs><style>.cls-1{fill:#231f20;}</style></defs><title>WeaponSkillAsset 1</title><g id="Layer_2" data-name="Layer 2"><g id="Layer_1-2" data-name="Layer 1"><path class="cls-1" d="M14.91,4.24c-.42.34-.8.68-1.14,1-.25-.2-.5-.38-.76-.57s-.57-.38-.86-.55A16.64,16.64,0,0,0,8.36,2.39a15.87,15.87,0,0,0-4.12-.76,15,15,0,0,0-2.12,0,9.28,9.28,0,0,0-1.06.11L0,1.88l1-.25A9.46,9.46,0,0,1,2.1,1.42a17,17,0,0,1,2.15-.21,16.66,16.66,0,0,1,4.33.37A17.81,17.81,0,0,1,12.74,3c.33.16.65.33,1,.51l1,.57.23.15"/><path class="cls-1" d="M18.27,2a8.64,8.64,0,0,0-1.43.78A9.45,9.45,0,0,0,16,2.22,11.14,11.14,0,0,0,13.54,1,10.45,10.45,0,0,0,10.81.45,12.39,12.39,0,0,0,8,.55,12.36,12.36,0,0,1,10.81,0a11.27,11.27,0,0,1,2.95.18,12.36,12.36,0,0,1,2.86.91c.45.21.9.45,1.34.71l.31.2"/><path class="cls-1" d="M19.69,2.51c-.1,1.75-2.9,5-3.92,6L14,10.26,9.76,14.51l.59.59.9.41L9.8,17,8.19,15.33l-1.61,1.6L4.12,19.4l.41.41-.92.92L1.47,18.59l.92-.92.41.42,2.47-2.47L6.87,14,5.25,12.4,6.7,11l.41.91.59.59L12,8.14l1.71-1.7c.17-.18.42-.42.72-.68s.75-.67,1.19-1a16.5,16.5,0,0,1,1.9-1.36,6.29,6.29,0,0,1,1.56-.75,2.08,2.08,0,0,1,.61-.11"/></g></g></svg>