<?xml version="1.0" encoding="UTF-8" standalone="no"?>
<!-- Generator: Adobe Illustrator 21.0.2, SVG Export Plug-In . SVG Version: 6.00 Build 0)  -->

<svg
   xmlns:dc="http://purl.org/dc/elements/1.1/"
   xmlns:cc="http://creativecommons.org/ns#"
   xmlns:rdf="http://www.w3.org/1999/02/22-rdf-syntax-ns#"
   xmlns:svg="http://www.w3.org/2000/svg"
   xmlns="http://www.w3.org/2000/svg"
   xmlns:sodipodi="http://sodipodi.sourceforge.net/DTD/sodipodi-0.dtd"
   xmlns:inkscape="http://www.inkscape.org/namespaces/inkscape"
   version="1.1"
   id="Layer_1"
   x="0px"
   y="0px"
   viewBox="0 0 955.78717 800"
   xml:space="preserve"
   sodipodi:docname="Blood Angels [Imperium, Adeptus Astartes, Space Marines, Legion].svg"
   inkscape:version="0.92.3 (2405546, 2018-03-11)"
   width="955.78717"
   height="800"><metadata
   id="metadata15"><rdf:RDF><cc:Work
       rdf:about=""><dc:format>image/svg+xml</dc:format><dc:type
         rdf:resource="http://purl.org/dc/dcmitype/StillImage" /><dc:title></dc:title></cc:Work></rdf:RDF></metadata><defs
   id="defs13">
	
	
</defs><sodipodi:namedview
   pagecolor="#ffffff"
   bordercolor="#666666"
   borderopacity="1"
   objecttolerance="10"
   gridtolerance="10"
   guidetolerance="10"
   inkscape:pageopacity="0"
   inkscape:pageshadow="2"
   inkscape:window-width="1920"
   inkscape:window-height="1017"
   id="namedview11"
   showgrid="false"
   inkscape:zoom="0.31382979"
   inkscape:cx="51.988136"
   inkscape:cy="376"
   inkscape:window-x="-8"
   inkscape:window-y="-8"
   inkscape:window-maximized="1"
   inkscape:current-layer="Layer_1"
   inkscape:pagecheckerboard="true"
   fit-margin-top="0"
   fit-margin-left="0"
   fit-margin-right="0"
   fit-margin-bottom="0" />
<path
   inkscape:connector-curvature="0"
   id="path2"
   d="m 464.79551,800 c -5.23924,-0.96231 -10.47848,-1.71077 -15.71772,-2.78001 -39.77546,-8.01924 -62.22935,-31.97006 -67.78936,-72.17321 -4.06309,-29.51083 -0.53462,-58.70088 4.81154,-87.67709 8.76771,-47.26009 23.73697,-92.70249 37.74392,-138.57258 20.74312,-67.78936 39.66854,-136.00641 54.31703,-205.39962 0.32077,-1.28308 0.64154,-2.56616 2.03154,-3.84924 1.8177,8.01925 3.52847,16.14541 5.34617,24.16466 17.21464,76.87784 39.45469,152.36568 62.97781,227.42582 11.86848,37.95777 22.24004,76.2363 27.90698,115.69099 3.52846,24.37851 5.23924,48.86394 0.64154,73.34938 -7.27079,38.5993 -30.90083,61.48088 -69.92783,67.57551 -4.17001,0.64154 -8.34002,1.39 -12.51002,2.13847 C 484.79016,800 474.73937,800 464.79551,800 Z"
   style="stroke-width:1.06923282;fill:#000000;fill-opacity:1" />
<g
   id="g829"
   transform="matrix(1.0692328,0,0,1.0692328,-1.3900026,-4.0630846)"
   style="fill:#000000;fill-opacity:1"><path
     d="m 25.2,428.9 c 1.6,0 3.2,-0.1 4.8,0 33.4,1.9 66.6,1.7 99.7,-3.9 6.8,-1.2 13.5,-3.5 20.2,-5.5 1.7,-0.5 3.6,-1.5 4.6,-2.8 1.2,-1.5 2.2,-3.8 2,-5.5 -0.1,-1 -3.1,-2 -4.8,-2.1 -11.6,-0.7 -23.4,0.1 -34.8,-1.8 C 92.2,403.2 71.7,390 53.2,373.6 32.8,355.5 16.5,334.1 1.9,311.3 c -0.2,-0.4 -0.3,-0.9 -0.6,-1.9 2.3,0.9 4.1,1.5 5.8,2.2 27.9,11.3 56.4,20.6 86.4,23.8 10.5,1.1 21.2,0.1 31.8,0 0.5,0 1.1,-0.1 1.5,-0.3 3.4,-2.1 6.8,-4.3 10.2,-6.4 -2.5,-2.6 -4.6,-5.9 -7.6,-7.8 -16.9,-10.9 -34.6,-20.7 -51,-32.4 -25.2,-18 -44.7,-40.9 -54.9,-70.7 -5.3,-15.4 -7.4,-31.3 -6.4,-48.7 1.9,1.6 3.3,2.6 4.6,3.7 24.2,21 49.5,40.6 77.2,56.7 9.2,5.3 19,9.5 28.8,13.7 3.5,1.5 8.2,3.3 11,-0.9 2.6,-3.9 -1,-7.3 -3.4,-10.1 C 96.6,186 81.1,131.1 75.1,72.8 72.9,51.8 72.5,30.6 71.4,9.5 c -0.1,-1.8 0,-3.6 1.1,-5.7 0.7,1.5 1.4,3 2.1,4.5 19.6,44 42.7,85.9 71.8,124.3 42.2,55.5 95.9,95.2 161.3,119.4 10.1,3.8 20,8.3 29.9,12.6 3,1.3 5.9,3 8.8,4.7 22.3,13.7 27.6,40.9 11.3,61.5 -5.2,6.6 -12.1,11.8 -18.7,17.2 -6.7,5.5 -14.1,10.1 -20.8,15.5 -21.5,17.1 -27,39.8 -20.8,65.5 6,24.9 23.9,37.4 47.7,42.9 5.2,1.2 10.5,1.7 16.3,2.6 -8.3,22 -16.5,44 -24.9,66.5 -1.7,-1.6 -3,-2.8 -4.3,-4 -18.2,-17.2 -41.8,-19.8 -62.8,-6.4 -6.7,4.3 -12.8,9.6 -18.8,14.8 -7.2,6.2 -14,12.9 -21,19.2 -20.9,18.8 -45.1,28.1 -73.6,26.6 -25.4,-1.3 -50.1,-4.8 -72.4,-18.2 -4.2,-2.5 -8.1,-5.5 -13.1,-8.9 8.1,-2.2 15.1,-3.7 21.7,-6.1 17.3,-6.3 34.6,-12.8 51.7,-19.9 6.5,-2.7 12.5,-7 18.3,-11.1 3.6,-2.6 7.2,-5.7 9.6,-9.4 2,-3.1 3.4,-7.5 2.8,-10.9 -0.3,-1.6 -5.8,-3.1 -9,-3.4 -15.1,-1.3 -30.3,-1.4 -45.3,-3.5 -42.3,-5.9 -74.2,-27.1 -93.3,-66 -0.6,-1.2 -1.1,-2.4 -1.6,-3.6 -0.4,-0.3 -0.3,-0.7 -0.2,-1.3 z"
     id="path4"
     inkscape:connector-curvature="0"
     style="fill:#000000;fill-opacity:1" /><path
     id="path8"
     d="m 871.3,428.9 c -1.6,0 -3.2,-0.1 -4.8,0 -33.4,1.9 -66.6,1.7 -99.7,-3.9 -6.8,-1.2 -13.5,-3.5 -20.2,-5.5 -1.7,-0.5 -3.6,-1.5 -4.6,-2.8 -1.2,-1.5 -2.2,-3.8 -2,-5.5 0.1,-1 3.1,-2 4.8,-2.1 11.6,-0.7 23.4,0.1 34.8,-1.8 24.7,-4.1 45.2,-17.3 63.7,-33.7 20.4,-18.1 36.7,-39.5 51.3,-62.3 0.2,-0.4 0.3,-0.9 0.6,-1.9 -2.3,0.9 -4.1,1.5 -5.8,2.2 -27.9,11.3 -56.4,20.6 -86.4,23.8 -10.5,1.1 -21.2,0.1 -31.8,0 -0.5,0 -1.1,-0.1 -1.5,-0.3 -3.4,-2.1 -6.8,-4.3 -10.2,-6.4 2.5,-2.6 4.6,-5.9 7.6,-7.8 16.9,-10.9 34.6,-20.7 51,-32.4 25.2,-18 44.7,-40.9 54.9,-70.7 5.3,-15.4 7.4,-31.3 6.4,-48.7 -1.9,1.6 -3.3,2.6 -4.6,3.7 -24.2,21 -49.5,40.6 -77.2,56.7 -9.2,5.3 -19,9.5 -28.8,13.7 -3.5,1.5 -8.2,3.3 -11,-0.9 -2.6,-3.9 1,-7.3 3.4,-10.1 38.8,-46 54.2,-100.9 60.3,-159.2 2.2,-21 2.6,-42.2 3.7,-63.3 0.1,-1.8 0,-3.6 -1.1,-5.7 -0.7,1.5 -1.4,3 -2.1,4.5 -19.6,44 -42.7,85.9 -71.8,124.3 -42.2,55.3 -96,95 -161.3,119.2 -10.1,3.8 -20,8.3 -29.9,12.6 -3,1.3 -5.9,3 -8.8,4.7 -22.3,13.7 -27.6,40.9 -11.3,61.5 5.2,6.6 12.1,11.8 18.7,17.2 6.7,5.5 14.1,10.1 20.8,15.5 21.5,17.1 27,39.8 20.8,65.5 -6,24.9 -23.9,37.4 -47.7,42.9 -5.2,1.2 -10.5,1.7 -16.3,2.6 8.3,22 16.5,44 24.9,66.5 1.7,-1.6 3,-2.8 4.3,-4 18.2,-17.2 41.8,-19.8 62.8,-6.4 6.7,4.3 12.8,9.6 18.8,14.8 7.2,6.2 14,12.9 21,19.2 20.9,18.8 45.1,28.1 73.6,26.6 25.4,-1.3 50.1,-4.8 72.4,-18.2 4.2,-2.5 8.1,-5.5 13.1,-8.9 -8.1,-2.2 -15.1,-3.7 -21.7,-6.1 -17.3,-6.3 -34.6,-12.8 -51.7,-19.9 -6.5,-2.7 -12.5,-7 -18.3,-11.1 -3.6,-2.6 -7.2,-5.7 -9.6,-9.4 -2,-3.1 -3.4,-7.5 -2.8,-10.9 0.3,-1.6 5.8,-3.1 9,-3.4 15.1,-1.3 30.3,-1.4 45.3,-3.5 42.3,-5.9 74.2,-27.1 93.3,-66 0.6,-1.2 1.1,-2.4 1.6,-3.6 0.2,-0.3 0.1,-0.7 0.1,-1.3 z"
     inkscape:connector-curvature="0"
     style="fill:#000000;fill-opacity:1" /></g>
</svg>