<?xml version="1.0" encoding="UTF-8" standalone="no"?>
<!-- Generator: Adobe Illustrator 22.1.0, SVG Export Plug-In . SVG Version: 6.00 Build 0)  -->

<svg
   xmlns:dc="http://purl.org/dc/elements/1.1/"
   xmlns:cc="http://creativecommons.org/ns#"
   xmlns:rdf="http://www.w3.org/1999/02/22-rdf-syntax-ns#"
   xmlns:svg="http://www.w3.org/2000/svg"
   xmlns="http://www.w3.org/2000/svg"
   xmlns:sodipodi="http://sodipodi.sourceforge.net/DTD/sodipodi-0.dtd"
   xmlns:inkscape="http://www.inkscape.org/namespaces/inkscape"
   version="1.1"
   id="Layer_3_copy"
   x="0px"
   y="0px"
   viewBox="0 0 800 800"
   xml:space="preserve"
   sodipodi:docname="Black Templars [Imperium, Adeptus Astartes, Space Marines, Imperial Fists, Chapter].svg"
   width="800"
   height="800"
   inkscape:version="0.92.3 (2405546, 2018-03-11)"><metadata
   id="metadata9"><rdf:RDF><cc:Work
       rdf:about=""><dc:format>image/svg+xml</dc:format><dc:type
         rdf:resource="http://purl.org/dc/dcmitype/StillImage" /><dc:title></dc:title></cc:Work></rdf:RDF></metadata><defs
   id="defs7" /><sodipodi:namedview
   pagecolor="#ffffff"
   bordercolor="#666666"
   borderopacity="1"
   objecttolerance="10"
   gridtolerance="10"
   guidetolerance="10"
   inkscape:pageopacity="0"
   inkscape:pageshadow="2"
   inkscape:window-width="1920"
   inkscape:window-height="1017"
   id="namedview5"
   showgrid="false"
   fit-margin-top="0"
   fit-margin-left="0"
   fit-margin-right="0"
   fit-margin-bottom="0"
   inkscape:zoom="0.236"
   inkscape:cx="-808.72953"
   inkscape:cy="493.93657"
   inkscape:window-x="-8"
   inkscape:window-y="-8"
   inkscape:window-maximized="1"
   inkscape:current-layer="Layer_3_copy"
   inkscape:pagecheckerboard="true" />
<path
   d="M 690.40942,398.78625 799.64674,219.15156 c 1.13283,-1.86108 -0.64733,-4.04583 -2.67025,-3.3985 L 482.77761,320.13539 c -1.78017,0.56641 -3.56033,-1.13283 -2.913,-2.913 L 584.24694,3.0235085 c 0.64733,-2.02292 -1.53742,-3.80307996 -3.3985,-2.67024996 L 401.21375,109.59058 c -0.72825,0.4855 -1.69925,0.4855 -2.4275,0 L 219.15155,0.35325854 c -1.86108,-1.13283 -4.04582,0.64732996 -3.39849,2.67024996 L 320.13538,317.22239 c 0.56642,1.78017 -1.13283,3.56033 -2.91299,2.913 L 3.0235044,215.75306 c -2.0229132,-0.64733 -3.80307691,1.53742 -2.67024551,3.3985 L 109.59057,398.78625 c 0.4855,0.72825 0.4855,1.69925 0,2.4275 L 0.35325889,580.84845 c -1.1328314,1.86108 0.64733231,4.04582 2.67024551,3.39849 L 317.22239,479.86462 c 1.78016,-0.56642 3.56033,1.13283 2.91299,2.91299 L 215.75306,796.9765 c -0.64733,2.02291 1.53741,3.80307 3.39849,2.67024 l 179.6347,-109.23731 c 0.72825,-0.4855 1.69925,-0.4855 2.4275,0 l 179.63469,109.23731 c 1.86108,1.13283 4.04583,-0.64733 3.3985,-2.67024 L 479.86461,482.77761 c -0.56641,-1.78016 1.13283,-3.56033 2.913,-2.91299 l 314.19888,104.38232 c 2.02292,0.64733 3.80308,-1.53741 2.67025,-3.39849 L 690.40942,401.21375 c -0.40458,-0.72825 -0.40458,-1.69925 0,-2.4275 z"
   id="path2"
   inkscape:connector-curvature="0"
   style="stroke-width:0.8091653" />
</svg>