<?xml version="1.0" encoding="UTF-8" standalone="no"?>
<!-- Created with Inkscape (http://www.inkscape.org/) -->

<svg
   xmlns:dc="http://purl.org/dc/elements/1.1/"
   xmlns:cc="http://creativecommons.org/ns#"
   xmlns:rdf="http://www.w3.org/1999/02/22-rdf-syntax-ns#"
   xmlns:svg="http://www.w3.org/2000/svg"
   xmlns="http://www.w3.org/2000/svg"
   xmlns:sodipodi="http://sodipodi.sourceforge.net/DTD/sodipodi-0.dtd"
   xmlns:inkscape="http://www.inkscape.org/namespaces/inkscape"
   width="798.27637"
   height="800"
   viewBox="0 0 211.21063 211.66666"
   version="1.1"
   id="svg8"
   sodipodi:docname="Chaos Daemons [Chaos].svg"
   inkscape:version="0.92.3 (2405546, 2018-03-11)">
  <defs
     id="defs2" />
  <sodipodi:namedview
     id="base"
     pagecolor="#ffffff"
     bordercolor="#666666"
     borderopacity="1.0"
     inkscape:pageopacity="0.0"
     inkscape:pageshadow="2"
     inkscape:zoom="0.0875"
     inkscape:cx="1468.226"
     inkscape:cy="619.76198"
     inkscape:document-units="mm"
     inkscape:current-layer="layer1"
     showgrid="false"
     inkscape:pagecheckerboard="true"
     inkscape:window-width="1920"
     inkscape:window-height="1017"
     inkscape:window-x="-8"
     inkscape:window-y="-8"
     inkscape:window-maximized="1"
     fit-margin-top="0"
     fit-margin-left="0"
     fit-margin-right="0"
     fit-margin-bottom="0"
     units="px" />
  <metadata
     id="metadata5">
    <rdf:RDF>
      <cc:Work
         rdf:about="">
        <dc:format>image/svg+xml</dc:format>
        <dc:type
           rdf:resource="http://purl.org/dc/dcmitype/StillImage" />
        <dc:title></dc:title>
      </cc:Work>
    </rdf:RDF>
  </metadata>
  <g
     inkscape:label="Layer 1"
     inkscape:groupmode="layer"
     id="layer1"
     transform="translate(5.4806589,-43.059343)">
    <path
       style="fill:#030303;stroke-width:0.24277084"
       d="m 94.367185,242.16972 c -3.09985,-6.90557 -5.704395,-12.74219 -5.787884,-12.97027 -0.121944,-0.33313 0.626797,-0.15408 3.807031,0.9104 2.177349,0.72879 3.986482,1.32507 4.020293,1.32507 0.03377,0 0.09883,-13.08231 0.144489,-29.0718 0.07414,-25.97493 0.125487,-29.23991 0.481553,-30.64982 0.596212,-2.36076 1.470948,-4.78849 2.358273,-6.54513 l 0.79221,-1.56834 0.49437,0.96141 c 0.82617,1.60663 1.82898,4.56338 2.39999,7.07621 0.54062,2.37911 0.54142,2.419 0.62524,31.08982 0.0462,15.78921 0.11036,28.70765 0.14266,28.70765 0.0323,0 1.83756,-0.59539 4.01167,-1.32311 2.17412,-0.72771 3.91836,-1.23298 3.87607,-1.12282 -0.50877,1.32549 -11.51965,25.73755 -11.6085,25.73702 -0.0668,-5.3e-4 -2.65762,-5.65072 -5.757465,-12.55629 z M 42.220176,206.49023 c 0.09333,-0.23368 2.302298,-6.05107 4.908809,-12.92756 2.606508,-6.87648 4.824807,-12.66027 4.929553,-12.85285 0.131119,-0.24109 0.765876,0.79877 2.037654,3.3381 1.015963,2.02854 1.929598,3.68825 2.030296,3.68825 0.1007,0 2.137923,-1.9571 4.527169,-4.34911 l 4.344075,-4.34911 -1.220296,-1.53808 c -2.739001,-3.45227 -5.34639,-8.05881 -7.032217,-12.42397 -0.689251,-1.78469 -2.258539,-7.33504 -2.260831,-7.99621 -2.4e-4,-0.10381 1.549287,-0.15843 3.443658,-0.12138 l 3.444312,0.0673 0.666975,2.32088 c 1.283374,4.46575 2.877354,7.91887 5.42893,11.761 0.709824,1.06885 1.515649,2.14703 1.790723,2.39597 0.49348,0.4466 0.520449,0.435 2.027039,-0.87168 1.945916,-1.68769 3.258942,-2.56884 5.532628,-3.71281 1.9362,-0.97417 5.103128,-2.13712 5.295607,-1.94465 0.319272,0.31927 -2.096678,5.43477 -3.671295,7.77355 -0.539382,0.80115 -1.575324,2.13884 -2.302089,2.97265 l -1.321398,1.51601 0.574738,0.48425 c 1.304301,1.09894 5.316678,3.66043 7.129553,4.55148 2.676183,1.31538 4.460864,2.00248 7.161146,2.75706 l 2.306913,0.64465 0.06735,3.42987 c 0.03707,1.88642 -0.01752,3.42957 -0.121385,3.4292 -0.508024,-0.002 -5.991532,-1.49563 -7.593254,-2.06863 -4.16489,-1.48996 -9.984314,-4.78212 -13.174456,-7.45305 l -1.187825,-0.99451 -4.472528,4.46762 -4.472527,4.46764 3.810347,1.90815 c 2.687756,1.34599 3.705815,1.96666 3.45554,2.10672 -0.421312,0.23577 -25.918919,9.94803 -26.116592,9.94803 -0.07482,0 -0.05966,-0.19118 0.03366,-0.42484 z m 102.379314,-4.61747 -13.18325,-5.01682 3.80697,-1.90646 3.80695,-1.90647 -0.81484,-0.89332 c -1.69638,-1.85978 -7.86662,-8.05508 -8.02249,-8.05508 -0.0895,0 -0.75158,0.47958 -1.47115,1.06573 -5.38068,4.38307 -12.82269,7.82014 -20.03935,9.25511 l -0.78901,0.15689 v -3.4257 c 0,-2.53457 0.0789,-3.44723 0.30346,-3.50846 0.16691,-0.0455 1.23207,-0.33304 2.36702,-0.63893 4.65063,-1.25342 10.40904,-4.23912 14.13825,-7.33061 l 0.66446,-0.55083 -1.12763,-1.33523 c -1.71813,-2.03444 -3.59346,-5.02127 -5.05355,-8.04878 -0.72519,-1.50368 -1.28456,-2.76792 -1.24305,-2.80943 0.12651,-0.12651 3.5695,1.39031 5.2456,2.31097 2.02217,1.11076 4.13898,2.52305 5.82081,3.88352 l 1.32955,1.07551 0.68292,-0.81568 c 3.12103,-3.72777 6.06022,-9.71175 7.61491,-15.50333 l 0.22809,-0.8497 3.45071,-0.0673 c 1.89788,-0.0371 3.4504,0.0175 3.45005,0.12138 -2.4e-4,0.10381 -0.32047,1.45382 -0.71135,3.00002 -1.52665,6.03893 -4.40682,11.92073 -8.25257,16.85316 -0.62465,0.80115 -1.22595,1.60539 -1.33623,1.7872 -0.14329,0.23624 1.0374,1.56992 4.13722,4.67334 2.38576,2.38852 4.42012,4.34276 4.52083,4.34276 0.1007,0 1.01433,-1.65972 2.0303,-3.68826 1.27177,-2.53932 1.90653,-3.57918 2.03765,-3.33809 0.10475,0.19258 2.32305,5.97637 4.92955,12.85285 2.60651,6.87649 4.81547,12.69388 4.90881,12.92756 0.0933,0.23366 0.0761,0.4191 -0.0384,0.41209 -0.11442,-0.007 -6.1405,-2.27033 -13.39128,-5.02956 z M 7.2041169,154.77328 c -6.97662668,-3.15144 -12.6847758,-5.79736 -12.6847758,-5.87983 0,-0.14536 25.2214519,-11.65361 25.5400349,-11.65361 0.08722,0 -0.43438,1.77154 -1.159112,3.93675 -0.724731,2.16522 -1.317694,3.96284 -1.317694,3.99472 0,0.0318 13.027689,0.0972 28.950422,0.14521 28.411483,0.0856 28.988838,0.0967 31.013972,0.59557 2.386692,0.58791 4.676129,1.41944 6.563413,2.38383 l 1.326639,0.67791 -1.456624,0.67041 c -1.810424,0.83326 -4.769694,1.79478 -7.161739,2.32699 -1.622694,0.36104 -4.942728,0.42031 -30.517232,0.54483 l -28.69645,0.13973 1.300111,3.94503 c 0.715059,2.16976 1.228941,3.93542 1.141959,3.92368 -0.08698,-0.0117 -5.866298,-2.59979 -12.8429241,-5.75122 z M 179.99625,160.4912 c 0,-0.0458 0.59297,-1.85482 1.3177,-4.02004 l 1.31769,-3.93675 h -26.29736 c -27.13083,0 -29.24422,-0.0635 -33.62659,-1.01006 -2.75365,-0.59477 -7.89009,-2.37519 -7.60913,-2.63752 0.1096,-0.10233 1.29174,-0.59191 2.62698,-1.08795 2.90765,-1.08019 6.70885,-1.96737 9.84395,-2.29754 1.37208,-0.14449 12.90184,-0.24334 28.67837,-0.24586 l 26.38378,-0.005 -1.31469,-3.9278 c -0.72308,-2.16029 -1.27342,-3.96907 -1.22298,-4.01951 0.1284,-0.1284 25.636,11.40038 25.636,11.5868 0,0.0836 -5.70816,2.70478 -12.68478,5.82485 -6.97663,3.12007 -12.76671,5.71472 -12.86686,5.76587 -0.10014,0.0511 -0.18208,0.0555 -0.18208,0.01 z M 54.484388,140.706 c 0.0019,-0.58053 1.529633,-6.07635 2.178106,-7.83603 1.59348,-4.32403 4.664273,-9.73154 7.343587,-12.93169 l 0.994503,-1.18783 -4.467625,-4.47252 -4.467627,-4.47253 -1.897761,3.78958 c -1.043765,2.08428 -1.938692,3.74866 -1.988722,3.69863 -0.166891,-0.16689 -10.04792,-26.289655 -9.972633,-26.36494 0.07883,-0.07883 25.4952,9.55326 26.096881,9.88998 0.250275,0.14006 -0.767781,0.76073 -3.45554,2.10672 l -3.810347,1.90815 4.47253,4.46763 4.472525,4.46763 1.187828,-0.99451 c 3.235407,-2.70884 8.935392,-5.93296 13.174456,-7.45197 1.600094,-0.57337 7.08333,-2.06795 7.593253,-2.06972 0.103812,-2.4e-4 0.158435,1.54551 0.121383,3.43527 l -0.06735,3.43593 -2.063551,0.54824 c -5.020432,1.33381 -10.706616,4.19369 -14.430833,7.25801 l -0.71428,0.58772 1.087358,1.16753 c 1.521799,1.63401 3.181144,4.02304 4.234754,6.09697 1.03209,2.03156 2.086769,4.99106 1.815608,5.09471 -0.279413,0.10681 -3.575603,-1.26646 -5.227561,-2.17793 -2.026877,-1.11833 -4.130585,-2.59444 -5.665911,-3.97562 l -1.299978,-1.16946 -0.476673,0.5916 c -1.037399,1.2875 -3.451564,5.0496 -4.232108,6.59508 -1.156595,2.29005 -2.199418,4.98469 -2.97932,7.69851 l -0.666977,2.32088 -3.444312,0.0674 c -1.894369,0.0371 -3.444015,-0.0176 -3.443655,-0.12138 z m 84.234822,-0.44732 c -0.13022,-0.34251 -0.23677,-0.72324 -0.23677,-0.84607 0,-0.68906 -1.90869,-5.75469 -2.95076,-7.83125 -1.35679,-2.70373 -1.91441,-3.61389 -3.79584,-6.19568 -1.17652,-1.61448 -1.33808,-1.74932 -1.7454,-1.45663 -0.24687,0.1774 -1.2939,0.96913 -2.32673,1.7594 -1.03283,0.79026 -2.78227,1.95725 -3.88765,2.59332 -2.15708,1.24124 -5.42215,2.74839 -5.59014,2.5804 -0.1296,-0.12959 0.85667,-2.39128 2.14164,-4.91117 1.03346,-2.02667 2.68594,-4.58274 4.14754,-6.41548 l 0.85692,-1.0745 -0.88999,-0.71973 c -3.72928,-3.01578 -9.34595,-5.81007 -14.20973,-7.06933 l -2.2176,-0.57415 -0.0674,-3.43521 -0.0674,-3.4352 0.91713,0.16431 c 6.63228,1.18822 14.35059,4.72396 19.86987,9.10232 l 1.47324,1.1687 4.45178,-4.45666 4.45177,-4.45666 -3.81363,-1.9098 -3.81363,-1.9098 13.27625,-5.037683 c 7.30194,-2.770725 13.30963,-5.004303 13.35042,-4.963512 0.0753,0.07532 -9.80561,26.198025 -9.97258,26.364995 -0.05,0.05 -0.94496,-1.61435 -1.98873,-3.69863 l -1.89776,-3.78958 -4.46762,4.47253 -4.46762,4.47252 0.99449,1.18783 c 2.67932,3.20015 5.75011,8.60766 7.34359,12.93169 0.64456,1.74905 2.17604,7.25407 2.17811,7.82936 2.4e-4,0.10014 -1.53151,0.18208 -3.40415,0.18208 h -3.4048 z m -39.509964,-8.62753 c -0.972979,-2.50565 -1.38733,-3.87109 -2.165697,-7.13678 -0.363352,-1.52447 -0.41402,-4.60442 -0.49226,-29.921501 -0.04799,-15.52216 -0.164767,-28.222109 -0.259551,-28.222109 -0.09478,0 -1.84531,0.557585 -3.890055,1.239081 -2.044753,0.681495 -3.764635,1.192178 -3.821964,1.134845 -0.122836,-0.122835 11.366685,-25.664993 11.544931,-25.665343 0.0953,-1.85e-4 11.3013,24.822714 11.6085,25.714468 0.0423,0.122746 -1.70195,-0.372229 -3.87607,-1.099939 -2.17411,-0.727712 -3.97926,-1.323112 -4.01143,-1.323112 -0.0322,0 -0.0989,12.5907 -0.14829,27.979338 -0.0804,25.035902 -0.13288,28.196422 -0.49929,30.042892 -0.50174,2.52837 -1.63226,6.42733 -2.42131,8.35063 l -0.58735,1.43166 z"
       id="path880"
       inkscape:connector-curvature="0" />
  </g>
</svg>
