<svg width="204" height="200" viewBox="0 0 204 200" fill="none" xmlns="http://www.w3.org/2000/svg">
<path d="M119.377 18.2741L101.852 0.261062L84.3262 18.2741H91.4381V74.6193L69.5945 54.3147L73.6584 48.731L48.767 46.7005V72.0812L54.8628 68.0203L73.6584 88.8325H19.8116V81.7259L0 98.9848L19.8116 117.259V110.66H73.6584L53.3389 131.98L48.767 125.888V152.284H72.1345L68.5786 146.701L91.4381 127.411V180.711H84.3262L101.852 199.724L119.377 180.711H112.266V127.411L135.125 146.701L131.569 152.284H154.937V125.888L150.365 131.98L130.045 110.66H183.892V117.259L203.704 98.9848L183.892 81.7259V88.8325H130.045L148.841 68.0203L154.937 72.0812V46.7005L130.045 48.731L134.109 54.3147L112.266 74.6193V18.2741H119.377Z" fill="black"/>
</svg>
