<?xml version="1.0" encoding="UTF-8" standalone="no"?>
<!-- Generator: Adobe Illustrator 23.0.3, SVG Export Plug-In . SVG Version: 6.00 Build 0)  -->

<svg
   xmlns:dc="http://purl.org/dc/elements/1.1/"
   xmlns:cc="http://creativecommons.org/ns#"
   xmlns:rdf="http://www.w3.org/1999/02/22-rdf-syntax-ns#"
   xmlns:svg="http://www.w3.org/2000/svg"
   xmlns="http://www.w3.org/2000/svg"
   xmlns:sodipodi="http://sodipodi.sourceforge.net/DTD/sodipodi-0.dtd"
   xmlns:inkscape="http://www.inkscape.org/namespaces/inkscape"
   version="1.1"
   id="Layer_3"
   x="0px"
   y="0px"
   viewBox="0 0 420.13644 800"
   xml:space="preserve"
   sodipodi:docname="Drukhari 2 [Aeldari, Dark Eldar].svg"
   width="420.13644"
   height="800"
   inkscape:version="0.92.3 (2405546, 2018-03-11)"><metadata
   id="metadata9"><rdf:RDF><cc:Work
       rdf:about=""><dc:format>image/svg+xml</dc:format><dc:type
         rdf:resource="http://purl.org/dc/dcmitype/StillImage" /><dc:title></dc:title></cc:Work></rdf:RDF></metadata><defs
   id="defs7" /><sodipodi:namedview
   pagecolor="#ffffff"
   bordercolor="#666666"
   borderopacity="1"
   objecttolerance="10"
   gridtolerance="10"
   guidetolerance="10"
   inkscape:pageopacity="0"
   inkscape:pageshadow="2"
   inkscape:window-width="1920"
   inkscape:window-height="1017"
   id="namedview5"
   showgrid="false"
   inkscape:pagecheckerboard="true"
   fit-margin-top="0"
   fit-margin-left="0"
   fit-margin-right="0"
   fit-margin-bottom="0"
   inkscape:zoom="0.236"
   inkscape:cx="-288.54237"
   inkscape:cy="467"
   inkscape:window-x="-8"
   inkscape:window-y="-8"
   inkscape:window-maximized="1"
   inkscape:current-layer="Layer_3" />
<path
   d="m 409.1794,287.64979 10.95703,6.49368 c -8.73821,-36.57196 -17.43358,-71.679 -25.54641,-90.08063 l 6.71643,-1.37927 c -12.85031,-30.46379 -25.1866,-57.12389 -36.03226,-73.0497 l 7.37608,-2.39015 C 355.49083,97.24254 338.16005,67.72967 316.59724,50.44173 c -1.38783,-2.91274 2.14172,-5.21722 9.02948,-7.1105 C 307.17368,25.17803 286.87877,10.40875 264.22796,0 c 21.81125,33.7963 37.14595,65.81069 46.40674,97.70515 0.49688,-0.77102 1.11369,-1.30216 1.85044,-1.54204 4.02643,-1.31073 10.14318,6.37375 13.66416,17.16801 3.52098,10.79426 3.10121,20.61189 -0.92522,21.92262 -2.03892,0.65965 -4.60898,-0.97662 -7.10194,-4.14636 6.58793,41.64355 3.11834,84.06669 -9.56062,130.91033 36.28069,-31.96299 17.96472,-1.95324 13.89546,20.75753 10.16887,-14.34094 17.71628,-15.89155 24.62975,-12.07072 0,0 15.52317,11.67664 -5.35429,33.46219 -57.60364,34.60159 -23.893,-5.57703 -23.893,-5.57703 -34.03618,6.27095 -55.81316,-8.54974 -73.34954,-16.38842 13.86119,12.80747 22.4452,25.5721 21.71701,37.51432 l -8.30986,-0.35124 c -20.9203,-51.02428 -37.66853,-106.16065 -53.14886,-160.1662 -4.61755,38.74795 -10.26311,74.83161 -16.87674,108.43944 1.85901,-2.07318 3.9322,-3.14404 5.89401,-2.75853 4.41194,0.87382 6.57079,8.72964 4.82315,17.54495 -1.74764,8.8153 -6.73356,15.25759 -11.13693,14.39234 -2.07318,-0.41121 -3.64092,-2.37303 -4.54901,-5.24293 -4.65181,21.31437 -9.70626,41.57502 -15.14623,60.84191 l -11.83941,2.96414 c -3.11834,-11.54814 2.7157,-25.78628 13.70699,-41.12098 -15.5917,11.21404 -33.93337,30.11255 -68.53496,30.84074 0,0 41.12098,32.5541 -22.27386,10.28024 -24.84392,-17.13374 -11.99362,-31.69742 -11.99362,-31.69742 5.99681,-5.14012 13.707,-5.14012 26.5573,6.8535 -8.56687,-21.41718 -32.5541,-47.11779 9.42356,-23.13055 -21.87122,-43.32266 -33.822,-84.1695 -35.76668,-126.2928 -1.80761,3.61522 -3.99217,5.73981 -6.12532,5.49993 -4.2149,-0.47117 -6.59649,-10.0061 -5.32859,-21.28867 1.2679,-11.28256 5.7141,-20.04647 9.92044,-19.57529 0.77101,0.0857 1.48206,0.47974 2.12458,1.13082 C 70.26547,113.78516 78.83234,79.32921 93.37888,41.83203 73.28957,56.60131 56.3957,75.15715 41.97766,96.65999 49.1053,97.1226 53.02892,98.67321 52.25791,101.80011 34.62729,123.08022 23.61029,155.48012 12.8503,188.3255 l 7.71019,0.85669 C 13.14158,206.96701 6.44229,235.56322 0,267.99739 H 6.8535 C 2.6129,287.64979 1.18223,323.79341 0,361.37627 l 9.42356,-8.56687 c 4.88311,49.07959 18.84711,108.79924 53.11459,171.33739 -18.84711,-77.95851 12.8503,-104.51581 51.40122,-112.22599 14.43517,6.27951 20.01221,17.44215 22.7279,30.50662 -6.15958,14.69218 -12.61043,28.62191 -19.34399,41.82346 1.23363,-0.35124 2.40729,-0.33411 3.45245,0.11994 4.1121,1.81617 4.58328,9.7748 1.04516,17.78482 -3.53812,8.01002 -9.73197,13.03021 -13.84406,11.21403 -1.86758,-0.82242 -2.97271,-2.92987 -3.30682,-5.72267 -22.58226,39.34763 -47.93163,71.54193 -75.54265,97.88506 35.3469,-23.7388 71.03648,-43.70817 107.08587,-59.47978 -0.0343,-0.0428 -0.0771,-0.0857 -0.1028,-0.1285 -2.40729,-3.79513 1.6277,-10.67432 9.02091,-15.36897 7.39321,-4.69464 15.3347,-5.41426 17.74199,-1.6277 1.06229,1.6791 0.86525,3.95789 -0.31698,6.38231 14.55512,-5.49993 29.1702,-10.29737 43.84524,-14.3752 13.707,7.1362 22.4966,45.56718 -7.65021,28.91318 4.54901,19.92654 4.32627,37.7028 0,53.97128 3.64949,1.1651 6.89633,2.70713 9.7491,4.60898 -31.03777,21.3058 -54.93934,28.40774 -78.28406,15.09482 9.73196,39.0992 -13.14158,85.29176 -41.97766,132.78648 23.46465,-26.60013 46.85221,-51.58112 70.16266,-72.76699 -1.10512,-0.0942 -1.97894,-0.44547 -2.51866,-1.11369 -2.63003,-3.22971 3.11834,-12.26776 12.84174,-20.17498 9.7234,-7.91579 19.73807,-11.71091 22.3681,-8.4812 0.47974,0.59111 0.67678,1.3707 0.62538,2.30449 10.35734,-7.59025 20.69756,-14.23814 31.02063,-19.7038 0.53115,-0.21417 1.07943,-0.26558 1.61058,-0.17991 0.64251,4.34341 0.88238,9.05518 0.74531,14.0925 C 207.82369,697.4203 176.46895,748.04193 139.63998,800 214.83996,724.24317 286.65603,657.78139 348.6716,609.81549 c -27.928,14.98346 -53.26023,24.78396 -73.16107,25.34937 -13.964,-2.5615 -22.18819,-9.24365 -24.50125,-20.20925 4.65181,-18.84711 17.99043,-26.55729 17.99043,-6.85349 18.45304,-24.89533 31.38901,-25.80341 39.4076,-5.99681 l 29.98405,-87.38207 c -31.15771,38.09687 -59.49691,60.32789 -82.24195,42.83435 -17.13374,4.28343 -23.13055,-12.85031 -0.85669,-17.99043 -20.53479,-5.13156 19.59243,-27.35402 40.17862,-34.23321 0.0514,0 0.11137,-0.009 0.16277,-0.0171 -2.17599,-1.27646 -3.50385,-2.9213 -3.50385,-4.72891 0,-4.01786 6.51939,-7.28184 14.56368,-7.28184 8.04429,0 14.56368,3.26398 14.56368,7.28184 0,1.36213 -0.76245,2.63003 -2.05605,3.71802 27.57675,-0.41977 55.38481,1.85045 83.44131,6.99057 -9.25222,-5.38856 -18.05896,-11.41107 -26.47163,-17.97329 0.0685,1.71337 -0.36837,3.19544 -1.40496,4.23203 -2.95557,2.95557 -9.56063,1.14796 -14.74359,-4.035 -5.18295,-5.18295 -6.99056,-11.78801 -4.03499,-14.74358 0.53114,-0.53114 1.17366,-0.89952 1.91041,-1.13083 -9.83477,-9.25222 -19.08699,-19.30972 -27.79093,-30.06971 -0.14563,0.61682 -0.42834,1.14796 -0.85668,1.54204 -2.08175,1.92754 -6.76783,0.26557 -10.46872,-3.72659 -3.70089,-3.98359 -5.02018,-8.78961 -2.93844,-10.71715 0.89953,-0.83956 2.29593,-0.99376 3.88936,-0.58255 -5.8426,-7.98432 -11.4282,-16.31132 -16.78249,-24.90389 -1.1908,-16.53406 0.35124,-31.70599 15.78874,-42.56878 39.31336,-0.22274 75.71399,19.3954 72.98116,99.5556 20.946,-68.15802 22.5737,-129.47111 17.45928,-178.525 z M 277.31814,461.3345 c -0.41978,3.97503 -5.33716,8.15566 -12.06215,9.89474 -7.74445,2.00465 -14.95776,0.0257 -16.10572,-4.42051 -0.1799,-0.69391 -0.1799,-1.41353 -0.06,-2.13315 -31.88589,5.41427 -63.54904,16.28562 -93.17328,32.05723 27.73952,-55.39338 47.7603,-119.23369 60.82478,-184.1877 8.4298,22.89924 18.4102,46.53524 30.02687,69.28884 0.29984,-0.41121 0.65109,-0.75388 1.088,-1.00232 2.75853,-1.59344 7.19617,0.94235 9.92043,5.65413 2.72427,4.71178 2.69,9.8262 -0.06,11.41964 -0.62538,0.35981 -1.345,0.50545 -2.10745,0.46261 12.70467,22.71934 27.13128,44.10225 43.37407,62.38395 -7.18761,-0.10281 -14.41805,0.1028 -21.66562,0.58254 z"
   id="path2"
   inkscape:connector-curvature="0"
   style="stroke-width:0.85668695" />
</svg>