<?xml version="1.0" encoding="UTF-8" standalone="no"?>
<!-- Generator: Adobe Illustrator 22.0.1, SVG Export Plug-In . SVG Version: 6.00 Build 0)  -->

<svg
   xmlns:dc="http://purl.org/dc/elements/1.1/"
   xmlns:cc="http://creativecommons.org/ns#"
   xmlns:rdf="http://www.w3.org/1999/02/22-rdf-syntax-ns#"
   xmlns:svg="http://www.w3.org/2000/svg"
   xmlns="http://www.w3.org/2000/svg"
   xmlns:sodipodi="http://sodipodi.sourceforge.net/DTD/sodipodi-0.dtd"
   xmlns:inkscape="http://www.inkscape.org/namespaces/inkscape"
   version="1.1"
   id="Layer_3"
   x="0px"
   y="0px"
   viewBox="0 0 777.28809 800"
   xml:space="preserve"
   sodipodi:docname="Emperor's Children [Chaos, Heretic Astartes, Chaos Space Marines, Legion, Slaanesh].svg"
   width="777.28809"
   height="800"
   inkscape:version="0.92.3 (2405546, 2018-03-11)"><metadata
   id="metadata41"><rdf:RDF><cc:Work
       rdf:about=""><dc:format>image/svg+xml</dc:format><dc:type
         rdf:resource="http://purl.org/dc/dcmitype/StillImage" /><dc:title></dc:title></cc:Work></rdf:RDF></metadata><defs
   id="defs39" /><sodipodi:namedview
   pagecolor="#ffffff"
   bordercolor="#666666"
   borderopacity="1"
   objecttolerance="10"
   gridtolerance="10"
   guidetolerance="10"
   inkscape:pageopacity="0"
   inkscape:pageshadow="2"
   inkscape:window-width="1920"
   inkscape:window-height="1017"
   id="namedview37"
   showgrid="false"
   inkscape:pagecheckerboard="true"
   fit-margin-top="0"
   fit-margin-left="0"
   fit-margin-right="0"
   fit-margin-bottom="0"
   inkscape:zoom="0.26787741"
   inkscape:cx="-36.764831"
   inkscape:cy="440.5"
   inkscape:window-x="-8"
   inkscape:window-y="-8"
   inkscape:window-maximized="1"
   inkscape:current-layer="Layer_3" />
<g
   id="g34"
   transform="scale(0.90805902)">
	<circle
   cx="53.5"
   cy="841.5"
   r="39.5"
   id="circle2" />
	<path
   d="m 161,725 c -6.9,1.5 -48,41 -48,41 -2.6,0.6 -15,4 -25,-3 -19,-13 -38.4,-5.5 -42,-5 -31.3,4 -46,69 -46,69 30,-30 53,-47 83,-23 31,21 8,70 8,70 5.7,1.9 15.3,-8.2 20,-18 7.9,-16.6 1,-39 1,-42 18,-25 61,-57 69,-73 0,0 -6,-19 -20,-16 z"
   id="path4"
   inkscape:connector-curvature="0" />
	<path
   d="M 276,609 C 174.4,587.2 187,497 236,471 259,453 896,74 854,0 c 4,2 -451,328 -461,326 -11,6 -6,-25 -6,-25 -117,91 -221,177 -265,209 -43.3,31.5 -8,98 18,98 26,0 46.2,-11.5 73,14 21,20 -68,86 -68,86 29,6 46,23 46,53 0,0 127,-143 85,-152 z"
   id="path6"
   inkscape:connector-curvature="0" />
	<path
   d="m 244,710 c 17.8,7.4 66,7 66,7 l -41,-45 c 0,0 -37,33 -25,38 z"
   id="path8"
   inkscape:connector-curvature="0" />
	<path
   d="m 270,664 c 0,0 14,24 23,24 9,0 29,2 52,-5 0,-3 -58,-43 -58,-43 z"
   id="path10"
   inkscape:connector-curvature="0" />
	<path
   d="m 403,642 c -15,-2 -139.2,-54.2 -123,-38 8,8 14,16 9,27 -3,6.7 25,24 52,32 26.8,8 74.9,-19.3 62,-21 z"
   id="path12"
   inkscape:connector-curvature="0" />
	<path
   d="m 433,591 c -11,-3 -208,-47 -213,-35 -13,19 43.8,45.6 49,44 10,-13 89,24 108,16 9.9,-4.1 68.8,-21.5 56,-25 z"
   id="path14"
   inkscape:connector-curvature="0" />
	<path
   d="m 475,507 c -94,28 -249,-30 -261,2 -6.6,14.7 0,33 0,33 0,0 159,29 205,23 31,-4 52,-41 56,-58 z"
   id="path16"
   inkscape:connector-curvature="0" />
	<path
   d="m 265,461 c -29.8,17.4 -30,26 -30,26 0,0 148,35 225,4 14.1,-16.7 29,-74 29,-74 0,0 -186,42 -224,44 z"
   id="path18"
   inkscape:connector-curvature="0" />
	<path
   d="m 484,321 c -42,19 -67,48 -159,98 -22.9,15.6 -30.2,20.3 -29,25 4.4,17.6 139,-19 175,-35 21,-18 13,-88 13,-88 z"
   id="path20"
   inkscape:connector-curvature="0" />
	<path
   d="m 349,670 c 0,0 5.4,10.5 3,16 -3.3,7.5 -19.3,3.5 -21,7 -4,8 64,42 117,48 15.9,-0.1 51,-4 51,-4 0,0 -56,-37 -116,-71 -15,6 -34,4 -34,4 z"
   id="path22"
   inkscape:connector-curvature="0" />
	<path
   d="m 422,611 c 3,3 -36,11 -36,11 0,0 39,15 39,21 0,6 -29,17 -29,17 0,0 65,44 115,44 50,0 106,-64 106,-64 -38,9 -198,-32 -195,-29 z"
   id="path24"
   inkscape:connector-curvature="0" />
	<path
   d="m 456.8,557.9 c 2.6,-3.8 -36.6,22.2 -36.6,22.2 0,0 35.2,2.9 36.8,8.9 1.7,6 -22,12 -22,12 0,0 91.1,37.5 146.3,21.9 C 636.5,607.3 676,539 676,539 636.6,559.9 454,562 456.8,557.9 Z"
   id="path26"
   inkscape:connector-curvature="0" />
	<path
   d="m 482,467 -18.6,29.6 c 0,0 22.6,1.9 25.6,7.4 3,5.5 -21,35 -21,35 -6,12 194,-7 194,-7 47.6,-32 109,-129 109,-129 -33.8,29 -287.2,83.1 -289,64 z"
   id="path28"
   inkscape:connector-curvature="0" />
	<path
   d="m 811,251 c -40,45 -298.3,129.5 -321,146 -1.9,1.4 -9.1,6.6 -8,11 1,3.8 7.4,3.4 11,7 8.9,8.8 -9.7,31.5 -6,42 0,0 143,-11 259,-57 43.9,-43.1 81,-143 65,-149 z"
   id="path30"
   inkscape:connector-curvature="0" />
	<path
   d="m 493,379 c 37,10 278,-105 302,-123 24,-18 56,-205 56,-205 0,0 -288,241 -358,266 0,0 9,42 0,62 z"
   id="path32"
   inkscape:connector-curvature="0" />
</g>
</svg>