<?xml version="1.0" encoding="UTF-8" standalone="no"?>
<!-- Generator: Adobe Illustrator 22.1.0, SVG Export Plug-In . SVG Version: 6.00 Build 0)  -->

<svg
   xmlns:dc="http://purl.org/dc/elements/1.1/"
   xmlns:cc="http://creativecommons.org/ns#"
   xmlns:rdf="http://www.w3.org/1999/02/22-rdf-syntax-ns#"
   xmlns:svg="http://www.w3.org/2000/svg"
   xmlns="http://www.w3.org/2000/svg"
   xmlns:sodipodi="http://sodipodi.sourceforge.net/DTD/sodipodi-0.dtd"
   xmlns:inkscape="http://www.inkscape.org/namespaces/inkscape"
   version="1.1"
   id="Layer_2"
   x="0px"
   y="0px"
   viewBox="0 0 841.51367 800"
   xml:space="preserve"
   sodipodi:docname="Genestealer Cults [Hive Mind, Tyranids, Genestealers].svg"
   width="841.51367"
   height="800"
   inkscape:version="0.92.3 (2405546, 2018-03-11)"><metadata
   id="metadata9"><rdf:RDF><cc:Work
       rdf:about=""><dc:format>image/svg+xml</dc:format><dc:type
         rdf:resource="http://purl.org/dc/dcmitype/StillImage" /><dc:title></dc:title></cc:Work></rdf:RDF></metadata><defs
   id="defs7" /><sodipodi:namedview
   pagecolor="#ffffff"
   bordercolor="#666666"
   borderopacity="1"
   objecttolerance="10"
   gridtolerance="10"
   guidetolerance="10"
   inkscape:pageopacity="0"
   inkscape:pageshadow="2"
   inkscape:window-width="1920"
   inkscape:window-height="1017"
   id="namedview5"
   showgrid="false"
   fit-margin-top="0"
   fit-margin-left="0"
   fit-margin-right="0"
   fit-margin-bottom="0"
   inkscape:pagecheckerboard="true"
   inkscape:zoom="0.236"
   inkscape:cx="-57.918859"
   inkscape:cy="451.2"
   inkscape:window-x="-8"
   inkscape:window-y="-8"
   inkscape:window-maximized="1"
   inkscape:current-layer="Layer_2" />
<path
   d="m 815.39901,454.04914 c -17.37944,0 -31.39218,-16.7425 -31.39218,-37.30665 0,-20.56415 14.01274,-37.30664 31.39218,-37.30664 8.18926,0 15.65059,3.73067 21.20109,9.82712 1.72885,1.91082 4.91356,0.72793 4.91356,-1.91083 -0.27298,-29.29936 -2.82075,-56.86988 -7.55232,-82.89354 -0.45496,-2.54777 -4.00364,-3.18471 -5.18654,-0.90992 -3.63967,6.82439 -9.64513,12.10191 -17.28844,14.37671 -16.19654,4.82256 -33.66697,-5.82348 -38.94449,-23.74887 -5.27753,-17.92538 3.54868,-36.39672 19.74522,-41.12829 8.73521,-2.54778 17.7434,-0.72794 25.11374,4.3676 2.1838,1.54686 5.09554,-0.63694 4.27661,-3.18471 -10.91901,-34.75887 -26.20564,-65.96906 -45.22293,-93.63057 -1.81983,-2.63877 -5.73248,-1.72885 -6.36942,1.36487 -1.1829,5.91447 -4.00364,11.46497 -8.46224,15.92357 -12.64786,12.64786 -33.84895,12.01092 -47.22475,-1.45587 -13.46679,-13.46679 -14.10373,-34.66788 -1.45587,-47.22475 6.09645,-6.09645 14.10373,-9.09918 22.38399,-9.09918 3.18471,0 4.73157,-3.73066 2.54777,-6.00546 -25.84168,-25.84167 -55.77798,-47.22475 -89.17198,-64.33121 -2.91174,-1.54686 -6.09645,1.54686 -4.82256,4.54959 3.36669,7.91629 3.73066,16.6515 0.091,24.56779 -7.37034,16.01456 -28.11647,22.29299 -46.40583,13.92175 -18.28935,-8.37125 -27.11556,-28.20746 -19.74522,-44.22202 3.27571,-7.18836 9.28117,-12.46588 16.56051,-15.19564 3.00273,-1.18289 2.91174,-5.5505 -0.18198,-6.6424 C 541.69564,8.9172 483.2789,0 421.0405,0 c 0,0 -0.091,0 -0.091,0 C 184.46178,14.4677 23.861241,211.19199 0.02138667,386.98817 c -0.181984,1.27389 0.818926,2.45678 2.18380303,2.36579 36.1237493,-0.81893 108.1892603,-2.2748 143.7670603,-6.7334 3.91265,-0.45495 4.64058,-5.82347 1.00091,-7.37033 -13.73977,-5.91447 -22.74796,-12.10191 -24.93176,-19.10828 -0.45496,-1.36488 0.63694,-2.72976 2.09281,-2.72976 10.82803,0.27298 44.495,-8.91719 61.32848,-21.20109 1.36488,-1.00091 1.0919,-3.09372 -0.45496,-3.73066 -6.73339,-2.72976 -21.92902,-6.09645 -18.92629,-9.19018 19.56324,-4.3676 44.58598,-9.9181 68.15286,-26.38762 1.45587,-1.00091 1.09191,-3.3667 -0.72793,-3.82166 -16.19654,-4.09463 -28.38945,-8.73521 -33.03003,-14.92265 -1.00091,-1.36488 -0.18198,-3.18472 1.45587,-3.3667 23.93085,-2.2748 51.41037,-3.73067 72.06551,-16.19654 1.54687,-1.00091 1.27389,-3.3667 -0.54595,-3.82166 -15.83257,-4.64058 -29.11738,-10.19108 -27.66151,-21.65605 0.091,-1.00091 0.90992,-1.72884 1.91083,-1.81984 72.15651,-7.7343 107.37034,18.19837 106.7334,76.88808 0,0.90992 -0.54596,1.72885 -1.45587,2.00182 -18.01638,6.09645 -36.48772,3.73067 -57.32484,1.72885 -1.72885,-0.18199 -2.91174,1.63785 -2.09282,3.18471 5.73249,10.10009 10.28208,16.56051 12.73886,20.74613 0.45496,0.72794 0.36396,1.63786 -0.091,2.36579 -9.37216,12.73885 -21.2011,8.64422 -39.12648,-1.36488 -1.36488,-0.72793 -3.09372,0.18199 -3.18472,1.72885 -0.27297,8.09827 3.63968,13.2848 8.18927,18.10737 0.72793,0.81892 0.81892,2.00182 0.091,2.82074 -9.73613,11.46497 -27.47953,10.64605 -46.76979,6.91538 -3.18472,-0.63694 -5.45951,3.09372 -3.3667,5.64149 4.91356,6.00546 9.28117,10.73704 12.82985,13.28481 1.27388,0.90992 1.18289,2.91174 -0.27298,3.63967 -10.0091,4.91356 -24.4768,5.5505 -39.67243,5.09554 -3.54868,-0.091 -4.82256,4.64058 -1.72884,6.27844 32.30209,17.19745 83.3485,18.8353 127.57052,13.19381 0.54595,-0.091 1.00091,-0.27298 1.27388,-0.72793 40.30937,-44.94996 90.44586,-76.25114 148.40764,-96.90628 1.72885,-0.63695 1.91083,-3.00273 0.27298,-3.91265 -12.82985,-6.6424 -23.83985,-17.47043 -32.66606,-31.93813 -0.81893,-1.36487 0.18198,-3.18471 1.81984,-3.18471 116.56051,-0.27298 177.707,63.87625 181.98362,194.54049 0,0.18199 0,0.36397 0,0.45496 -22.56597,123.47589 -115.5596,196.45132 -225.65969,211.82894 0,0 0,0 0,0 -127.93449,8.91719 -237.67061,-48.58963 -336.123748,-162.42039 -1.455869,-1.72884 -4.185623,-0.27297 -3.639673,1.91083 25.022745,96.17835 84.440401,180.43676 183.166511,231.93813 1.72884,0.90992 3.91265,-0.27298 4.09463,-2.18381 0.27298,-3.2757 1.45587,-6.36942 3.63967,-8.91719 6.55141,-7.8253 19.74523,-7.55232 29.29937,0.54595 9.64513,8.09827 12.10191,21.01911 5.45951,28.75341 -0.18199,0.27298 -0.45496,0.45496 -0.63695,0.72793 14.92266,5.73249 30.48226,10.91902 46.95178,15.28663 2.1838,0.54595 4.18562,-1.54686 3.36669,-3.63967 -1.0919,-3.00273 -1.45586,-6.18745 -0.90991,-9.46315 2.00182,-10.64604 13.64877,-17.47043 25.93266,-15.19563 12.2839,2.27479 20.65514,12.82984 18.65332,23.56687 -0.72793,3.73067 -2.54777,7.00637 -5.18653,9.55414 -1.63785,1.63786 -0.81893,4.36761 1.45587,4.82257 11.01001,2.00182 22.29299,3.63967 33.84895,5.00455 0.091,0 0.091,0 0.18199,0 14.55869,0 28.93539,-0.54595 43.13012,-1.54686 2.54777,-0.18198 3.54868,-3.3667 1.54686,-5.00455 -5.18654,-4.27662 -8.46224,-10.37307 -8.46224,-17.10646 0,-13.10282 12.1929,-23.65787 27.29754,-23.65787 15.10464,0 27.29754,10.55505 27.29754,23.65787 0,4.54959 -1.54686,8.8262 -4.09463,12.46588 -1.45587,2.00182 0.18199,4.82256 2.72976,4.4586 28.66242,-4.4586 56.14194,-11.101 82.34759,-20.0182 2.45677,-0.81893 2.54777,-4.36761 0.091,-5.27753 -5.5505,-2.09281 -10.37307,-5.91447 -13.46679,-11.28298 -7.64331,-13.28481 -1.91083,-30.93722 12.73885,-39.39946 14.74068,-8.46223 32.84805,-4.64058 40.49136,8.64423 4.64058,8.09827 4.36761,17.7434 0.091,26.02365 -1.18289,2.36579 1.27389,4.91356 3.73066,3.82166 32.57507,-15.19563 62.51138,-34.21292 89.08099,-57.14286 1.81983,-1.54686 0.90992,-4.64058 -1.54686,-4.91355 -6.09645,-0.54596 -12.10191,-3.00273 -17.19746,-7.18836 -13.37579,-11.19199 -14.92265,-31.21019 -3.63967,-44.67698 11.37398,-13.46679 31.39218,-15.28662 44.67698,-4.09463 6.46042,5.45951 10.19108,13.01183 11.01001,20.92812 0.27298,2.45678 3.27571,3.45769 4.91356,1.54686 18.56233,-21.65605 34.75887,-45.85987 48.31665,-72.52047 1.0919,-2.18381 -1.00091,-4.73158 -3.3667,-3.91265 -7.18835,2.36578 -15.28662,2.36578 -23.11192,-0.45496 -17.56142,-6.46042 -26.93357,-25.02275 -20.83712,-41.49227 6.09645,-16.46951 25.20473,-24.65878 42.76615,-18.19836 8.9172,3.27571 15.74158,9.73612 19.47225,17.37944 1.0919,2.27479 4.3676,2.09281 5.18653,-0.27298 9.91811,-28.11647 17.19745,-58.41674 21.65605,-90.99181 -3.73066,-1.91083 -1.00091,-0.54595 -4.64058,-2.45678 -5.36852,4.09463 -11.64695,6.7334 -18.56233,6.7334 z M 123.2243,219.10828 c -3.54868,2.54777 -8.00727,-1.54686 -5.82347,-5.27752 14.92266,-25.11374 42.40218,-59.59964 76.06915,-80.0728 12.55687,-2.09281 21.56506,-0.81892 24.56779,6.36943 -12.37489,16.37852 -58.50773,52.68426 -94.81347,78.98089 z"
   id="path2"
   inkscape:connector-curvature="0"
   style="stroke-width:0.90991813" />
</svg>