<?xml version="1.0" encoding="UTF-8" standalone="no"?>
<!-- Created with Inkscape (http://www.inkscape.org/) -->

<svg
   xmlns:dc="http://purl.org/dc/elements/1.1/"
   xmlns:cc="http://creativecommons.org/ns#"
   xmlns:rdf="http://www.w3.org/1999/02/22-rdf-syntax-ns#"
   xmlns:svg="http://www.w3.org/2000/svg"
   xmlns="http://www.w3.org/2000/svg"
   xmlns:sodipodi="http://sodipodi.sourceforge.net/DTD/sodipodi-0.dtd"
   xmlns:inkscape="http://www.inkscape.org/namespaces/inkscape"
   width="390.3801"
   height="800"
   viewBox="0 0 103.28807 211.66667"
   version="1.1"
   id="svg8"
   inkscape:version="0.92.3 (2405546, 2018-03-11)"
   sodipodi:docname="Harlequins [Aeldari, Eldar, Rillietann].svg">
  <defs
     id="defs2" />
  <sodipodi:namedview
     id="base"
     pagecolor="#ffffff"
     bordercolor="#666666"
     borderopacity="1.0"
     inkscape:pageopacity="0.0"
     inkscape:pageshadow="2"
     inkscape:zoom="0.7"
     inkscape:cx="83.606259"
     inkscape:cy="610.6343"
     inkscape:document-units="px"
     inkscape:current-layer="layer1"
     showgrid="false"
     inkscape:pagecheckerboard="true"
     fit-margin-top="0"
     fit-margin-left="0"
     fit-margin-right="0"
     fit-margin-bottom="0"
     inkscape:window-width="1920"
     inkscape:window-height="1017"
     inkscape:window-x="-8"
     inkscape:window-y="-8"
     inkscape:window-maximized="1"
     units="px" />
  <metadata
     id="metadata5">
    <rdf:RDF>
      <cc:Work
         rdf:about="">
        <dc:format>image/svg+xml</dc:format>
        <dc:type
           rdf:resource="http://purl.org/dc/dcmitype/StillImage" />
        <dc:title></dc:title>
      </cc:Work>
    </rdf:RDF>
  </metadata>
  <g
     inkscape:label="Layer 1"
     inkscape:groupmode="layer"
     id="layer1"
     transform="translate(-51.338321,-36.816343)">
    <path
       style="fill:#000000;fill-opacity:1;stroke:none;stroke-width:0.54656994px;stroke-linecap:butt;stroke-linejoin:miter;stroke-opacity:1"
       d="m 154.62639,36.816343 c -19.72251,9.156864 -33.49392,27.627594 -36.66086,49.122997 h -5.59118 V 36.816343 H 93.590369 V 85.93934 H 87.999194 C 84.831983,64.444254 71.060603,45.973048 51.338321,36.816343 v 20.899041 c 12.28529,4.927145 21.312595,15.49999 24.34835,28.223956 H 59.04284 v 18.78311 h 16.642098 c -3.009495,12.6146 -11.956356,23.25678 -24.346617,28.22741 v 20.90769 c 19.901312,-9.24061 33.536903,-27.83613 36.666059,-49.1351 h 5.585989 v 54.30949 H 51.338321 l 51.643609,89.45107 51.64446,-89.45107 h -42.25204 v -54.30949 h 5.58599 c 3.12915,21.29897 16.76476,39.89449 36.66605,49.1351 v -20.90769 c -12.39025,-4.97063 -21.3371,-15.61281 -24.34661,-28.22741 h 16.6421 V 85.93934 H 130.27805 C 133.3138,73.215374 142.34111,62.642529 154.62639,57.715384 Z M 73.612242,171.4664 h 58.739378 l -29.36969,50.86969 z"
       id="path826"
       inkscape:connector-curvature="0"
       sodipodi:nodetypes="cccccccccccccccccccccccccccccccccccc" />
  </g>
</svg>
