<?xml version="1.0" encoding="UTF-8" standalone="no"?>
<!-- Generator: Adobe Illustrator 23.0.1, SVG Export Plug-In . SVG Version: 6.00 Build 0)  -->

<svg
   xmlns:dc="http://purl.org/dc/elements/1.1/"
   xmlns:cc="http://creativecommons.org/ns#"
   xmlns:rdf="http://www.w3.org/1999/02/22-rdf-syntax-ns#"
   xmlns:svg="http://www.w3.org/2000/svg"
   xmlns="http://www.w3.org/2000/svg"
   xmlns:sodipodi="http://sodipodi.sourceforge.net/DTD/sodipodi-0.dtd"
   xmlns:inkscape="http://www.inkscape.org/namespaces/inkscape"
   version="1.1"
   id="Layer_3"
   x="0px"
   y="0px"
   viewBox="0 0 642.38806 800"
   xml:space="preserve"
   sodipodi:docname="Imperial Knights [Imperium, Questor Imperialis, Questoris Knights].svg"
   width="642.38806"
   height="800"
   inkscape:version="0.92.3 (2405546, 2018-03-11)"><metadata
   id="metadata9"><rdf:RDF><cc:Work
       rdf:about=""><dc:format>image/svg+xml</dc:format><dc:type
         rdf:resource="http://purl.org/dc/dcmitype/StillImage" /><dc:title></dc:title></cc:Work></rdf:RDF></metadata><defs
   id="defs7" /><sodipodi:namedview
   pagecolor="#ffffff"
   bordercolor="#666666"
   borderopacity="1"
   objecttolerance="10"
   gridtolerance="10"
   guidetolerance="10"
   inkscape:pageopacity="0"
   inkscape:pageshadow="2"
   inkscape:window-width="1920"
   inkscape:window-height="1017"
   id="namedview5"
   showgrid="false"
   fit-margin-top="0"
   fit-margin-left="0"
   fit-margin-right="0"
   fit-margin-bottom="0"
   inkscape:pagecheckerboard="true"
   inkscape:zoom="0.236"
   inkscape:cx="-195.44237"
   inkscape:cy="446.01"
   inkscape:window-x="-8"
   inkscape:window-y="-8"
   inkscape:window-maximized="1"
   inkscape:current-layer="Layer_3" />
<path
   d="m 642.38807,320.46684 h -24.12425 v -21.10757 c 1.50834,-27.14094 -33.17432,-42.22438 -33.17432,-42.22438 0,0 11.01184,-90.48215 -13.5751,-156.83079 C 560.2157,69.813342 544.37346,47.530562 527.78167,32.447122 511.18989,17.363682 476.18334,12.052082 441.82456,6.8145215 395.75066,-0.20899849 354.7385,-0.93077849 321.18478,0.78114151 287.63106,-0.93077849 246.62816,-0.20899849 200.54501,6.8145215 166.18622,12.052082 129.67133,20.389622 114.58789,32.447122 99.50445,44.504622 82.15386,69.822592 70.85516,100.3041 46.26823,166.65274 57.28007,257.13489 57.28007,257.13489 c 0,0 -34.68267,15.08344 -33.17432,42.22438 v 21.10757 H 0 v 81.43208 h 25.6326 l -1.50835,60.31526 c 24.42037,88.40007 56.89142,155.00781 101.03131,190.0051 0,0 10.55841,3.01669 15.08344,70.87367 C 161.34656,766.82568 202.0626,800 202.0626,800 c 22.65293,0 119.13144,0 119.13144,0 0,0 96.46925,0 119.13143,0 0,0 40.71604,-33.17432 61.8236,-76.90705 4.52504,-67.85698 15.08345,-70.87367 15.08345,-70.87367 44.13989,-34.99729 76.61093,-101.60503 101.0313,-190.0051 l -1.50835,-60.31526 h 25.6326 z M 369.95149,24.331672 c 25.46604,4.71936 50.93207,9.42947 76.3981,14.14883 2.86863,1.66565 8.21724,5.33935 12.06676,12.06675 6.54232,11.44676 3.71071,23.04158 3.01668,25.6326 4.96921,-4.53429 12.95511,-10.67871 24.12426,-15.08344 17.49864,-6.88472 33.09103,-5.65398 40.71604,-4.52504 10.29005,12.19631 20.27474,26.67826 28.64928,43.732728 22.61591,36.19101 9.05007,173.41332 3.01669,203.57095 -20.60787,10.04946 -41.21573,20.10817 -61.8236,30.15763 -4.50653,-7.53247 -9.61454,-17.63745 -13.5751,-30.15763 -3.63668,-11.52079 -5.29309,-21.88487 -6.03338,-30.15763 -7.71754,25.43827 -8.80947,28.91764 -10.55841,33.17432 -3.62743,8.85574 -10.12349,21.22786 -22.61591,34.68266 h -78.41539 c -3.76623,-28.13108 -6.82919,-58.6311 -8.67992,-91.23169 h 16.2494 c 1.26775,7.81933 3.5349,14.27837 7.50471,21.10757 31.82329,-6.41278 58.38125,-19.38639 79.5906,-39.02263 l 1.83223,-0.18507 c -0.26836,-0.2591 -0.54597,-0.4997 -0.81432,-0.74955 0.26835,-0.2591 0.54596,-0.49969 0.81432,-0.74954 l -1.83223,-0.18507 c -21.2186,-19.63624 -47.77657,-32.60985 -79.5906,-39.02263 -3.96981,6.82919 -6.23696,13.29749 -7.50471,21.10757 h -17.79476 c -0.15731,-6.21845 -0.26835,-12.50168 -0.33313,-18.84968 -0.58298,-61.37018 3.61818,-116.910558 9.89215,-165.334878 0.36089,-2.75759 2.97042,-4.63608 5.70024,-4.12713 z M 87.46546,100.3041 c 8.37455,-17.045208 18.35923,-31.527168 28.64928,-43.732728 7.62501,-1.1382 23.2174,-2.35968 40.71604,4.52504 11.16915,4.39548 19.15505,10.5399 24.12426,15.08344 -0.70328,-2.59102 -3.52564,-14.18584 3.01669,-25.6326 3.84026,-6.7274 9.19812,-10.39184 12.06675,-12.06675 25.46603,-4.71936 50.93207,-9.42947 76.3981,-14.14883 2.72982,-0.50895 5.33935,1.37879 5.69099,4.13638 6.27397,48.42433 10.46587,103.964708 9.89215,165.334888 -0.0555,6.348 -0.17582,12.63122 -0.33313,18.84967 h -17.79476 c -1.26775,-7.81933 -3.5349,-14.27837 -7.50471,-21.10756 -31.82329,6.41277 -58.38125,19.38638 -79.59061,39.02262 l -1.83222,0.18507 c 0.26836,0.2591 0.54597,0.4997 0.81432,0.74955 -0.26835,0.2591 -0.54596,0.49969 -0.81432,0.74954 l 1.83222,0.18508 c 21.21861,19.63623 47.77658,32.60984 79.59061,39.02262 3.96981,-6.82919 6.23696,-13.29749 7.50471,-21.10757 h 16.2494 c -1.85073,32.6006 -4.91369,63.10061 -8.67992,91.23169 h -78.41539 c -12.49243,-13.4548 -18.98849,-25.82692 -22.61591,-34.68266 -1.74894,-4.25668 -2.84087,-7.73605 -10.55841,-33.17432 -0.7403,8.28201 -2.3967,18.63684 -6.03338,30.15763 -3.96056,12.52019 -9.05932,22.63442 -13.5751,30.15763 C 125.65525,323.99247 105.04738,313.93376 84.43952,303.8843 78.41539,273.71742 64.84029,136.49511 87.46546,100.3041 Z m 194.52088,660.47895 h -54.28188 l -42.22439,-52.78279 c 0,0 -4.52503,-40.71604 -15.08344,-57.29858 C 159.83822,634.1099 75.3987,552.68707 60.31526,521.02109 43.72348,477.28837 43.72348,424.51483 43.72348,424.51483 l 99.52295,27.14094 c 10.65095,15.42583 16.51776,40.55873 25.6326,67.85698 8.35604,-18.91445 16.48074,-38.86531 30.15763,-57.29857 0,0 66.34864,0 82.94043,15.08344 0.009,-0.009 0.009,277.45205 0.009,283.48543 z m 39.2077,-336.27748 c -2.00805,0.009 -4.00683,0.0185 -6.03338,0.009 -99.74505,-0.50895 -180.4646,-21.12608 -233.72858,-39.2077 0,-11.5578 -4.52503,-23.12486 -4.52503,-34.68266 58.11289,15.77746 141.97868,31.11075 236.74526,31.66597 2.52625,0.0185 5.03399,0.009 7.54173,0.009 2.50773,0.009 5.01547,0.009 7.54172,-0.009 94.76658,-0.55522 178.64162,-15.88851 236.74526,-31.66597 0,11.5578 -4.52503,23.12486 -4.52503,34.68266 -53.26398,18.07237 -133.98353,38.69875 -233.72858,39.2077 -2.02655,0.009 -4.02533,-0.009 -6.03337,-0.009 z m 260.87877,96.51552 C 566.98937,552.68707 482.54985,634.11915 471.99144,650.70168 461.43303,667.29347 456.908,708.00026 456.908,708.00026 l -42.22438,52.78279 h -54.28189 c 0,-6.03338 0,-283.49468 0,-283.49468 16.59179,-15.08345 82.94043,-15.08345 82.94043,-15.08345 13.67689,18.43327 21.80159,38.39338 30.15763,57.29858 9.11484,-27.29826 14.98165,-52.43116 25.6326,-67.85699 l 99.52295,-27.14094 c 0,0.009 0,52.7828 -16.58253,96.51552 z"
   id="path2"
   inkscape:connector-curvature="0"
   style="stroke-width:0.92536455" />
</svg>