<?xml version="1.0" encoding="UTF-8" standalone="no"?>
<!-- Created with Inkscape (http://www.inkscape.org/) -->

<svg
   xmlns:dc="http://purl.org/dc/elements/1.1/"
   xmlns:cc="http://creativecommons.org/ns#"
   xmlns:rdf="http://www.w3.org/1999/02/22-rdf-syntax-ns#"
   xmlns:svg="http://www.w3.org/2000/svg"
   xmlns="http://www.w3.org/2000/svg"
   xmlns:sodipodi="http://sodipodi.sourceforge.net/DTD/sodipodi-0.dtd"
   xmlns:inkscape="http://www.inkscape.org/namespaces/inkscape"
   width="485.02435"
   height="799.99988"
   viewBox="0 0 128.32936 211.66663"
   version="1.1"
   id="svg8"
   inkscape:version="0.92.3 (2405546, 2018-03-11)"
   sodipodi:docname="Red Corsairs [Chaos, Heretic Astartes, Chaos Space Marines, Warband].svg">
  <defs
     id="defs2" />
  <sodipodi:namedview
     id="base"
     pagecolor="#ffffff"
     bordercolor="#666666"
     borderopacity="1.0"
     inkscape:pageopacity="0.0"
     inkscape:pageshadow="2"
     inkscape:zoom="0.49497475"
     inkscape:cx="-657.13971"
     inkscape:cy="358.71236"
     inkscape:document-units="px"
     inkscape:current-layer="layer1"
     showgrid="false"
     fit-margin-top="0"
     fit-margin-left="0"
     fit-margin-right="0"
     fit-margin-bottom="0"
     inkscape:pagecheckerboard="true"
     inkscape:window-width="1920"
     inkscape:window-height="1017"
     inkscape:window-x="-8"
     inkscape:window-y="-8"
     inkscape:window-maximized="1"
     units="px" />
  <metadata
     id="metadata5">
    <rdf:RDF>
      <cc:Work
         rdf:about="">
        <dc:format>image/svg+xml</dc:format>
        <dc:type
           rdf:resource="http://purl.org/dc/dcmitype/StillImage" />
        <dc:title></dc:title>
      </cc:Work>
    </rdf:RDF>
  </metadata>
  <g
     inkscape:label="Layer 1"
     inkscape:groupmode="layer"
     id="layer1"
     transform="translate(18.526367,-144.51556)">
    <path
       style="fill:#020202;stroke-width:0.54745942"
       d="m -8.9856999,355.83213 c -0.1976862,-0.19761 1.978457,-4.851 4.8358927,-10.34067 2.8574357,-5.48967 5.1953366,-10.25503 5.1953366,-10.58975 0,-0.93419 -1.6282501,-0.73429 -5.9261641,0.72751 -2.1604584,0.73484 -3.9281062,1.20278 -3.9281062,1.03988 0,-0.48546 8.95985477,-13.62111 14.4514914,-21.18669 C 14.9763,302.624 17.193982,296.74085 13.935712,293.48258 c -1.540344,-1.54033 -4.1612165,-1.75703 -6.3206699,-0.52259 -0.7527564,0.43032 -1.5333302,0.79114 -1.7346076,0.8018 -0.4978234,0.0265 -2.3853974,-5.81431 -3.7091583,-11.47724 -1.61900287,-6.92594 -2.66606632,-16.06267 -3.09963029,-27.04751 -0.32934451,-8.34438 -0.27238631,-9.73619 0.38289839,-9.35653 2.3073066,1.33678 19.5467307,13.14648 20.4510437,14.00976 0.970458,0.92643 1.105999,2.15378 1.489293,13.48597 0.23192,6.85673 0.569546,13.75754 0.750281,15.3351 l 0.32861,2.86831 3.208873,-2.17911 c 1.76488,-1.1985 6.365611,-4.42225 10.223849,-7.16383 3.858239,-2.7416 7.447159,-5.21606 7.975385,-5.49874 0.901053,-0.48223 0.960408,0.1794 0.960408,10.70687 v 11.22087 l -4.606013,0.15808 -4.606012,0.15807 2.972581,7.11698 c 7.744362,18.5416 9.147291,21.67043 9.52944,21.25256 0.315956,-0.34549 11.192589,-25.25339 12.389302,-28.37198 0.161994,-0.42214 -0.469397,-0.65257 -1.830835,-0.66825 -1.142947,-0.0128 -3.371458,-0.0523 -4.952246,-0.0871 l -2.874164,-0.0633 v -13.36713 -13.36715 l 5.064001,-3.41698 c 8.406119,-5.67212 19.008171,-13.17661 19.313615,-13.67084 0.157875,-0.25544 -1.214168,-0.6343 -3.048989,-0.84188 l -3.33603,-0.37745 2.526136,-2.25181 2.526136,-2.25182 -1.978863,-2.90747 c -1.088371,-1.59911 -2.181243,-2.8309 -2.428595,-2.7373 -0.247354,0.0935 -1.362857,1.27877 -2.478898,2.63374 -1.116039,1.35496 -4.800413,5.42009 -8.187497,9.03361 -5.215367,5.56405 -6.527626,6.66951 -8.570186,7.21951 -1.326517,0.35718 -3.642331,1.46555 -5.146247,2.46301 -2.964767,1.96639 -13.689854,12.34432 -16.857759,16.31211 -1.077784,1.3499 -2.108741,2.30524 -2.291016,2.12297 -0.678566,-0.67858 0.827689,-16.78692 1.846642,-19.74855 1.630315,-4.73862 4.6724,-10.98568 7.065992,-14.5104 2.401318,-3.53608 7.608582,-9.46177 8.314652,-9.46177 0.239317,0 -0.03177,1.50008 -0.602392,3.33352 -1.893547,6.08399 -1.014413,9.25804 2.564252,9.25804 1.455738,0 2.455748,-0.51477 4.296878,-2.21185 2.56403,-2.36346 7.184038,-8.94365 10.362657,-14.75939 l 1.944903,-3.55849 13.977966,-4.52603 13.977956,-4.52603 1.929983,2.13623 c 1.061493,1.17495 2.912379,3.3701 4.113093,4.87815 2.154482,2.70591 2.183049,2.80191 2.177849,7.31693 -0.0052,4.48437 -1.095642,15.76157 -2.212466,22.88027 -0.92416,5.89065 -8.206225,33.52826 -9.089078,34.49579 -0.122927,0.13468 -0.931432,-0.17317 -1.796655,-0.6843 -3.851816,-2.27535 -7.508575,-0.0447 -7.002603,4.27159 0.263071,2.2442 4.076543,9.4006 10.502221,19.70853 3.48348,5.58812 11.793692,19.84546 11.793692,20.23373 0,0.11814 -1.513104,-0.37835 -3.362448,-1.1031 -1.849361,-0.72475 -4.192745,-1.4735 -5.207556,-1.66388 -2.294154,-0.43037 -2.511684,-1.0682 3.818148,11.19557 3.90104,7.55808 4.748456,9.59971 4.143593,9.98274 -0.871351,0.55181 -107.963144,0.68884 -108.5131269,0.1388 z M 11.44726,247.42503 c -3.0701849,-2.32709 -6.486155,-5.66875 -9.5702392,-9.36208 -2.77862107,-3.3275 -2.85498869,-3.50879 -2.42159816,-5.74832 0.82259737,-4.25074 0.59225144,-8.91455 -0.50736364,-10.2725 -1.3143497,-1.62316 -3.5075163,-1.12684 -4.8171179,1.09015 -0.5229088,0.88521 -1.1314228,1.49781 -1.3522557,1.36133 -0.820809,-0.50729 -5.7042694,-9.47687 -8.4582934,-15.53554 l -2.846759,-6.26271 0.960152,-3.31785 c 0.528083,-1.82481 1.36962,-4.70875 1.870082,-6.40878 l 0.909931,-3.09096 4.494245,-1.94068 4.4942434,-1.94072 5.20086524,2.77553 c 2.86047536,1.52652 5.62661096,3.1466 6.14696646,3.60016 1.6257981,1.4171 8.0847449,19.77293 8.0865889,22.98145 2.67e-4,0.46416 -0.814803,0.63804 -2.56614,0.54746 -2.4445371,-0.12641 -2.5904585,-0.0515 -3.0699555,1.57584 -0.6779999,2.30104 0.4636403,3.96589 4.8812775,7.11824 4.181664,2.98396 4.246473,3.21462 3.94234,14.02938 -0.294605,10.47592 -1.20368,11.96381 -5.376969,8.8006 z M 33.412221,236.8194 c -3.261167,-2.71628 -8.475757,-9.85391 -11.089204,-15.17874 l -2.782097,-5.66846 1.429839,-3.18609 c 2.825563,-6.29619 3.046495,-11.89195 0.534504,-13.53787 -1.079335,-0.70723 -1.581829,-0.74054 -2.904681,-0.19264 -0.879766,0.3644 -2.025099,1.13275 -2.545188,1.70745 -0.52009,0.57469 -1.133949,1.0449 -1.364135,1.0449 -0.487513,0 -4.465302,-12.31523 -5.6584926,-17.51872 -0.4487934,-1.95715 -1.0728675,-5.63258 -1.3868352,-8.16761 l -0.5708486,-4.60914 3.3411134,-6.61377 c 1.837612,-3.6376 3.677832,-6.88308 4.089374,-7.21224 1.014388,-0.81127 11.392548,-2.59645 12.640739,-2.17439 0.549154,0.18562 3.430087,2.61367 6.402069,5.39549 l 5.403608,5.05786 1.301046,5.74029 c 1.262252,5.56909 2.914735,24.2948 2.206447,25.00309 -0.175668,0.17565 -1.068541,0.009 -1.984178,-0.37021 -6.004131,-2.48699 -8.031815,1.80648 -3.826956,8.1033 1.214281,1.81842 3.055734,4.05071 4.092107,4.96064 l 1.884318,1.65446 -0.545576,6.18779 c -0.768813,8.71969 -2.55137,15.39939 -5.180171,19.41146 -1.017912,1.55352 -1.774923,1.58892 -3.486802,0.16305 z m 22.485245,-10.78632 c -2.707545,-3.83289 -5.158865,-9.78921 -6.113882,-14.85573 -1.865823,-9.89857 -1.916505,-8.82566 0.573417,-12.13794 1.231973,-1.63886 2.728098,-3.92459 3.324715,-5.07941 1.236638,-2.39368 1.469184,-6.00002 0.464924,-7.21008 -0.909626,-1.09605 -4.11112,-1.03733 -6.055147,0.11116 -0.865228,0.51109 -1.743556,0.75885 -1.951837,0.55057 -0.54356,-0.54357 -0.562306,-22.95139 -0.02288,-27.33925 0.485546,-3.94953 0.392468,-3.81391 9.145276,-13.32548 l 2.053363,-2.23136 6.218137,0.23359 c 3.635092,0.13651 6.483349,0.49493 6.856569,0.86272 0.351136,0.34601 2.532284,3.58538 4.847004,7.19861 l 4.208576,6.56952 -0.321755,5.74834 c -0.316081,5.64708 -1.171554,11.57432 -2.844493,19.70853 -1.223307,5.94798 -1.154192,5.82716 -2.572964,4.49815 -1.892722,-1.77297 -3.993182,-2.39207 -5.612468,-1.65428 -2.775794,1.26474 -2.45818,5.46781 0.921244,12.19105 l 2.2303,4.43711 -2.558181,6.5509 c -2.899826,7.42581 -4.472452,10.35513 -7.558066,14.07847 -2.463644,2.97283 -3.71963,3.23567 -5.23185,1.09492 z m 26.429298,-8.38065 c -1.606281,-3.10619 -2.953545,-9.74853 -3.065339,-15.11279 -0.09656,-4.63337 0.01639,-5.35961 0.938564,-6.03125 4.347081,-3.16628 7.197697,-7.35581 6.500237,-9.55334 -0.534404,-1.68378 -2.787669,-2.29859 -4.780586,-1.30439 -0.918633,0.45828 -1.767226,0.73622 -1.885776,0.61768 -0.349903,-0.34991 2.558085,-17.45746 3.608916,-21.23114 0.951631,-3.41743 1.042013,-3.52588 6.262794,-7.51512 l 5.297236,-4.04767 4.653113,1.25046 c 2.559207,0.68777 4.868877,1.52377 5.132567,1.85782 0.26371,0.33407 1.51774,2.94775 2.78676,5.80823 2.75207,6.20341 2.73678,7.17551 -0.25412,16.15492 -1.95751,5.87689 -4.58568,12.89185 -5.01174,13.37696 -0.11728,0.13339 -0.94726,-0.56088 -1.84442,-1.54314 -4.370124,-4.78467 -7.056193,1.94857 -3.804007,9.53562 l 1.009749,2.35565 -1.918724,3.19016 c -3.729985,6.20161 -10.366341,13.86562 -12.006419,13.86562 -0.414152,0 -1.14261,-0.75343 -1.618805,-1.67428 z"
       id="path842"
       inkscape:connector-curvature="0" />
  </g>
</svg>
