<?xml version="1.0" encoding="UTF-8" standalone="no"?>
<!-- Created with Inkscape (http://www.inkscape.org/) -->

<svg
   xmlns:dc="http://purl.org/dc/elements/1.1/"
   xmlns:cc="http://creativecommons.org/ns#"
   xmlns:rdf="http://www.w3.org/1999/02/22-rdf-syntax-ns#"
   xmlns:svg="http://www.w3.org/2000/svg"
   xmlns="http://www.w3.org/2000/svg"
   xmlns:sodipodi="http://sodipodi.sourceforge.net/DTD/sodipodi-0.dtd"
   xmlns:inkscape="http://www.inkscape.org/namespaces/inkscape"
   width="1303.3834"
   height="799.99988"
   viewBox="0 0 344.85351 211.66665"
   version="1.1"
   id="svg8"
   inkscape:version="0.92.3 (2405546, 2018-03-11)"
   sodipodi:docname="Tyranids [Hive Mind, Hive Fleets].svg">
  <defs
     id="defs2" />
  <sodipodi:namedview
     id="base"
     pagecolor="#ffffff"
     bordercolor="#666666"
     borderopacity="1.0"
     inkscape:pageopacity="0.0"
     inkscape:pageshadow="2"
     inkscape:zoom="0.35"
     inkscape:cx="230.21485"
     inkscape:cy="-29.009118"
     inkscape:document-units="px"
     inkscape:current-layer="layer1"
     showgrid="false"
     fit-margin-top="0"
     fit-margin-left="0"
     fit-margin-right="0"
     fit-margin-bottom="0"
     inkscape:pagecheckerboard="true"
     inkscape:window-width="1920"
     inkscape:window-height="1017"
     inkscape:window-x="-8"
     inkscape:window-y="-8"
     inkscape:window-maximized="1"
     units="px" />
  <metadata
     id="metadata5">
    <rdf:RDF>
      <cc:Work
         rdf:about="">
        <dc:format>image/svg+xml</dc:format>
        <dc:type
           rdf:resource="http://purl.org/dc/dcmitype/StillImage" />
        <dc:title></dc:title>
      </cc:Work>
    </rdf:RDF>
  </metadata>
  <g
     inkscape:label="Layer 1"
     inkscape:groupmode="layer"
     id="layer1"
     transform="translate(-31.962165,4.4982617)">
    <path
       style="fill:#030303;stroke-width:0.67613238"
       d="m 116.3112,206.08195 -3.28921,-0.78026 1.42984,-1.28803 c 2.08515,-1.87834 1.91444,-5.33202 -0.35167,-7.11456 -2.40965,-1.89543 -4.70978,-1.76237 -6.70242,0.38772 -1.79892,1.94107 -2.06911,3.61697 -0.92714,5.75075 0.40201,0.75116 0.60921,1.48744 0.46046,1.63619 -0.60496,0.60495 -15.858057,-3.28827 -16.877686,-4.30789 -0.362968,-0.36296 0.08878,-1.06834 1.114753,-1.74058 2.224861,-1.45779 2.434138,-5.6569 0.37482,-7.52054 -3.195949,-2.8923 -8.386077,-0.39198 -8.386077,4.03993 0,1.30982 -0.253527,2.38148 -0.563379,2.38148 -0.87985,0 -7.242419,-3.32601 -11.223689,-5.86713 l -3.605875,-2.30153 1.746512,-1.37381 c 2.636091,-2.07353 2.446389,-5.60282 -0.393996,-7.33016 -1.922562,-1.16918 -2.330744,-1.20334 -4.008884,-0.33556 -1.027607,0.53141 -2.062569,1.57805 -2.29992,2.32588 -0.715023,2.25282 -2.05964,1.58114 -6.414439,-3.20422 C 41.75168,163.35048 33.349732,141.62329 32.273349,117.06641 l -0.311184,-7.09938 3.649763,7.43746 c 5.582253,11.37546 11.004481,19.02942 19.407198,27.395 12.087378,12.03395 27.267712,19.69433 39.360081,19.86207 5.714803,0.0792 7.512673,-0.7382 6.201983,-2.81998 -0.40327,-0.64055 -1.613477,-1.32335 -2.689326,-1.51733 l -1.95609,-0.35273 0.06133,-5.05634 c 0.04705,-3.87926 0.458214,-5.92205 1.766301,-8.77507 3.239835,-7.06628 11.198925,-14.19878 15.844305,-14.19878 2.89636,0 3.3171,0.85971 0.93645,1.91351 -2.38982,1.05783 -3.97307,4.31617 -4.85744,9.9966 -2.04668,13.14614 6.25841,20.54425 23.06284,20.54425 8.07334,0 12.44196,-1.09126 14.91744,-3.7263 1.26833,-1.35008 1.46396,-2.12458 1.14232,-4.52255 -0.86037,-6.41457 -7.41132,-7.19572 -8.941,-1.06617 -0.44136,1.76861 -0.53283,1.80326 -2.32058,0.87878 -2.52621,-1.30636 -8.32483,-7.75128 -9.84345,-10.94057 -2.76539,-5.80772 -3.77033,-9.62831 -4.16399,-15.83082 -0.37118,-5.84813 0.12688,-13.35124 0.83898,-12.63913 0.15542,0.15537 0.57684,1.83418 0.93649,3.73064 0.94932,5.00576 3.12997,9.18946 6.484,12.43995 3.66928,3.55598 6.39089,4.89808 12.1278,5.98057 8.20695,1.54854 17.03982,-0.74384 22.75252,-5.90493 5.48781,-4.95792 9.03942,-15.72137 7.45396,-22.58996 -1.02904,-4.45793 -1.75995,-5.30915 -4.55884,-5.30915 -1.59508,0 -2.48076,0.41268 -3.01069,1.40287 -0.80931,1.51222 -0.27912,6.44165 0.76205,7.08514 2.22021,1.37216 -1.40985,2.7631 -9.64608,3.69612 -10.50986,1.19056 -22.2651,-1.01672 -32.24533,-6.05473 -4.27459,-2.15781 -10.39529,-7.53915 -9.07538,-7.97912 0.40241,-0.13416 3.17242,0.37931 6.15559,1.14099 18.08028,4.61631 30.87106,-2.05459 34.0219,-17.743792 1.03724,-5.164816 0.32017,-9.142186 -2.19929,-12.198747 -2.53476,-3.075088 -5.11582,-4.467968 -10.3968,-5.610693 -10.49056,-2.26999 -20.31499,-0.139017 -25.24483,5.47579 -2.60519,2.967145 -3.15369,4.825655 -3.14934,10.671221 0.002,2.510152 -0.21568,4.563899 -0.48347,4.563899 -0.26777,0 -1.7906,-0.429803 -3.38405,-0.955154 -1.59346,-0.525326 -6.52057,-2.083544 -10.94914,-3.462701 -8.172081,-2.545009 -8.615753,-3.019174 -3.780371,-4.040285 2.869138,-0.605875 6.085191,-2.77081 6.085191,-4.096353 0,-0.653866 -0.7606,-0.968162 -2.34294,-0.968162 -1.656499,0 -3.043151,-0.614792 -4.732922,-2.098442 -2.792323,-2.451683 -3.000026,-3.310599 -0.800554,-3.310599 2.384388,0 5.993796,-1.365613 7.707386,-2.916062 2.99497,-2.709836 1.40675,-11.856265 -2.54774,-14.672101 -1.492465,-1.06274 -2.924934,-1.332801 -6.853459,-1.292118 -8.457982,0.08765 -12.568448,2.748628 -11.025006,7.137376 0.576261,1.638613 1.18384,1.966862 4.876422,2.634655 2.319977,0.419581 4.399997,0.944703 4.622256,1.166951 0.702131,0.702138 -3.906571,2.696727 -9.863547,4.268795 -9.710551,2.562693 -10.599456,3.110021 -9.856752,6.069168 0.444103,1.769452 3.502839,3.628703 8.354243,5.078109 1.590798,0.475265 2.788716,1.175052 2.662037,1.555075 -0.719705,2.159109 -13.762945,3.089424 -21.806669,1.555381 -6.816666,-1.300039 -16.540138,-4.517262 -16.540138,-5.472647 0,-0.726466 4.5719,-13.515908 6.057377,-16.944902 0.3222,-0.743741 2.456922,-6.372553 4.743829,-12.508444 5.227681,-14.026157 5.532501,-14.732461 5.909026,-13.691699 0.561156,1.551114 2.779196,0.883985 3.788646,-1.139505 1.272996,-2.551781 9.627336,-13.583449 13.602107,-17.961235 2.726079,-3.002462 3.14979,-3.248297 3.787604,-2.197415 0.99719,1.642983 1.867978,1.509485 7.169075,-1.0990013 C 97.92173,6.0588272 102.64888,4.1363285 121.32667,-2.7788505 l 4.43079,-1.6404269 -0.27224,1.8548556 -0.27224,1.85485567 12.4067,-0.10451834 c 14.76147,-0.12445094 22.88674,0.57909296 22.88674,1.98152977 0,0.5260672 -0.40924,0.956509 -0.9094,0.956509 -0.50018,0 -1.43226,0.5777386 -2.0713,1.2838635 -1.10495,1.220948 -1.08614,1.3369404 0.38372,2.3664844 0.85008,0.5954223 1.89891,1.0825698 2.33074,1.0825698 1.12538,0 13.28173,5.096355 18.85987,7.906698 7.89755,3.978852 16.56526,10.802622 16.56526,13.04118 0,0.308061 -1.86837,0.390705 -4.15193,0.183738 -6.96092,-0.631173 -9.92326,1.784248 -10.54082,8.594807 -0.30231,3.334084 -0.14106,4.052577 1.27957,5.704274 2.30659,2.681572 6.89295,3.174674 9.60733,1.032968 2.13594,-1.685275 3.80585,-5.058969 3.80585,-7.688845 0,-2.51304 3.33611,-4.050328 8.78971,-4.050328 5.4536,0 8.7897,1.537288 8.7897,4.050328 0,6.787176 6.75398,11.166495 12.23141,7.930898 4.9521,-2.925287 2.61027,-14.033772 -3.26964,-15.509526 -0.9045,-0.226924 -3.29092,-0.242768 -5.30317,-0.03526 -2.01222,0.207759 -3.6586,0.105796 -3.6586,-0.226158 0,-2.15157 11.02521,-10.723761 17.57945,-13.668189 1.30155,-0.584715 4.34416,-1.958121 6.76134,-3.052012 2.41716,-1.093916 6.37253,-2.667722 8.78971,-3.4973524 5.75618,-1.9756778 6.4574,-2.5659381 4.98325,-4.1948399 -0.62483,-0.6904344 -1.54528,-1.255319 -2.04544,-1.255319 -0.50018,0 -0.90941,-0.4290874 -0.90941,-0.9534935 0,-1.35881511 9.11947,-2.11824693 23.57154,-1.96295158 l 11.73923,0.12623976 -0.38322,-1.91600778 -0.38319,-1.9159823 4.53308,1.6799599 c 19.05607,7.0622202 23.89484,9.0259896 31.5002,12.7841779 5.31855,2.6281379 6.15579,2.7588759 7.1524,1.1168899 0.63794,-1.051087 1.06258,-0.80566 3.80224,2.197415 3.97063,4.352435 11.93572,14.911624 13.38816,17.748493 1.13787,2.222407 3.39613,2.988151 3.98795,1.352247 0.39546,-1.093098 0.84985,-0.023 7.11182,16.734281 2.22331,5.949956 5.34112,14.25758 6.92852,18.461364 2.47407,6.551895 2.75004,7.774249 1.93288,8.560845 -2.36861,2.279931 -18.03476,5.788553 -25.63214,5.740638 -4.95001,-0.03118 -11.62901,-1.388944 -11.97765,-2.434817 -0.12675,-0.380023 1.07125,-1.075619 2.66205,-1.545747 4.37602,-1.293217 7.96164,-3.523214 8.38643,-5.215747 0.70694,-2.81668 -0.2663,-3.401369 -9.88894,-5.940858 -5.95699,-1.572069 -10.56568,-3.566657 -9.86357,-4.268795 0.22233,-0.222325 2.30229,-0.74737 4.62227,-1.166951 3.69259,-0.667793 4.30015,-0.996042 4.87643,-2.634655 1.54342,-4.388748 -2.56704,-7.049775 -11.02502,-7.137376 -3.92851,-0.04063 -5.36098,0.22948 -6.85344,1.292117 -2.38583,1.698845 -4.06904,5.854765 -4.06904,10.046513 0,4.019919 1.58763,5.739258 6.42325,6.956041 1.85936,0.467879 3.62447,1.050064 3.92248,1.293753 0.298,0.243791 -0.54932,1.401083 -1.88291,2.571995 -1.72177,1.511734 -3.10391,2.128903 -4.76762,2.128903 -4.4682,0 -1.75985,3.402315 4.0537,5.092343 2.05993,0.598847 3.74533,1.197642 3.74533,1.330654 0,0.13314 -3.57503,1.355033 -7.94454,2.715612 -4.36951,1.360578 -9.24829,2.903565 -10.84175,3.428891 -1.59345,0.525352 -3.11876,0.955155 -3.38956,0.955155 -0.2708,0 -0.50335,-2.358026 -0.51679,-5.240024 -0.0266,-5.737801 -0.90415,-8.094217 -4.12324,-11.073578 -3.7564,-3.476627 -9.47802,-5.316022 -16.45658,-5.290519 -14.75908,0.05392 -22.40001,6.68782 -20.4973,17.79582 1.42731,8.33254 5.61208,14.447374 12.14256,17.742861 3.66762,1.8508 4.30615,1.95064 12.03014,1.88105 6.28119,-0.0567 9.05093,-0.38554 12.04467,-1.43047 2.79363,-0.97508 3.88778,-1.12279 3.88778,-0.52479 0,4.6952 -16.56043,12.55455 -29.29866,13.90473 -10.56867,1.12021 -25.20234,-1.41938 -21.47012,-3.72602 1.04118,-0.64349 1.57138,-5.57292 0.76207,-7.08514 -0.87356,-1.63225 -4.80516,-1.96369 -6.0141,-0.50701 -1.72913,2.0835 -2.40147,7.75619 -1.47867,12.47617 2.29509,11.7389 8.92881,18.37489 20.49991,20.50696 5.08,0.93602 12.09673,0.0652 16.42057,-2.03798 5.76597,-2.80459 10.47519,-9.36091 11.82105,-16.4575 0.83083,-4.38108 1.11991,-4.6318 1.71053,-1.48354 0.70331,3.74898 -0.18911,16.39752 -1.40466,19.90663 -2.51936,7.2735 -8.11612,14.97024 -12.55493,17.26561 -1.82864,0.94565 -1.88984,0.91802 -2.32143,-1.04695 -0.46834,-2.13235 -2.58317,-4.04828 -4.46853,-4.04828 -2.12929,0 -4.05261,2.27704 -4.45455,5.2738 -0.48048,3.58222 1.15979,5.6361 5.75024,7.20024 3.96378,1.35059 16.18987,1.40249 20.41609,0.0866 10.30886,-3.20965 14.71792,-9.97585 12.96932,-19.90284 -0.99494,-5.64834 -2.66703,-8.94199 -4.98356,-9.81637 -2.65832,-1.0034 -2.36679,-1.77318 0.67158,-1.77318 5.035,0 12.4871,6.46391 16.01262,13.88926 1.3582,2.86061 2.00522,5.4455 2.23206,8.91761 0.34088,5.21669 0.44205,5.04187 -3.40642,5.88515 -2.52232,0.55269 -2.52232,2.86321 0,3.83889 2.58742,1.0009 10.05594,0.17096 16.03932,-1.7821 18.83244,-6.14755 36.6901,-23.12337 47.33776,-45.00018 1.67153,-3.43431 3.22842,-6.42479 3.45982,-6.64551 0.59503,-0.56764 -0.13468,12.19042 -1.02124,17.85427 -1.51657,9.68875 -4.97411,21.28806 -8.81455,29.571 -4.00561,8.63914 -16.74387,25.53378 -19.25203,25.53378 -0.46852,0 -1.1946,-0.75225 -1.61352,-1.67166 -0.97636,-2.14288 -3.8742,-2.90502 -6.16987,-1.62269 -2.56152,1.43085 -2.7807,5.34582 -0.40397,7.21537 l 1.74367,1.37157 -1.8765,1.32613 c -3.23335,2.28499 -12.13944,6.90393 -13.31199,6.90393 -0.8984,0 -0.98175,-0.25933 -0.42052,-1.30798 0.81033,-1.51414 0.0608,-4.01967 -1.61963,-5.41431 -1.50532,-1.24931 -4.9705,-1.05822 -6.53822,0.36055 -1.79848,1.62757 -1.75665,6.05532 0.068,7.1948 2.05756,1.28496 1.62645,2.42165 -1.20791,3.18487 -7.64712,2.05916 -13.85765,3.45424 -14.1364,3.17552 -0.17403,-0.17403 0.0128,-0.93088 0.41462,-1.68203 1.18804,-2.21988 0.84688,-4.11624 -1.05814,-5.88176 -2.1866,-2.02648 -4.22052,-2.10592 -6.57142,-0.25672 -2.24515,1.76603 -2.4363,5.23397 -0.39057,7.08532 l 1.39096,1.2588 -1.55998,0.62632 c -0.858,0.3445 -5.94073,0.77765 -11.29496,0.96259 l -9.735,0.33622 1.11431,-1.59088 c 2.66138,-3.79966 0.20878,-8.72743 -4.34385,-8.72743 -4.16083,0 -7.165,4.06474 -5.41748,7.33003 1.23938,2.31576 0.92107,2.7713 -1.45934,2.0886 -1.20613,-0.3459 -3.13882,-0.62892 -4.29484,-0.62892 -2.26171,0 -15.42662,-3.14311 -17.29648,-4.12952 -1.00151,-0.52832 -0.90287,-0.82912 0.84517,-2.57716 2.65992,-2.65993 2.66084,-5.56201 0.003,-8.22023 -2.68441,-2.68443 -5.55805,-2.65957 -8.28927,0.0716 -1.66974,1.66973 -1.99748,2.48158 -1.77411,4.39488 0.15078,1.29074 0.10452,2.34678 -0.10273,2.34678 -0.75554,0 -7.18176,-3.63724 -11.15951,-6.31626 -2.24475,-1.51186 -6.46915,-5.11383 -9.38757,-8.00444 l -5.30621,-5.25559 2.40454,-2.80919 c 5.92054,-6.91681 2.59663,-16.86399 -5.31095,-15.89369 -6.69935,0.82207 -8.51316,9.79181 -3.22849,15.96576 l 2.42556,2.83372 -5.73044,5.56526 c -5.16292,5.01412 -15.58933,12.3347 -19.19994,13.48064 -1.24234,0.39431 -1.35503,0.20009 -1.10864,-1.91044 0.22361,-1.91626 -0.10324,-2.72693 -1.77379,-4.39743 -2.73125,-2.73123 -5.60487,-2.75609 -8.28928,-0.0716 -2.65822,2.65822 -2.6573,5.5603 0.003,8.22023 1.74284,1.74283 1.8437,2.048 0.84516,2.55694 -3.73492,1.90359 -23.78443,5.8354 -23.78443,4.66421 0,-0.33186 0.33013,-1.22021 0.73362,-1.97415 2.76979,-5.17539 -5.81367,-10.20222 -9.47427,-5.54852 -1.6437,2.08963 -1.76355,3.9314 -0.42307,6.50109 l 0.96993,1.85938 -7.90445,-0.0649 c -4.34746,-0.0358 -9.3846,-0.41602 -11.19367,-0.84516 z M 76.078362,39.587903 c 4.228807,-2.149704 7.05279,-8.444137 4.267895,-9.512805 -2.239039,-0.859197 -7.696833,5.022733 -8.796333,9.479916 -0.44428,1.801038 -0.366072,1.899832 1.136247,1.435658 0.887348,-0.274175 2.41384,-0.905425 3.392191,-1.402769 z m 261.546848,0.906524 c -0.0649,-1.970081 -3.20087,-6.997516 -5.51175,-8.836348 -2.95248,-2.349363 -4.60236,-2.055869 -4.60236,0.818718 0,2.584823 2.8683,5.989821 6.3953,7.591916 3.25885,1.480276 3.75548,1.537135 3.71881,0.425714 z"
       id="path959"
       inkscape:connector-curvature="0" />
  </g>
</svg>
