<?xml version="1.0" encoding="UTF-8" standalone="no"?>
<!-- Generator: Adobe Illustrator 22.0.1, SVG Export Plug-In . SVG Version: 6.00 Build 0)  -->

<svg
   xmlns:dc="http://purl.org/dc/elements/1.1/"
   xmlns:cc="http://creativecommons.org/ns#"
   xmlns:rdf="http://www.w3.org/1999/02/22-rdf-syntax-ns#"
   xmlns:svg="http://www.w3.org/2000/svg"
   xmlns="http://www.w3.org/2000/svg"
   xmlns:sodipodi="http://sodipodi.sourceforge.net/DTD/sodipodi-0.dtd"
   xmlns:inkscape="http://www.inkscape.org/namespaces/inkscape"
   version="1.1"
   id="Layer_3"
   x="0px"
   y="0px"
   viewBox="0 0 800 800"
   xml:space="preserve"
   sodipodi:docname="World Eaters [Chaos, Heretic Astartes, Chaos Space Marines, Legion, Khorne].svg"
   width="800"
   height="800"
   inkscape:version="0.92.3 (2405546, 2018-03-11)"><metadata
   id="metadata9"><rdf:RDF><cc:Work
       rdf:about=""><dc:format>image/svg+xml</dc:format><dc:type
         rdf:resource="http://purl.org/dc/dcmitype/StillImage" /><dc:title></dc:title></cc:Work></rdf:RDF></metadata><defs
   id="defs7" /><sodipodi:namedview
   pagecolor="#ffffff"
   bordercolor="#666666"
   borderopacity="1"
   objecttolerance="10"
   gridtolerance="10"
   guidetolerance="10"
   inkscape:pageopacity="0"
   inkscape:pageshadow="2"
   inkscape:window-width="1920"
   inkscape:window-height="1017"
   id="namedview5"
   showgrid="false"
   fit-margin-top="0"
   fit-margin-left="0"
   fit-margin-right="0"
   fit-margin-bottom="0"
   inkscape:pagecheckerboard="true"
   inkscape:zoom="0.2706422"
   inkscape:cx="-24.016949"
   inkscape:cy="436"
   inkscape:window-x="-8"
   inkscape:window-y="-8"
   inkscape:window-maximized="1"
   inkscape:current-layer="Layer_3" />
<path
   d="M 730.82569,441.65138 C 754.22018,431.74312 800,409.63303 800,409.63303 l -68.16514,-25.3211 c -1.65137,-25.22936 -6.14679,-49.72477 -13.11926,-73.11927 17.06422,-17.61468 52.5688,-58.44037 52.5688,-58.44037 l -74.22018,3.76147 C 686.42202,235.3211 673.66972,215.41284 658.99083,197.06422 667.70642,176.6055 687.61468,120 687.61468,120 l -71.2844,32.75229 C 598.80734,137.61468 579.72477,124.22018 559.3578,112.93578 560,89.44954 558.07339,32.47706 558.07339,32.47706 L 503.76147,88.44037 C 480.18349,80.55046 455.41284,75.13761 429.81651,72.66055 420.73394,50.82569 396.33028,0 396.33028,0 l -26.789,72.20183 C 343.94495,74.22018 319.08257,79.17431 295.41284,86.69725 277.06422,69.08257 238.7156,35.77982 238.7156,35.77982 l 3.66972,72.84403 c -24.95413,12.93578 -47.98165,28.89909 -68.80734,47.33945 -24.95413,-9.54128 -60.45871,-22.01835 -60.45871,-22.01835 l 26.23853,57.24771 c -15.59633,18.62385 -29.26606,38.89908 -40.550461,60.6422 -26.513761,-0.0917 -71.284403,1.37615 -71.284403,1.37615 l 50.183486,48.7156 C 68.807339,329.08257 63.302752,357.70642 61.559633,387.33945 37.06422,398.16514 0,416.05505 0,416.05505 l 62.568807,23.21101 c 2.844037,30.09174 9.724771,58.99082 20,86.23853 -18.165137,19.63302 -43.761468,48.99082 -43.761468,48.99082 l 65.045871,-3.30275 c 12.29358,21.92661 26.97248,42.29358 43.76147,60.82569 -9.44954,24.77064 -21.19266,58.34862 -21.19266,58.34862 l 55.41284,-25.41284 c 17.79817,14.86238 37.24771,27.88991 57.88991,38.89908 0.18349,26.60551 1.37615,63.3945 1.37615,63.3945 l 42.66055,-43.94496 c 28.99082,10.36697 59.81651,16.88074 91.9266,18.80734 C 386.6055,766.33028 402.75229,800 402.75229,800 l 21.65138,-58.44037 c 29.72477,-2.38532 58.44037,-8.71559 85.50459,-18.44036 19.63302,18.16513 50.55046,45.13761 50.55046,45.13761 l -3.3945,-66.23853 c 18.25688,-9.90826 35.50459,-21.46789 51.46789,-34.49541 22.01835,9.17431 74.86239,27.61467 74.86239,27.61467 l -31.92661,-69.44954 c 14.31193,-16.69724 27.06422,-34.77064 37.98165,-54.12844 26.33028,0.18349 72.66055,-1.37614 72.66055,-1.37614 l -49.72477,-48.25688 c 9.26606,-25.50459 15.50459,-52.38533 18.44037,-80.27523 z m -175.59633,229.90825 -35.9633,-102.75229 -37.70643,89.63303 c -1.19266,2.93578 -5.41284,2.75229 -6.42202,-0.27523 l -16.42201,-50.82569 -20.45872,54.31193 c -1.00917,2.66055 -4.95413,2.47706 -5.59633,-0.36698 l -12.47706,-53.94495 -19.08257,50.09174 c -0.91743,2.29358 -4.12844,2.29358 -5.04587,0 l -18.99083,-50.09174 -12.47706,53.94495 c -0.64221,2.84404 -4.58716,3.02753 -5.59633,0.36698 l -20.45872,-54.31193 -16.42202,50.82569 c -1.00917,3.02752 -5.22936,3.21101 -6.42202,0.27523 L 277.98165,568.80734 241.83486,672.01835 C 151.46789,618.44037 90.825688,520 90.825688,407.33945 c 0,-74.22018 26.330272,-142.29358 70.091742,-195.3211 l 3.30275,1.74312 c 0,0 50.45872,132.11009 53.21101,116.51376 2.38532,-13.48624 46.51376,-126.23853 58.53211,-156.69725 0.91743,-2.38532 4.31193,-2.11009 4.95413,0.27523 5.68807,22.20184 22.29358,83.30275 28.25688,72.01835 6.14679,-11.55963 23.30275,-59.90826 28.62386,-75.22936 0.55045,-1.55963 2.75229,-1.55963 3.39449,0 6.51376,17.33945 29.44954,77.61468 29.44954,75.22936 0,-1.65138 15.87156,-48.25688 28.7156,-85.77982 0.6422,-1.9266 3.39449,-1.9266 4.0367,0 12.84403,37.61468 28.71559,84.22019 28.71559,85.77982 0,2.29358 22.47707,-56.88073 29.26606,-74.77064 0.6422,-1.74312 3.02752,-1.65138 3.66972,0 5.50459,15.68807 22.38532,63.30275 28.53211,74.77064 5.9633,11.19266 22.20184,-48.44037 28.0734,-71.2844 0.73394,-2.66055 4.40367,-2.93578 5.41284,-0.36698 12.38532,31.37615 55.87156,142.56881 58.25688,155.96331 2.56881,14.6789 47.24771,-101.00918 52.66055,-115.13762 42.20184,52.66055 67.52294,119.44954 67.52294,192.20184 0,112.38532 -60.27523,210.6422 -150.27523,264.31192 z"
   id="path2"
   inkscape:connector-curvature="0"
   style="stroke-width:0.91743118" />
</svg>