<?xml version="1.0" encoding="UTF-8" standalone="no"?>
<!-- Generator: Adobe Illustrator 21.0.2, SVG Export Plug-In . SVG Version: 6.00 Build 0)  -->

<svg
   xmlns:dc="http://purl.org/dc/elements/1.1/"
   xmlns:cc="http://creativecommons.org/ns#"
   xmlns:rdf="http://www.w3.org/1999/02/22-rdf-syntax-ns#"
   xmlns:svg="http://www.w3.org/2000/svg"
   xmlns="http://www.w3.org/2000/svg"
   xmlns:sodipodi="http://sodipodi.sourceforge.net/DTD/sodipodi-0.dtd"
   xmlns:inkscape="http://www.inkscape.org/namespaces/inkscape"
   version="1.1"
   id="Layer_4"
   x="0px"
   y="0px"
   viewBox="0 0 713.59487 800.00004"
   xml:space="preserve"
   sodipodi:docname="Alpha Legion [Chaos, Heretic Astartes, Chaos Space Marines, Legion].svg"
   width="713.59485"
   height="800.00006"
   inkscape:version="0.92.3 (2405546, 2018-03-11)"><metadata
   id="metadata9"><rdf:RDF><cc:Work
       rdf:about=""><dc:format>image/svg+xml</dc:format><dc:type
         rdf:resource="http://purl.org/dc/dcmitype/StillImage" /><dc:title></dc:title></cc:Work></rdf:RDF></metadata><defs
   id="defs7" /><sodipodi:namedview
   pagecolor="#ffffff"
   bordercolor="#666666"
   borderopacity="1"
   objecttolerance="10"
   gridtolerance="10"
   guidetolerance="10"
   inkscape:pageopacity="0"
   inkscape:pageshadow="2"
   inkscape:window-width="1920"
   inkscape:window-height="1017"
   id="namedview5"
   showgrid="false"
   inkscape:pagecheckerboard="true"
   fit-margin-top="0"
   fit-margin-left="0"
   fit-margin-right="0"
   fit-margin-bottom="0"
   inkscape:zoom="0.23720976"
   inkscape:cx="-81.401932"
   inkscape:cy="497.78042"
   inkscape:window-x="-8"
   inkscape:window-y="-8"
   inkscape:window-maximized="1"
   inkscape:current-layer="Layer_4" />
<path
   d="m 554.16314,532.62039 c -62.85981,-6.83259 -117.35976,13.82595 -180.05881,60.76985 -74.99771,56.10761 -84.48295,105.94532 -160.76679,78.77573 -82.95567,-29.58109 -21.62314,-89.94902 -13.82595,-96.70123 23.39157,-20.25661 92.60168,-35.12754 92.60168,-35.12754 l 128.53305,-33.11796 c 0.24115,-0.0804 0.4823,-0.16077 0.72345,-0.24115 6.35029,-2.57227 93.64666,-37.7802 120.73586,-67.20052 1.84882,-2.00959 6.02876,-5.86799 7.07374,-7.95796 20.09585,-18.64895 31.59068,-34.64524 41.1563,-48.06927 12.53981,-17.60397 20.41738,-32.47489 25.72269,-43.96972 9.48524,-20.57815 15.11208,-32.47489 13.82594,-48.39081 -1.60766,-19.53316 -2.73303,-28.61648 -6.91297,-33.92179 0,-0.16077 1.84882,-9.24409 1.84882,-9.40486 l 19.8547,0.72345 c -2.8938,-10.44984 -7.55604,-20.49776 -14.79055,-29.25955 -10.69099,-12.86135 7.07374,-13.50441 14.38863,-8.92256 0.80384,0.4823 2.17035,3.93879 2.00959,-1.36652 -0.24115,-6.2699 0.80383,-28.93802 -64.54787,-53.53534 -38.18212,-14.38863 -4.26032,-22.90927 4.26032,-24.1954 9.16371,-1.36652 -25.40116,-18.24703 -47.42621,-17.52358 -2.49188,0.0804 -3.45648,-3.45649 -1.68805,-5.30531 l 16.55898,-9.32447 c -2.17035,-1.4469 -5.62684,-3.45649 -10.04792,-5.06416 -5.46607,-2.00958 -7.95796,-3.53687 -12.21828,-5.3053 -2.97418,-1.20575 -6.99335,-1.76844 -11.09291,-6.51106 13.18288,-7.95795 23.79349,-15.59437 31.67106,-21.70351 0,0 22.98965,-18.08627 27.73227,-33.84141 0.24115,-0.80384 0.9646,-3.13496 0.24115,-3.45649 -1.84881,-0.88422 -20.09585,25.96384 -76.84652,41.71898 -8.19911,2.25074 3.29571,-5.06415 4.50147,-6.59143 2.33111,-2.97419 22.2662,-10.93215 41.55821,-31.10838 C 552.31432,23.95425 564.37183,0.08038 564.37183,0 l -3.53686,2.33112 c -12.70058,10.1283 -21.46237,19.05086 -40.59362,29.17917 -11.65559,6.10914 -27.57151,14.71016 -37.86058,18.64895 -0.80383,0.32153 -2.4115,0.80383 -4.42109,0.64307 -2.17035,-0.24115 -3.69763,-1.20576 -4.3407,-1.68806 -2.08997,2.25074 -4.17994,3.69764 -5.78761,4.66224 -2.4115,1.52729 -4.74262,2.49189 -6.51105,3.05457 -1.20575,0.4823 -4.3407,1.76844 -6.10914,2.08997 -3.69764,0.72345 -6.91297,1.20575 -9.08332,0.80383 1.04498,-2.17035 2.17035,-5.38568 2.73303,-9.40485 0.64307,-4.90339 0,-9.00295 -0.64307,-11.57521 -2.49188,3.05457 -12.21827,16.31783 -14.95131,19.45278 -7.07374,7.87757 -4.823,5.86799 -11.73597,12.05751 -4.09956,3.3761 -10.20869,7.55604 -18.24703,10.77137 -6.02876,2.4115 -11.49483,3.69764 -15.91592,4.42109 -2.08997,3.45649 -4.74262,8.76179 -6.2699,15.75515 -1.28614,5.86798 -1.28614,11.01252 -0.9646,14.62977 -0.72345,1.52729 -2.00959,3.45649 -4.01917,5.30531 -3.93879,3.61725 -8.60103,4.50147 -11.09291,4.66224 -0.72345,0.0804 -1.36652,-0.40192 -1.4469,-1.12537 -0.64307,-5.22492 1.76843,-12.05751 0.64306,-17.04128 -3.13495,4.66223 -6.35028,9.80677 -9.48524,15.59438 -3.21533,5.94837 -4.98377,15.19246 -4.98377,15.19246 -0.0804,0.24115 -8.52064,8.52064 -7.07374,-9.24409 -1.60766,-7.39527 -1.68805,-13.82595 -1.28613,-18.56857 -3.8584,5.14454 -7.87757,11.09291 -11.73598,18.00588 -3.05457,5.38569 -5.54645,10.53023 -7.63642,15.27285 0.40192,0.40192 4.26032,4.50147 3.3761,10.12831 -0.64306,3.93878 -3.21533,6.2699 -4.01917,6.91297 0.24115,6.02876 0.72345,12.62019 1.68805,19.77432 0.96461,6.83258 2.17036,13.10249 3.53687,18.80971 1.20576,-2.65265 3.13496,-6.43067 6.10914,-10.28907 1.12537,0.72345 2.33112,1.52728 3.69764,2.25073 2.81342,1.52729 5.38569,2.49189 7.55604,3.13495 -0.56269,-1.12536 -1.9292,-4.50147 -0.9646,-8.60102 0.56268,-2.49189 1.76843,-4.3407 2.57227,-5.3053 0.88421,1.04498 1.9292,2.25073 3.3761,3.3761 3.29572,2.73303 6.7522,4.01917 9.00294,4.58185 -0.4823,-1.12537 -2.17035,-5.22492 -0.40192,-9.56562 0.56269,-1.36652 1.28614,-2.4115 1.9292,-3.13495 1.84882,1.20575 4.01917,2.4115 6.59144,3.53687 3.37611,1.4469 6.43067,2.33111 9.00294,2.8938 -0.64306,-0.56269 -3.53687,-3.13496 -3.69763,-7.07374 -0.0804,-1.28614 0.24115,-2.4115 0.4823,-3.21534 1.28613,0.80384 3.3761,1.84882 6.10914,2.4115 3.53686,0.72346 6.51105,0.32154 8.1991,-0.0804 -0.9646,-1.9292 -2.08997,-4.98377 -2.4115,-8.92256 -0.32153,-3.3761 0.16077,-6.35028 0.72345,-8.52064 0.24115,-0.0804 0.40192,-0.16076 0.64307,-0.24115 5.94837,-8.11872 12.62019,-10.36945 18.72933,-14.14747 1.12537,0.16076 2.33112,0.40191 3.53687,0.64306 -1.4469,1.20575 -2.8938,2.49189 -4.3407,4.01917 -4.09956,4.26032 -6.75221,8.44026 -8.52064,11.73598 0.0804,3.3761 -0.16077,7.31489 -0.80384,11.65559 -1.12537,7.15412 -3.21533,10.61061 -5.3053,15.0317 -0.40192,0.80383 -1.12537,1.4469 -1.9292,1.76843 -4.66224,1.60767 -10.28908,5.46607 -16.55898,6.59144 -4.98377,0.80383 -9.56563,1.28613 -13.66518,1.4469 -0.88422,0 -1.76844,0.32153 -2.49189,0.72345 -3.69763,2.17035 -9.48524,6.26991 -14.30824,13.34365 -2.08997,3.13495 -3.61725,6.18952 -4.66224,8.92255 -7.39527,-3.53687 -16.15706,-7.2345 -26.68729,-10.85176 -38.58403,-13.42402 -1.20575,-22.50735 4.82301,-23.55233 6.43067,-1.12537 -27.73228,-19.13125 -49.03388,-17.04128 -2.49188,0.24115 -3.53687,-3.3761 -1.84881,-5.22492 l 16.31783,-9.72639 c -2.25074,-1.4469 -5.70723,-3.29572 -10.2087,-4.82301 -5.54645,-1.84882 -8.11872,-1.52728 -12.29866,-3.21533 -2.97418,-1.20575 -7.07373,-3.37611 -11.25367,-8.03834 12.94173,-8.27949 23.31118,-16.15707 31.10837,-22.50735 0,0 22.50736,-18.72934 26.76768,-34.56487 0.24115,-0.80383 0.88421,-3.13495 0.16076,-3.45648 -1.84882,-0.80384 -19.45278,26.44614 -75.72116,43.64818 -8.11872,2.49189 3.13495,-5.14453 4.26032,-6.67182 2.25074,-3.05457 21.94467,-11.49482 40.75438,-32.15336 3.29572,-3.61725 14.71017,-27.81265 14.71017,-27.89304 l -3.45649,2.41151 C 270.73128,65.2713 262.29103,74.435 243.40093,85.04561 c -11.49483,6.43067 -27.16959,15.43362 -37.37828,19.61355 -0.72345,0.32154 -2.33112,0.88422 -4.42109,0.72345 -2.17035,-0.16076 -3.69764,-1.04498 -4.42109,-1.52728 -2.08996,2.25073 -4.09955,3.77802 -5.62683,4.823 -2.41151,1.60767 -4.66224,2.57227 -6.43068,3.21534 -1.20575,0.56268 -4.3407,1.84882 -6.02875,2.25073 -3.69764,0.80384 -6.83259,1.36652 -9.00294,0.9646 0.9646,-2.17035 2.08997,-5.38568 2.49188,-9.48524 0.48231,-4.90338 -0.24115,-9.00294 -0.9646,-11.49482 -2.4115,3.05457 -11.81636,16.63936 -14.46901,19.8547 -6.91297,8.11872 -4.66223,5.94837 -11.41444,12.37904 -4.01917,3.45649 -9.96754,7.79719 -17.9255,11.25367 -5.94837,2.57227 -11.41444,4.01917 -15.83553,4.82301 -2.00958,3.45648 -4.50147,8.84217 -5.7876,15.91591 -1.12537,5.94837 -0.9646,11.01253 -0.64307,14.62978 -0.72345,1.52728 -1.9292,3.53687 -3.8584,5.38569 -3.858405,3.69763 -8.520642,4.66223 -11.012528,4.98377 -0.72345,0.0804 -1.366517,-0.40192 -1.446901,-1.12537 -0.72345,-5.22492 1.446901,-12.13789 0.241151,-17.12166 -2.974186,4.74262 -6.028755,9.96754 -9.002941,15.91591 -3.054569,6.02875 -4.581854,15.35323 -4.581854,15.35323 0,0.16077 -8.199106,8.68141 -7.234505,-9.08333 -1.848819,-7.31488 -2.009585,-13.82594 -1.768435,-18.56856 -3.697636,5.22492 -7.55604,11.33406 -11.253676,18.32741 -2.893802,5.46608 -5.305304,10.61061 -7.234506,15.43362 0.482301,0.40191 4.421087,4.3407 3.617253,10.04792 -0.562684,3.93879 -3.054569,6.35029 -3.858403,7.07374 0.401917,6.02876 1.044984,12.62019 2.250735,19.69393 1.125368,6.83259 2.491886,13.02211 4.01917,18.64895 1.125368,-2.73303 2.974186,-6.51105 5.787605,-10.44984 1.125367,0.72345 2.411502,1.4469 3.778019,2.17035 2.813419,1.4469 5.466072,2.33112 7.636423,2.97419 -0.562684,-1.12537 -2.009585,-4.42109 -1.205751,-8.60103 0.482301,-2.57227 1.688052,-4.3407 2.411502,-5.38568 0.884218,1.04498 2.009585,2.17035 3.456486,3.29572 3.376103,2.65265 6.832589,3.77801 9.163708,4.3407 -0.482301,-1.04499 -2.250735,-5.14454 -0.643068,-9.48524 0.482301,-1.36652 1.205751,-2.4115 1.848819,-3.21534 1.848818,1.12537 4.099553,2.33112 6.671822,3.3761 3.376102,1.36652 6.511055,2.17036 9.083325,2.65266 -0.72345,-0.56269 -3.617254,-3.05457 -3.858405,-6.99336 -0.08038,-1.28613 0.160767,-2.4115 0.401917,-3.21533 1.366518,0.80383 3.456488,1.76843 6.189518,2.25073 3.53687,0.64307 6.51106,0.16077 8.19911,-0.24115 -0.9646,-1.9292 -2.25073,-4.90339 -2.65265,-8.84217 -0.40192,-3.37611 0,-6.35029 0.4823,-8.52064 0.24115,-0.0804 0.40192,-0.16077 0.64307,-0.32154 5.7876,-8.27949 12.37904,-10.69099 18.32741,-14.62978 1.12537,0.0804 2.33112,0.32154 3.53687,0.56269 -1.36652,1.20575 -2.81342,2.57227 -4.17994,4.17993 -3.93878,4.34071 -6.51105,8.68141 -8.1991,11.89675 0.16076,3.3761 0.0804,7.31489 -0.56269,11.65559 -0.9646,7.15412 -2.97418,10.69099 -4.90338,15.19246 -0.40192,0.80384 -1.04499,1.4469 -1.92921,1.76844 -4.66223,1.76843 -10.1283,5.7876 -16.317825,6.99335 -4.903388,0.9646 -9.485241,1.52729 -13.584795,1.76844 -0.884217,0.0804 -1.768434,0.32153 -2.491885,0.80383 -3.617253,2.25074 -9.324474,6.51106 -13.906328,13.74556 -4.98377,7.79719 -6.269905,15.27285 -6.671822,19.13125 1.205751,-2.33112 3.376103,-5.7876 7.073739,-8.84217 1.929202,-1.60767 3.77802,-2.65265 5.385688,-3.45649 -0.562684,2.08997 -1.044984,4.3407 -1.446901,6.83259 -0.723451,4.58185 -0.884218,8.68141 -0.803834,12.21828 1.848818,-6.59144 6.028755,-18.08627 14.629778,-24.51694 1.848818,-1.36652 5.546455,-3.77802 9.485241,-6.02875 2.170352,-1.20576 6.109134,-3.37611 11.012524,-5.38569 3.8584,-1.52729 9.40486,-3.37611 16.39821,-4.50147 -0.16076,2.25073 0,5.3053 1.44691,8.52064 0.32153,0.80383 0.72345,1.52728 1.12536,2.17035 -2.17035,0.40192 -4.74262,0.72345 -7.7168,0.72345 -4.01917,0 -7.39528,-0.56268 -10.04793,-1.20575 1.04499,2.4115 2.73304,5.62684 5.62684,8.84217 1.84882,2.08997 3.69764,3.61726 5.3053,4.74262 4.50147,-0.24115 9.48525,0.32154 14.95132,0.0804 4.50147,-0.24115 8.27949,0.4823 10.85176,1.20575 4.17993,-7.15413 12.0575,-18.48818 25.56192,-28.13419 20.89968,-14.87093 42.44243,-16.4786 51.2846,-16.71975 -2.33112,-2.33112 -3.29572,-5.46607 -2.4115,-8.19911 0.56269,-1.76843 1.68805,-2.8938 2.4115,-3.3761 10.12831,2.57227 22.90927,8.19911 36.97637,15.67476 12.78096,11.97713 24.11502,22.98966 27.97342,30.38493 20.73892,40.35246 22.58773,91.39592 -14.62978,134.40104 -1.36652,1.04498 -2.65265,2.00958 -4.01917,3.05457 -2.8938,-0.72345 -5.86799,-1.36652 -9.00294,-2.08997 -39.95055,-8.52064 6.99336,-18.8901 0.56268,-24.59732 -10.85176,-9.56562 -36.49406,-11.49482 -49.51617,-10.28907 -2.49188,0.24115 -3.93879,-2.89381 -2.49188,-4.98377 l 15.03169,-11.73598 c -2.4115,-1.12537 -6.02875,-2.57227 -10.69099,-3.53687 -5.70722,-1.12537 -8.19911,-0.56268 -12.62019,-1.68805 -3.13496,-0.80384 -7.39528,-2.49189 -12.1379,-6.59144 11.81636,-9.80677 21.14084,-18.97048 28.05381,-26.20499 0,0 20.09585,-21.3016 22.34658,-37.61943 0.0804,-0.80383 0.4823,-3.21533 -0.32153,-3.45648 -1.9292,-0.56269 -15.9963,28.69687 -69.69241,52.7315 -7.79719,3.45649 2.49189,-5.54645 3.45649,-7.15412 1.84882,-3.29572 20.337,-14.14748 36.41368,-36.97636 2.81342,-4.01917 11.17329,-29.42032 11.17329,-29.50071 l -3.13495,2.81342 c -11.09291,11.89674 -18.32742,22.10544 -35.77061,34.8864 -10.61061,7.79719 -25.07962,18.64894 -34.64525,24.11502 -0.72345,0.40191 -2.25073,1.20575 -4.26032,1.28613 -2.17035,0.0804 -3.8584,-0.64307 -4.58185,-0.9646 -1.76844,2.49188 -3.61725,4.26032 -4.98377,5.46607 -2.17035,1.84882 -4.34071,3.13495 -5.94837,4.01917 -1.12537,0.64307 -4.01917,2.33112 -5.70722,2.97419 -3.53687,1.20575 -6.67183,2.17035 -8.84218,2.08996 0.64307,-2.33111 1.36652,-5.62683 1.28614,-9.646 -0.0804,-4.98377 -1.36652,-8.84218 -2.33112,-11.33406 -2.00959,3.3761 -9.646011,18.00588 -11.896746,21.46236 -5.787604,8.84218 -3.858403,6.51106 -9.806774,13.66518 -3.617253,3.93879 -9.002941,8.92256 -16.398213,13.42403 -5.626838,3.29572 -10.851759,5.38569 -15.112079,6.7522 -1.527285,3.69764 -3.376103,9.40486 -3.858403,16.4786 -0.401917,6.02876 0.401917,11.01253 1.205751,14.62978 -0.482301,1.60767 -1.446901,3.69764 -3.134953,5.7876 -3.376102,4.17994 -7.877573,5.70723 -10.289075,6.26991 -0.643067,0.16077 -1.366517,-0.24115 -1.527284,-0.88422 -1.366518,-5.14454 0,-12.21827 -1.848818,-16.96089 -2.411502,5.06415 -4.823004,10.69099 -6.993356,16.88051 -2.331118,6.35029 -2.652652,15.83553 -2.652652,15.83553 -0.08038,0.24115 -7.154122,9.72639 -8.440257,-8.11873 -2.733035,-7.07373 -3.697636,-13.42402 -4.01917,-18.16664 -3.054569,5.62683 -6.1091378,12.13789 -8.9225568,19.53316 C 3.1349525,419.68172 1.3665178,425.0674 0,430.13156 c 0.4823004,0.40192 4.9033873,3.77802 4.8230039,9.48524 -0.080383,4.01917 -2.2507352,6.67182 -2.8938024,7.47566 1.1253676,5.94837 2.5722688,12.37904 4.6622371,19.29201 1.9292015,6.59144 4.0995534,12.62019 6.2699054,18.08627 0.803834,-2.81342 2.089968,-6.75221 4.50147,-11.09291 1.205751,0.56268 2.572269,1.20575 4.01917,1.68805 2.974185,1.04498 5.707221,1.68805 7.957956,2.00958 -0.72345,-1.04498 -2.572269,-4.17993 -2.250735,-8.35987 0.160767,-2.57227 1.125368,-4.50147 1.768435,-5.62684 1.044984,0.9646 2.250735,1.9292 3.778019,2.81342 3.697637,2.17035 7.234506,2.8938 9.646008,3.21534 -0.643067,-1.04499 -2.893802,-4.82301 -1.848818,-9.32448 0.321534,-1.4469 0.884217,-2.57227 1.446901,-3.45648 2.009585,0.88421 4.340704,1.76843 7.073739,2.49188 3.53687,0.9646 6.752206,1.36652 9.404858,1.52729 -0.723451,-0.4823 -3.938787,-2.57227 -4.742621,-6.43068 -0.24115,-1.28613 -0.160767,-2.4115 0,-3.21533 1.446901,0.64307 3.617253,1.36652 6.430672,1.52728 3.617253,0.24115 6.430672,-0.64306 8.03834,-1.28613 -1.205751,-1.76844 -2.813419,-4.66224 -3.77802,-8.44026 -0.803834,-3.29572 -0.803834,-6.2699 -0.562684,-8.52064 0.160767,-0.16076 0.401917,-0.24115 0.562684,-0.40192 4.662237,-8.92255 10.932142,-12.13789 16.398213,-16.71974 1.125368,0 2.331119,0 3.53687,0.0804 -1.205751,1.36652 -2.491886,2.8938 -3.697637,4.66224 -3.376102,4.823 -5.385687,9.40486 -6.671822,12.86134 0.562684,3.3761 0.964601,7.23451 0.884218,11.65559 -0.08038,7.23451 -1.607668,11.01253 -2.974186,15.67477 -0.24115,0.88421 -0.884217,1.60767 -1.688051,2.00958 -4.421087,2.33112 -9.324474,6.99336 -15.353229,9.00294 -4.742621,1.60767 -9.244091,2.65266 -13.263261,3.45649 -0.884217,0.16077 -1.688051,0.56268 -2.411502,1.12537 -3.295719,2.65265 -8.440257,7.63642 -12.137893,15.35323 -4.01917,8.35987 -4.340703,15.91591 -4.26032,19.85469 0.884217,-2.49188 2.652652,-6.10913 5.948372,-9.646 1.688051,-1.76844 3.376102,-3.13496 4.903387,-4.09956 -0.321534,2.08997 -0.562684,4.42109 -0.643067,6.99336 -0.160767,4.58185 0.160766,8.68141 0.72345,12.21828 1.044984,-6.75221 3.77802,-18.64895 11.494826,-26.12461 1.607668,-1.60767 5.064154,-4.42109 8.681407,-7.15412 2.009585,-1.52729 5.626838,-4.09955 10.208691,-6.67182 3.617253,-2.00959 8.922558,-4.50147 15.674763,-6.43067 0.160767,2.25073 0.723451,5.3053 2.491885,8.27949 0.482301,0.72345 0.884218,1.4469 1.366518,2.00958 -2.089968,0.64307 -4.662237,1.28613 -7.556039,1.60767 -3.938787,0.4823 -7.395273,0.32153 -10.128308,0.0804 1.286134,2.25074 3.376102,5.22492 6.671822,8.11872 2.089968,1.84882 4.179936,3.13496 5.867988,4.01917 4.421087,-0.80383 9.485241,-0.80383 14.870928,-1.76843 4.50147,-0.80383 8.279489,-0.4823 10.932139,-0.16077 3.21534,-7.63642 9.64601,-19.8547 21.86429,-31.10837 18.8901,-17.36282 40.11131,-21.62314 48.79272,-22.90927 -2.57227,-2.00959 -3.93879,-5.06415 -3.3761,-7.87757 0.32153,-1.76844 1.36651,-3.05457 2.00958,-3.69764 10.36946,1.36652 32.39451,5.94837 16.07668,27.33036 -1.36652,2.08996 -2.57227,4.09955 -3.77802,6.02875 -11.97712,8.19911 -24.03463,16.55898 -36.01176,25.40115 -18.56857,13.82595 -36.57445,27.65189 -54.017643,41.39745 -11.173293,10.44985 -28.455723,29.33994 -40.352466,57.71528 -5.385688,12.78096 -26.285371,62.4579 -4.662237,114.30519 15.674762,37.69982 45.979303,57.71528 54.499946,63.34212 8.52064,5.62684 14.79054,8.44026 63.66365,30.70646 18.16665,4.17994 61.9756,8.27949 106.34723,2.97419 13.98671,-1.68806 33.9218,-1.92921 54.01765,-16.39822 12.53981,-6.2699 18.24703,-13.34364 25.32077,-18.64895 28.29495,-33.27872 56.67029,-66.63783 85.04563,-99.91656 9.96754,-8.03834 21.46237,-16.4786 34.56486,-24.75809 9.88716,-6.18952 19.3724,-11.49482 28.29496,-15.99629 28.0538,-13.26326 51.12384,-14.38863 64.14595,-13.90633 16.15706,0.56268 30.38492,4.26032 42.92473,7.55604 2.00959,0.56268 24.51694,6.43067 38.66442,12.94173 34.56486,16.07668 53.85687,52.32959 62.53828,72.18429 -0.64307,-0.32154 38.7448,-146.6997 -156.58686,-167.92092 z M 398.4605,114.54634 c 0.64307,-2.97419 1.9292,-7.63642 4.98377,-12.45943 2.57227,-4.01917 5.46607,-6.83259 7.63643,-8.6814 2.57226,-0.32154 5.70722,-0.4823 9.24409,-0.16077 2.49188,0.24115 4.66223,0.64307 6.59143,1.04498 -1.20575,2.81342 -3.3761,6.83259 -7.07373,10.53023 -8.11873,8.11872 -18.00589,9.48524 -21.38199,9.72639 z m 9.48524,62.29713 c 1.12537,-4.09955 1.52729,-7.87757 1.60767,-10.93214 0.56268,-1.12537 3.53687,-6.51105 10.12831,-8.68141 6.99335,-2.33111 12.78096,0.4823 13.90633,1.12537 0.9646,1.04499 1.84881,2.08997 2.65265,3.13495 0.4823,0.64307 0.9646,1.36652 1.4469,2.08997 0.40192,1.76844 0.88422,5.38569 -0.56268,9.40486 -2.81342,7.87757 -10.691,10.44984 -11.73598,10.77138 -1.52728,0.72345 -4.01917,1.60766 -7.31489,1.60766 -6.10914,0 -10.28907,-3.3761 -11.49482,-4.50147 0.56268,-1.28613 0.9646,-2.57227 1.36651,-4.01917 z m -9.88716,18.32742 c 2.65266,-3.13495 6.10914,-7.87758 8.52065,-14.30825 -0.0804,1.84882 0.16076,5.14454 2.00958,8.44026 0.56268,0.9646 1.12537,1.76843 1.76843,2.49188 -0.56268,1.04499 -1.84881,2.89381 -4.09955,4.09956 -3.53687,1.84882 -7.2345,1.04498 -9.40486,0.16077 0.4823,-0.24116 0.88422,-0.48231 1.20575,-0.88422 z m -40.51323,16.15706 c 1.84882,-1.36652 5.62684,-3.61725 9.64601,-5.7876 2.25074,-1.20576 6.18952,-3.21534 11.09291,-5.06416 3.93879,-1.4469 9.48524,-3.13495 16.4786,-4.01917 -0.24115,2.25074 -0.0804,5.30531 1.20575,8.52064 0.32153,0.80384 0.72345,1.52729 1.04498,2.17035 -2.17035,0.32154 -4.74262,0.56269 -7.71681,0.4823 -4.01917,-0.0804 -7.39527,-0.72345 -10.04792,-1.4469 0.9646,2.41151 2.57227,5.70722 5.38569,9.00294 1.76843,2.08997 3.61725,3.69764 5.22492,4.90339 4.50147,-0.16077 9.48524,0.56268 14.95131,0.4823 4.58185,-0.0804 8.27949,0.72345 10.77138,1.52729 4.3407,-7.07374 12.53981,-18.16665 26.28537,-27.49113 21.3016,-14.38862 42.92473,-15.43361 51.68652,-15.35323 -2.25073,-2.4115 -3.13495,-5.54645 -2.17035,-8.27949 0.64307,-1.76843 1.76843,-2.81341 2.49188,-3.3761 7.47566,2.17035 16.39822,5.94837 26.12461,11.01253 9.96754,10.44984 35.93138,40.75438 35.60984,82.71451 -0.40191,55.7057 -46.9439,93.80743 -61.33253,105.62379 -2.65265,1.9292 -57.87604,46.86352 -145.2528,64.8694 -4.01917,0.80383 6.51106,-28.13419 12.1379,-64.30672 5.06415,-8.03834 12.53981,9.08333 12.53981,9.08333 0,0 18.08626,-67.92397 -15.67477,-106.42762 -11.09291,-12.6202 6.67182,-13.66518 14.14748,-9.32448 0.80383,0.4823 2.25074,3.85841 1.9292,-1.36651 -0.32153,-4.66224 -0.16076,-18.48819 -27.49112,-34.72563 2.57227,-4.90339 6.10914,-9.96754 10.93214,-13.42403 z m -17.84511,8.52064 c 1.9292,-1.52728 3.8584,-2.57227 5.46607,-3.3761 -0.56268,1.9292 -1.12537,4.09955 -1.60767,6.43067 -1.4469,-0.80383 -2.97418,-1.60767 -4.58185,-2.49189 0.16076,-0.16076 0.40191,-0.40191 0.72345,-0.56268 z M 123.87082,171.29702 c 0.56268,-3.05457 1.76843,-7.63642 4.66223,-12.62019 2.49189,-4.09956 5.22492,-6.99336 7.39528,-8.84218 2.57226,-0.40192 5.70722,-0.56268 9.24409,-0.40192 2.49188,0.16077 4.66223,0.4823 6.59143,0.88422 -1.12536,2.8938 -3.13495,6.91297 -6.83258,10.69099 -7.87758,8.27949 -17.68435,9.88716 -21.06045,10.28908 z m 9.88715,81.02646 c -3.45648,1.9292 -7.15412,1.20575 -9.32447,0.40192 0.4823,-0.24115 0.88422,-0.4823 1.20575,-0.88422 2.57227,-3.13495 5.94837,-8.03834 8.19911,-14.54939 0,1.9292 0.24115,5.14454 2.17035,8.35987 0.56268,0.9646 1.20575,1.76844 1.76843,2.4115 -0.56268,1.12537 -1.76843,2.97419 -4.01917,4.26032 z m 30.38493,-23.7131 c -2.65265,7.87757 -10.44984,10.69099 -11.41444,11.09291 -1.52729,0.72345 -4.01917,1.76843 -7.23451,1.76843 -6.10914,0.16077 -10.36946,-3.13495 -11.65559,-4.17993 0.40191,-1.28614 0.80383,-2.57227 1.20575,-3.93879 1.04498,-4.17994 1.36652,-7.87757 1.36652,-11.01252 0.56268,-1.12537 3.3761,-6.59144 9.88715,-9.00294 6.91298,-2.49189 12.78096,0.16076 13.90633,0.72345 0.9646,0.9646 1.84882,2.00958 2.73304,3.05457 0.56268,0.64306 1.04498,1.36651 1.52728,2.00958 0.40192,1.76843 1.04499,5.38569 -0.32153,9.48524 z m -93.566277,161.2491 c 0.160767,-3.05457 0.803834,-7.79719 3.134953,-13.1025 1.929201,-4.3407 4.340703,-7.55604 6.189521,-9.646 2.491886,-0.64307 5.546455,-1.28614 9.083324,-1.52729 2.491885,-0.16077 4.742621,-0.0804 6.671822,0.0804 -0.803834,2.97419 -2.331118,7.23451 -5.466071,11.49483 -6.752205,9.08332 -16.31783,11.89674 -19.613549,12.70058 z m 19.854699,79.25803 c -3.215336,2.4115 -6.993355,2.08996 -9.24409,1.60766 0.401917,-0.24115 0.803834,-0.64306 1.044984,-1.04498 2.170351,-3.45649 4.903387,-8.68141 6.350288,-15.43361 0.24115,1.84882 0.884218,5.06415 3.215336,8.03834 0.723451,0.88422 1.446901,1.60767 2.089968,2.17035 -0.401917,1.04498 -1.366517,3.05457 -3.456486,4.66224 z m 27.169588,-27.33036 c -1.60767,8.19911 -9.00294,11.89674 -9.96754,12.37904 -1.36652,0.88422 -3.77802,2.25074 -6.99336,2.65266 -6.028751,0.88421 -10.690988,-1.84882 -12.057506,-2.73304 0.24115,-1.28613 0.482301,-2.65265 0.643067,-4.09955 0.482301,-4.26032 0.321534,-8.03834 0,-11.09291 0.401917,-1.20575 2.491886,-6.91297 8.761791,-10.12831 6.511058,-3.3761 12.700578,-1.36652 13.906328,-0.9646 1.04498,0.88422 2.08997,1.76844 3.13495,2.73304 0.64307,0.56268 1.20575,1.20575 1.76844,1.84881 0.56268,1.68806 1.68805,5.22492 0.80383,9.40486 z"
   id="path2"
   inkscape:connector-curvature="0"
   style="stroke-width:0.80383396" />
</svg>