<?xml version="1.0" encoding="UTF-8" standalone="no"?>
<!-- Generator: Adobe Illustrator 21.0.2, SVG Export Plug-In . SVG Version: 6.00 Build 0)  -->

<svg
   xmlns:dc="http://purl.org/dc/elements/1.1/"
   xmlns:cc="http://creativecommons.org/ns#"
   xmlns:rdf="http://www.w3.org/1999/02/22-rdf-syntax-ns#"
   xmlns:svg="http://www.w3.org/2000/svg"
   xmlns="http://www.w3.org/2000/svg"
   xmlns:sodipodi="http://sodipodi.sourceforge.net/DTD/sodipodi-0.dtd"
   xmlns:inkscape="http://www.inkscape.org/namespaces/inkscape"
   version="1.1"
   id="Layer_4"
   x="0px"
   y="0px"
   viewBox="0 0 504.04308 800"
   xml:space="preserve"
   sodipodi:docname="Adepta Sororitas [Imperium, Adeptus Ministorum, Ecclesiarchy, Inquisition, Ordo Hereticus, Sisters of Battle, Battle Sisters].svg"
   width="504.04306"
   height="800"
   inkscape:version="0.92.3 (2405546, 2018-03-11)"><metadata
   id="metadata9"><rdf:RDF><cc:Work
       rdf:about=""><dc:format>image/svg+xml</dc:format><dc:type
         rdf:resource="http://purl.org/dc/dcmitype/StillImage" /><dc:title></dc:title></cc:Work></rdf:RDF></metadata><defs
   id="defs7" /><sodipodi:namedview
   pagecolor="#ffffff"
   bordercolor="#666666"
   borderopacity="1"
   objecttolerance="10"
   gridtolerance="10"
   guidetolerance="10"
   inkscape:pageopacity="0"
   inkscape:pageshadow="2"
   inkscape:window-width="1920"
   inkscape:window-height="1017"
   id="namedview5"
   showgrid="false"
   fit-margin-top="0"
   fit-margin-left="0"
   fit-margin-right="0"
   fit-margin-bottom="0"
   inkscape:zoom="0.24155578"
   inkscape:cx="-207.62761"
   inkscape:cy="488.5"
   inkscape:window-x="-8"
   inkscape:window-y="-8"
   inkscape:window-maximized="1"
   inkscape:current-layer="Layer_4" />
<path
   d="m 503.81273,402.86592 c -9.41658,-56.66326 -44.21699,-82.53839 -90.97236,-85.15865 -28.33163,-1.55579 -65.50665,9.66223 -93.10133,33.81781 C 332.1853,320 357.7329,240.73695 333.33167,145.17912 314.49851,71.72979 274.94886,23.0911 253.33167,0 V 0 C 231.79636,23.0911 192.16483,71.72979 173.41355,145.17912 147.86596,244.913 176.93453,326.96008 188.56197,355.45548 160.55787,328.59775 121.00823,316.0696 91.202701,317.70727 44.447328,320.32753 9.6469185,346.20266 0.23033711,402.86592 -6.8935114,532.24156 153.59779,526.34596 152.94272,476.31525 c -82.538381,-6.46878 -5.24053,-70.174 17.52303,-10.39918 4.09417,13.18321 4.50358,38.81269 4.58547,43.97134 l -1.39202,6.71443 h -62.23132 v 51.99591 h 98.1781 c -0.40942,1.14636 -0.90072,2.4565 -1.31014,4.01228 -12.77379,44.87206 -84.01228,29.47799 -84.01228,29.47799 4.913,63.86899 55.68066,75.33266 84.01228,67.96316 1.14637,-0.32754 2.12897,-0.81884 3.11157,-1.4739 l 0.9826,3.4391 c 2.29273,19.89764 6.8782,44.1351 15.88536,70.91095 7.3695,21.86284 16.04913,40.45036 24.31935,55.68065 L 253.00414,800 c 8.27021,-15.2303 16.94984,-33.81781 24.31934,-55.68066 9.00716,-26.77584 13.59263,-51.09518 15.88536,-70.91095 l 0.65507,-2.53838 c 32.34391,6.55067 75.5783,-8.43398 80.24565,-68.78199 0,0 -71.23849,15.39407 -84.01228,-29.47799 -0.40942,-1.55578 -0.90072,-2.86592 -1.31014,-4.01228 h 106.5302 V 516.60184 H 328.7462 v -5.8956 c 0.16377,0.0819 0.24565,0.0819 0.24565,0.0819 0,0 0,-30.13306 4.58547,-44.87206 22.76356,-59.77482 100.06141,3.9304 17.52303,10.39918 -0.65507,50.03071 159.83623,55.92631 152.71238,-73.44933 z"
   id="path2"
   inkscape:connector-curvature="0"
   style="stroke-width:0.81883317" />
</svg>