<?xml version="1.0" encoding="UTF-8" standalone="no"?>
<!-- Generator: Adobe Illustrator 21.0.2, SVG Export Plug-In . SVG Version: 6.00 Build 0)  -->

<svg
   xmlns:dc="http://purl.org/dc/elements/1.1/"
   xmlns:cc="http://creativecommons.org/ns#"
   xmlns:rdf="http://www.w3.org/1999/02/22-rdf-syntax-ns#"
   xmlns:svg="http://www.w3.org/2000/svg"
   xmlns="http://www.w3.org/2000/svg"
   xmlns:sodipodi="http://sodipodi.sourceforge.net/DTD/sodipodi-0.dtd"
   xmlns:inkscape="http://www.inkscape.org/namespaces/inkscape"
   version="1.1"
   id="Layer_1"
   x="0px"
   y="0px"
   viewBox="0 0 577.9403 799.99997"
   xml:space="preserve"
   sodipodi:docname="Imperial Fists [Imperium, Adeptus Astartes, Space Marines, Legion].svg"
   width="577.94031"
   height="800"
   inkscape:version="0.92.3 (2405546, 2018-03-11)"><metadata
   id="metadata23"><rdf:RDF><cc:Work
       rdf:about=""><dc:format>image/svg+xml</dc:format><dc:type
         rdf:resource="http://purl.org/dc/dcmitype/StillImage" /><dc:title></dc:title></cc:Work></rdf:RDF></metadata><defs
   id="defs21" /><sodipodi:namedview
   pagecolor="#ffffff"
   bordercolor="#666666"
   borderopacity="1"
   objecttolerance="10"
   gridtolerance="10"
   guidetolerance="10"
   inkscape:pageopacity="0"
   inkscape:pageshadow="2"
   inkscape:window-width="1920"
   inkscape:window-height="1017"
   id="namedview19"
   showgrid="false"
   inkscape:pagecheckerboard="true"
   fit-margin-top="0"
   fit-margin-left="0"
   fit-margin-right="0"
   fit-margin-bottom="0"
   inkscape:zoom="0.35150431"
   inkscape:cx="-111.68076"
   inkscape:cy="335.76254"
   inkscape:window-x="-8"
   inkscape:window-y="-8"
   inkscape:window-maximized="1"
   inkscape:current-layer="Layer_1" />
<g
   id="g16"
   transform="matrix(1.191429,0,0,1.191429,-0.046232,0)">
	<path
   d="M 482,563.6 C 445.9,508.4 409.5,453.5 373.6,398.3 c -4.7,-7.2 -9.8,-9.7 -18.1,-9.7 -18.8,0.1 -37.7,0.2 -56.5,0.2 -18.8,0 -37.7,0 -56.5,0 -18.8,0 -37.7,0 -56.5,0 -18.8,0 -37.7,0 -56.5,-0.1 -6.8,0 -11.9,1.2 -16.2,7.6 -36.5,55.2 -73.4,110.2 -109.9,165.5 -2.3,3.5 -4.4,9.6 -2.8,12.3 1.7,2.9 7.9,4.2 12.1,4.2 42.4,0.3 84.8,0.1 127.2,0.3 4.3,0 9.3,-0.1 12.7,2 21.9,13.7 44.9,26.3 60.3,48 8.8,12.3 16.7,25.2 25.1,37.8 4.5,6.7 10.1,6.8 12.8,0 15.1,-38.4 43.9,-63.5 79,-82.5 6.2,-3.3 13,-5.1 20,-5.1 41.4,-0.4 82.9,-0.1 124.3,-0.4 2.8,0 5.6,-1 8.4,-2 1.9,-0.7 3,-2.7 2.5,-4.7 -0.7,-2.8 -1.5,-5.7 -3,-8.1 z"
   id="path2"
   inkscape:connector-curvature="0" />
	<path
   d="m 366.7,229.5 c -8.9,-1.1 -15.2,-5.8 -20,-13.5 -11.2,-18.1 -11.9,-18.3 -25.2,-0.7 -11.8,15.5 -26.3,24.3 -45.9,21.2 -19.5,-3.1 -38.8,-7.2 -58,-11.6 -8.2,-1.9 -12.9,-0.4 -14.6,8.4 -1,5.6 -3.2,11 -4.2,16.6 -5.6,31.1 -25.6,45.8 -55.6,48.9 -8.3,0.9 -16.8,0.9 -25.1,0.6 -9.4,-0.4 -18.7,-2 -28.1,-2.5 -8.8,-0.4 -12,4.5 -7.9,11.9 10.7,19.5 21.5,38.9 32.8,58 1.9,3.2 6.5,5.8 10.1,5.8 38.3,0.4 76.7,0.3 115,0.3 0,-0.1 0,-0.2 0,-0.3 38,0 76,0 114,0 5.1,0 9.2,0.1 11.3,-6.9 11.2,-38 23.1,-75.8 34.8,-113.7 6,-19.3 6,-19.2 -14.4,-20.2 -6.3,-0.3 -12.7,-1.5 -19,-2.3 z"
   id="path4"
   inkscape:connector-curvature="0" />
	<path
   d="m 43.9,207.5 c 4.9,17 11,33.8 17.4,50.3 6,15.4 18.4,23.9 34.3,26.3 10.6,1.6 21.4,2.6 32.1,2.1 35.1,-1.9 47.5,-11.7 58.5,-45 3.4,-10.5 6.3,-21.1 9.6,-32.3 3.8,0.9 6.9,1.8 10.2,2.3 23.8,3.8 47.5,7.9 71.4,11 11,1.4 21.1,-3.2 27.3,-12.3 7.1,-10.4 12.9,-21.8 18.4,-33.2 0.9,-1.8 -1.7,-6.9 -4,-8.3 -6.6,-3.9 -13.7,-6.9 -20.8,-9.9 -43.4,-18.6 -86.7,-37.3 -130.2,-55.5 -3.3,-1.4 -9.3,-0.4 -12.1,1.9 -36,29.3 -71.7,58.9 -107.1,88.9 -3.4,2.8 -6.1,9.8 -5,13.7 z"
   id="path6"
   inkscape:connector-curvature="0" />
	<path
   d="m 345.8,167.3 c 0,8.1 -0.3,16.1 0.1,24.2 0.8,16.9 15.6,27 38.8,25.3 5.6,-0.4 13.5,-3.8 15.8,-8.2 14.3,-27.9 29.4,-55.6 40.6,-84.8 9.2,-24.2 -2.1,-51.8 -26,-61.7 -22.8,-9.4 -41.1,-3 -50.3,18.5 -11.9,27.5 -20,56.1 -19,86.7 z"
   id="path8"
   inkscape:connector-curvature="0" />
	<path
   d="m 62.1,143.6 c 3.6,8.6 7.7,9.6 15.5,3.5 19.8,-15.6 39.4,-31.4 58.8,-47.5 2.5,-2.1 5.4,-6.1 5.1,-9 C 139.7,66.3 134.5,42.8 124,20.7 119.3,10.5 110.8,5.2 99.5,8 86,11.4 72.5,15.4 59.6,20.8 c -15.3,6.3 -21,19 -19.1,32.1 2.3,33.6 9.9,62.7 21.6,90.7 z"
   id="path10"
   inkscape:connector-curvature="0" />
	<path
   d="m 263.3,125.3 c 0,0 0,0 0,0 18.4,8.1 36.7,16.4 54.9,24.7 0.3,0.1 0.5,0.2 0.8,0.3 0.2,0.1 0.4,0.2 0.6,0.2 0.4,0.1 0.7,0.2 1,0.3 0.1,0 0.3,0.1 0.4,0.1 0.5,0.1 0.9,0.2 1.3,0.3 0.1,0 0.2,0 0.3,0 0.3,0.1 0.6,0.1 1,0.1 0.1,0 0.3,0 0.4,0 0.2,0 0.5,0 0.7,0 0.2,0 0.3,0 0.4,-0.1 0.2,0 0.4,-0.1 0.6,-0.1 0.1,0 0.3,-0.1 0.4,-0.1 0.2,-0.1 0.4,-0.1 0.6,-0.2 0.1,-0.1 0.3,-0.1 0.4,-0.2 0.2,-0.1 0.3,-0.2 0.5,-0.3 0.1,-0.1 0.3,-0.2 0.4,-0.2 0.2,-0.1 0.3,-0.2 0.5,-0.3 0.1,-0.1 0.2,-0.2 0.4,-0.3 0.1,-0.1 0.3,-0.3 0.4,-0.4 0.1,-0.1 0.2,-0.2 0.3,-0.4 0.1,-0.2 0.3,-0.3 0.4,-0.5 0.1,-0.1 0.2,-0.3 0.3,-0.4 0.1,-0.2 0.2,-0.4 0.4,-0.6 0.1,-0.2 0.2,-0.3 0.3,-0.5 0.1,-0.2 0.2,-0.5 0.3,-0.7 0.1,-0.2 0.1,-0.3 0.2,-0.5 0.1,-0.3 0.2,-0.6 0.3,-0.9 0.1,-0.1 0.1,-0.3 0.2,-0.4 0.2,-0.5 0.3,-0.9 0.5,-1.4 3.8,-13.6 8.8,-26.9 11.5,-40.7 3.3,-16.1 5.3,-32.4 6.8,-48.8 1,-11.7 -5.2,-19.6 -16.3,-23.8 -15.1,-5.8 -30.7,-7.5 -46.5,-4.8 -15.9,2.7 -25.4,11.8 -28,27.6 -2,12.2 -2.8,24.7 -4.5,39.8 0,0.9 0,1.9 0,2.9 0,2.5 0.1,5.3 0.1,8.4 0,0.5 0,0.9 0,1.4 0,1.2 0,2.5 -0.1,3.8 0,0.2 0,0.4 0,0.6 0,0.8 -0.1,1.6 -0.1,2.4 0,0 0,0 0,0 -0.7,6.9 1.6,11 7.9,13.7 z"
   id="path12"
   inkscape:connector-curvature="0" />
	<path
   d="m 171.5,87 c 19.2,8.8 38.8,16.9 58.1,25.4 7.5,3.3 10.6,0.4 11.7,-6.8 3.8,-24 5.3,-48 0.3,-72.1 C 236.3,7.6 227.6,0 201.2,0 c -33.8,0 -40.8,7.1 -40.7,46 0.7,7.1 1.5,19.6 3.6,31.8 0.5,3.5 4.1,7.7 7.4,9.2 z"
   id="path14"
   inkscape:connector-curvature="0" />
</g>
</svg>