<?xml version="1.0" encoding="UTF-8" standalone="no"?>
<svg
   xmlns:dc="http://purl.org/dc/elements/1.1/"
   xmlns:cc="http://creativecommons.org/ns#"
   xmlns:rdf="http://www.w3.org/1999/02/22-rdf-syntax-ns#"
   xmlns:svg="http://www.w3.org/2000/svg"
   xmlns="http://www.w3.org/2000/svg"
   xmlns:sodipodi="http://sodipodi.sourceforge.net/DTD/sodipodi-0.dtd"
   xmlns:inkscape="http://www.inkscape.org/namespaces/inkscape"
   version="1.1"
   id="图层_1"
   x="0px"
   y="0px"
   viewBox="0 0 522.02905 800"
   sodipodi:docname="Necrons [Yngir, Necrontyr].svg"
   width="522.02905"
   height="800"
   inkscape:version="0.92.3 (2405546, 2018-03-11)">
  <metadata
     id="metadata9">
    <rdf:RDF>
      <cc:Work
         rdf:about="">
        <dc:format>image/svg+xml</dc:format>
        <dc:type
           rdf:resource="http://purl.org/dc/dcmitype/StillImage" />
        <dc:title></dc:title>
      </cc:Work>
    </rdf:RDF>
  </metadata>
  <defs
     id="defs7" />
  <sodipodi:namedview
     pagecolor="#ffffff"
     bordercolor="#666666"
     borderopacity="1"
     objecttolerance="10"
     gridtolerance="10"
     guidetolerance="10"
     inkscape:pageopacity="0"
     inkscape:pageshadow="2"
     inkscape:window-width="1920"
     inkscape:window-height="1017"
     id="namedview5"
     showgrid="false"
     inkscape:pagecheckerboard="true"
     fit-margin-top="0"
     fit-margin-left="0"
     fit-margin-right="0"
     fit-margin-bottom="0"
     inkscape:zoom="0.472"
     inkscape:cx="-126.77119"
     inkscape:cy="210"
     inkscape:window-x="-8"
     inkscape:window-y="-8"
     inkscape:window-maximized="1"
     inkscape:current-layer="图层_1" />
  <path
     d="m 522.02905,251.29793 v -38.8664 H 389.99762 C 381.42415,156.22767 336.84211,112.02667 280.44773,103.4532 V 78.6854 c 35.62753,-8.57347 61.9195,-40.20005 61.9195,-77.92331 0,-0.19053 0,-0.57157 0,-0.76209 h -31.8171 c 0,0.57156 0,1.14313 0,1.52417 0,26.67302 -21.90998,48.20196 -48.96404,48.20196 -27.05406,0 -48.96404,-21.52894 -48.96404,-48.20196 0,-0.57156 0,-1.14313 0,-1.52417 h -33.53179 c 0,0.19052 0,0.57156 0,0.76209 0,37.72326 26.4825,69.34984 61.9195,77.92331 v 24.95832 c -56.39438,8.38295 -100.97642,52.77447 -109.54989,108.97833 H 0 v 38.67588 h 132.03144 c 3.23886,21.71945 12.00285,41.5337 24.57728,58.29959 L 32.76971,485.63944 64.77733,507.93046 184.99643,337.03263 c 16.38485,11.81233 35.62753,19.81424 56.5849,22.86258 V 800 h 39.05692 V 360.27626 c 20.95737,-3.04835 40.00952,-11.24078 56.5849,-22.86259 L 457.44225,508.3115 489.44987,486.02048 365.61086,309.97857 c 12.57442,-16.7659 21.33841,-36.77066 24.57728,-58.2996 H 522.02905 Z M 261.01453,134.50822 c 54.10812,0 97.92808,43.62943 97.92808,97.35651 0,53.72708 -43.81996,97.35651 -97.92808,97.35651 -54.10812,0 -97.92808,-43.62943 -97.92808,-97.35651 0,-53.72708 43.81996,-97.35651 97.92808,-97.35651 z"
     id="path2"
     inkscape:connector-curvature="0"
     style="stroke-width:1.9052155" />
</svg>
