<svg xmlns="http://www.w3.org/2000/svg" viewBox="0 0 15.84 23.01"><defs><style>.cls-1{fill:#231f20;}</style></defs>
  <title>GrenadeAsset 1</title>
  <g id="Layer_2" data-name="Layer 2">
  <g id="Layer_1-2" data-name="Layer 1">
    <path class="st0" d="M15.8,3.1v15.2h-1.4c0.1-0.4,0.1-0.8,0.1-1.3v-2.3c0.3-0.4,0.5-0.9,0.5-1.4c0-0.5-0.2-1-0.5-1.4V9.7c0-2.3-1.1-4.4-2.9-5.7c-0.5-0.4-1.1-0.7-1.7-0.9C9.1,2.8,8.3,2.7,7.6,2.7H6.4C5.2,2.7,4,3,2.9,3.6V1.4C2.9,0.6,3.6,0,4.3,0h5.3C10.4,0,11,0.6,11,1.4V2h2.9v1.1L15.8,3.1z"/>
		<path class="st0" d="M13.5,9.7v1.5c-0.3-0.1-0.7-0.2-1-0.2H1.4c-0.3,0-0.7,0.1-1,0.2V9.7c0-3.3,2.7-6,6-6h1.1C10.9,3.7,13.5,6.4,13.5,9.7"/>
    <path class="st0" d="M13.5,15.6l0,1.4c0,0.4,0,0.8-0.1,1.2c-0.6,2.8-3,4.8-5.8,4.8H6.4c-3.3,0-6-2.7-6-6v-1.4c0.3,0.1,0.7,0.2,1,0.2h11.1C12.9,15.8,13.2,15.7,13.5,15.6"/>
		<path class="st0" d="M14,13.3c0,0.4,0,0.7-0.3,1c-0.3,0.3-0.6,0.4-1,0.4H1.4c-0.4,0-0.7-0.1-1-0.4c-0.5-0.6-0.5-1.3,0-1.9C0.6,12.1,1,12,1.4,12h11.2c0.4,0,0.7,0.1,1,0.4C13.8,12.6,14,12.8,14,13.3"/>
    </g>
  </g>
</svg>
