<svg xmlns="http://www.w3.org/2000/svg" viewBox="0 0 19.84 22.42">
  <defs>
    <style>.cls-1{fill:#231f20;}</style>
  </defs>
  <title>LeadershipAsset 1</title>
  <g id="Layer_2" data-name="Layer 2">
    <g id="Layer_1-2" data-name="Layer 1">
      <path class="st0" d="M2.4,3.2c0-0.3,0.5-0.7,0.7-0.9C3.7,1.8,4.6,1,5.5,0.6c1.8-0.7,4.3-1,6,0.6c0.8,0.7,1.3,1.6,2,2.3c1,1.1,1.2,1.2,2.2,1.8c0,0,0.9,0.5,1.2,0.6c0.8,0.3,1.6,0.4,2,0.3l0.9-0.1c0,0,0,0.3-0.1,0.4c-0.1,0.2-0.3,0.4-0.7,0.8C18.1,8,17,8.6,15.8,8.7c-1.9,0.2-3.6-0.8-5.4-1.1c-1-0.3-2.1-0.2-3.2,0.1c-1.9,0.6-3.6,1.9-4.7,3.5L2.4,3.2z"/>
		  <rect y="0.5" class="st0" width="1.4" height="21.9"/>
    </g>
  </g>
</svg>
