<svg xmlns="http://www.w3.org/2000/svg" xmlns:xlink="http://www.w3.org/1999/xlink" viewBox="0 0 707.5 287.38"><defs><style>.cls-1{isolation:isolate;}.cls-2{fill:#231f20;}.cls-3{fill:#851f10;}.cls-4{fill:url(#linear-gradient);}.cls-5{fill:url(#linear-gradient-2);}.cls-6{opacity:0.21;mix-blend-mode:soft-light;}.cls-7{fill:#fff;}.cls-8{fill:url(#linear-gradient-3);}.cls-9{fill:url(#linear-gradient-4);}.cls-10{fill:url(#linear-gradient-5);}.cls-11{fill:url(#linear-gradient-6);}.cls-12{fill:url(#linear-gradient-7);}.cls-13{fill:url(#linear-gradient-8);}.cls-14{fill:url(#linear-gradient-9);}.cls-15{fill:url(#linear-gradient-10);}.cls-16{fill:url(#linear-gradient-11);}.cls-17{fill:url(#linear-gradient-12);}.cls-18{fill:url(#linear-gradient-13);}.cls-19{fill:url(#linear-gradient-14);}.cls-20{fill:url(#linear-gradient-15);}.cls-21{fill:url(#linear-gradient-16);}.cls-22{fill:url(#linear-gradient-17);}</style><linearGradient id="linear-gradient" x1="33.24" y1="65.32" x2="738.36" y2="65.32" gradientUnits="userSpaceOnUse"><stop offset="0" stop-color="#f5a300"/><stop offset="0.07" stop-color="#f5a606"/><stop offset="0.17" stop-color="#f7af17"/><stop offset="0.29" stop-color="#f9bd33"/><stop offset="0.41" stop-color="#fcd159"/><stop offset="0.51" stop-color="#ffe47d"/><stop offset="0.57" stop-color="#fad25d"/><stop offset="0.65" stop-color="#f6bf3c"/><stop offset="0.73" stop-color="#f2b121"/><stop offset="0.82" stop-color="#efa60f"/><stop offset="0.91" stop-color="#eea004"/><stop offset="1" stop-color="#ed9e00"/></linearGradient><linearGradient id="linear-gradient-2" x1="642.37" y1="2516.32" x2="1347.46" y2="2516.32" gradientTransform="matrix(1, 0, 0, -1, -609.12, 2738.25)" xlink:href="#linear-gradient"/><linearGradient id="linear-gradient-3" x1="1242.8" y1="538.03" x2="635.44" y2="538.03" gradientUnits="userSpaceOnUse"><stop offset="0" stop-color="#fac93a"/><stop offset="0.13" stop-color="#fbce46"/><stop offset="0.36" stop-color="#fdda65"/><stop offset="0.51" stop-color="#ffe47d"/><stop offset="0.51" stop-color="#ffe37c"/><stop offset="0.66" stop-color="#f9d456"/><stop offset="0.79" stop-color="#f5c93a"/><stop offset="0.91" stop-color="#f3c22a"/><stop offset="1" stop-color="#f2c024"/></linearGradient><linearGradient id="linear-gradient-4" x1="1242.8" y1="539.03" x2="635.44" y2="539.03" xlink:href="#linear-gradient-3"/><linearGradient id="linear-gradient-5" x1="1242.8" y1="528.6" x2="635.44" y2="528.6" xlink:href="#linear-gradient-3"/><linearGradient id="linear-gradient-6" x1="1242.8" y1="527.39" x2="635.44" y2="527.39" xlink:href="#linear-gradient-3"/><linearGradient id="linear-gradient-7" x1="1242.8" y1="527.39" x2="635.44" y2="527.39" xlink:href="#linear-gradient-3"/><linearGradient id="linear-gradient-8" x1="1242.8" y1="527.39" x2="635.44" y2="527.39" xlink:href="#linear-gradient-3"/><linearGradient id="linear-gradient-9" x1="1242.8" y1="527.39" x2="635.44" y2="527.39" xlink:href="#linear-gradient-3"/><linearGradient id="linear-gradient-10" x1="1242.8" y1="527.39" x2="635.44" y2="527.39" xlink:href="#linear-gradient-3"/><linearGradient id="linear-gradient-11" x1="1242.8" y1="527.39" x2="635.44" y2="527.39" xlink:href="#linear-gradient-3"/><linearGradient id="linear-gradient-12" x1="1242.8" y1="527.39" x2="635.44" y2="527.39" xlink:href="#linear-gradient-3"/><linearGradient id="linear-gradient-13" x1="622.69" y1="425.9" x2="622.69" y2="632.31" xlink:href="#linear-gradient"/><linearGradient id="linear-gradient-14" x1="622.05" y1="2214.88" x2="622.05" y2="2500.57" gradientTransform="translate(-609.12 -2194.39)" xlink:href="#linear-gradient"/><linearGradient id="linear-gradient-15" x1="625.09" y1="399.18" x2="625.09" y2="752.68" xlink:href="#linear-gradient"/><linearGradient id="linear-gradient-16" x1="625.09" y1="554.02" x2="625.09" y2="907.52" xlink:href="#linear-gradient"/><linearGradient id="linear-gradient-17" x1="622.03" y1="2355.37" x2="622.03" y2="2641.06" gradientTransform="matrix(1, 0, 0, -1, -609.12, 2622.46)" xlink:href="#linear-gradient"/></defs><g class="cls-1"><g id="Layer_1" data-name="Layer 1"><path class="cls-2" d="M647,607.74a18.15,18.15,0,0,0-2-8.25v-66h0V460a18,18,0,0,0-2.94-20.64l6.68-9.54-18.69-43.77-20.94,43.72,6.72,9.59A18,18,0,0,0,612.9,460v66h0v73.45a18,18,0,0,0,2.93,20.64l-6.68,9.54,18.69,43.77,20.94-43.72L642,620.13A18.11,18.11,0,0,0,647,607.74Zm-1.58,22.35L628,665.26l-15.53-35.15,7.26-10.37-1-.88a15.06,15.06,0,0,1-3.09-18.3l.18-.33V533.46h0V459.27l-.18-.33a15.06,15.06,0,0,1,3.09-18.3l1-.88-7.25-10.35,17.42-35.17,15.53,35.15-7.25,10.37,1,.88a15.06,15.06,0,0,1,3.09,18.3l-.18.33V526h0v74.19l.18.33a15.06,15.06,0,0,1-3.09,18.3l-1,.88Z" transform="translate(-609.12 -386.06)"/><path class="cls-3" d="M1299.9,608.05l-7.36-7.35h0l-9.72-9.73-3.47-3.47h0l-4.15-4.15h0l-2.32-2.32-4.4-4.39-3.55-3.56-19-19-23.35-23.34,27-27.05h0l1.58-1.58,4.14-4.14,6-6,11.36-11.35L1313,440.26h-669c8.31,34.85,17.49,99.74-.84,178.85h664.85l2.09-.8-10.25-10.26Z" transform="translate(-609.12 -386.06)"/><polygon class="cls-4" points="34.93 54.2 39.37 76.44 41.41 76.44 681.89 76.44 703.92 54.2 34.93 54.2"/><polygon class="cls-5" points="679.61 210.81 41.41 210.81 39.37 210.81 34.93 233.05 702.13 233.05 679.61 210.81"/><path class="cls-2" d="M1224.67,530.73l91.95-92H642.17l.44,1.83c7.66,32.11,17.74,97.95-.85,178.17l-.42,1.81h673l-1.53-1.72Zm-579.6,86.9c17.82-78.5,8.45-143.15.85-175.89h663.54l-89,89,86.9,86.9Z" transform="translate(-609.12 -386.06)"/><path class="cls-2" d="M649.28,596.85l30.13-.29,79.43-.54,112.3-.45,128.73-.2c43.83.07,114.75.13,155.83.19s40.92.32,73.79.46,8.86.41,28,.54l30.12.29-30.12.29c-19.18.13,4.82.32-28,.54s-32.7.29-73.79.46-112,.12-155.83.19l-128.73-.2-112.3-.45-79.43-.54Z" transform="translate(-609.12 -386.06)"/><path class="cls-2" d="M650,462.5l30.13-.29,79.43-.54,112.3-.45,128.74-.2c43.82.07,114.74.13,155.83.19s40.91.32,73.78.46,8.87.41,28,.54l30.13.29-30.13.29c-19.17.13,4.83.32-28,.55s-32.7.28-73.78.45l-155.83.19-128.74-.2-112.3-.45-79.43-.54Z" transform="translate(-609.12 -386.06)"/><g class="cls-6"><polygon class="cls-7" points="145.27 54.2 230.01 233.05 285.41 233.05 200.67 54.2 145.27 54.2"/><polygon class="cls-7" points="387.45 54.2 278.01 54.2 362.75 233.05 472.19 233.05 387.45 54.2"/></g><path class="cls-2" d="M770.42,583.07a25.8,25.8,0,0,1-12.33-3.39,39.94,39.94,0,0,1-7.08-5c-2.7-2.26-5.85-5.2-9.38-8.73S730,553.66,717.44,539.85c-2.52-2.83-4.88-5.41-7-7.69a17.57,17.57,0,0,0,11.84-6.62,24,24,0,0,0,5.56-15.88c0-6.18-2.06-11.22-6.14-15S712.22,489,705.61,489H675.19v3h2.37a5.66,5.66,0,0,1,4.19,1.74,6.07,6.07,0,0,1,1.85,4.19v60.52a6.16,6.16,0,0,1-6,5.85h-2.37v3h25.9l-.3-3h-2.17a6,6,0,0,1-6-5.92V494.3h12.56a11.11,11.11,0,0,1,9.24,4.52c2.23,3,3.36,7.12,3.36,12.2,0,6-2,10.39-6,13a12.21,12.21,0,0,1-3.75,1.77,29.55,29.55,0,0,1-4.37,1c-1.37.17-4.18.26-8.34.26h-1v2.9l.85.09c.64.07,2.17.7,5.28,4.16,2.61,2.91,8,8.85,15.5,17.19,7.72,8.55,13,14.47,15.76,17.61a71.9,71.9,0,0,0,9.2,8.82,38.83,38.83,0,0,0,5.59,4.14,42.51,42.51,0,0,0,6,3,28.41,28.41,0,0,0,6,1.75,40.88,40.88,0,0,0,6.42.45,33.52,33.52,0,0,0,8.37-1.23l.71-.19v-2.94l-1.11.18A14.68,14.68,0,0,1,770.42,583.07Zm2.65.69v1.15h0a32.69,32.69,0,0,1-8.14,1.2,40.4,40.4,0,0,1-6.28-.44,27,27,0,0,1-5.84-1.69,42.45,42.45,0,0,1-5.85-2.89,38.72,38.72,0,0,1-5.47-4.06,70.32,70.32,0,0,1-9.1-8.72c-2.74-3.14-8-9.06-15.77-17.62-7.53-8.33-12.88-14.28-15.49-17.18s-4.51-4.32-5.87-4.47h0V527.9h0a83.23,83.23,0,0,0,8.45-.27,29.43,29.43,0,0,0,4.53-1,12.93,12.93,0,0,0,4-1.89c4.28-2.76,6.45-7.38,6.45-13.74,0-5.28-1.19-9.56-3.54-12.75a12,12,0,0,0-10-4.89H691.67v65a7,7,0,0,0,7,6.84H700l.12,1.15h-24v-1.15h1.45a7.08,7.08,0,0,0,7-6.75V497.91a7,7,0,0,0-2.12-4.82,6.57,6.57,0,0,0-4.84-2h-1.45v-1.15h29.5c6.37,0,11.58,1.82,15.46,5.41s5.84,8.41,5.84,14.32A23.16,23.16,0,0,1,721.56,525a16.63,16.63,0,0,1-12.14,6.37l-1,0,.68.72c2.29,2.45,4.87,5.26,7.65,8.37,12.53,13.83,20.67,22.64,24.22,26.19s6.72,6.49,9.44,8.78a41.08,41.08,0,0,0,7.24,5.06,26.71,26.71,0,0,0,12.76,3.5,16.52,16.52,0,0,0,2.61-.22Z" transform="translate(-609.12 -386.06)"/><path class="cls-2" d="M1248.63,583.86a14.68,14.68,0,0,1-2.46.21,25.8,25.8,0,0,1-12.33-3.39,39.94,39.94,0,0,1-7.08-5c-2.7-2.26-5.85-5.2-9.38-8.73s-11.68-12.33-24.19-26.14c-2.52-2.82-4.88-5.4-7-7.69a17.55,17.55,0,0,0,11.83-6.62,24,24,0,0,0,5.57-15.88c0-6.18-2.07-11.22-6.14-15S1188,490,1181.35,490h-30.41v3h2.37a5.66,5.66,0,0,1,4.18,1.74,6,6,0,0,1,1.85,4.19v60.52a6.14,6.14,0,0,1-6,5.85h-2.37v3h25.9l-.3-3h-2.17a6,6,0,0,1-6-5.92V495.3h12.56a11.08,11.08,0,0,1,9.23,4.52c2.23,3,3.36,7.12,3.36,12.2,0,6-2,10.39-6,13a12.21,12.21,0,0,1-3.75,1.77,29.94,29.94,0,0,1-4.38,1c-1.37.17-4.17.26-8.33.26h-1v2.9l.85.09c.63.07,2.17.7,5.28,4.16,2.61,2.91,7.82,8.69,15.5,17.19s13,14.47,15.75,17.61a73.24,73.24,0,0,0,9.2,8.82,39.46,39.46,0,0,0,5.6,4.14,41.45,41.45,0,0,0,6,3,28.34,28.34,0,0,0,6,1.75,41.1,41.1,0,0,0,6.43.45,33.45,33.45,0,0,0,8.36-1.23l.71-.19v-2.94Zm.18,2h0a32.62,32.62,0,0,1-8.13,1.2,40.3,40.3,0,0,1-6.28-.44,27.11,27.11,0,0,1-5.85-1.69,41.76,41.76,0,0,1-5.84-2.89,38.22,38.22,0,0,1-5.48-4.06,71.57,71.57,0,0,1-9.09-8.72c-2.75-3.14-8-9.07-15.77-17.62s-12.89-14.27-15.5-17.18-4.5-4.32-5.87-4.47h0V528.9h0a83.23,83.23,0,0,0,8.45-.27,29.07,29.07,0,0,0,4.52-1,13,13,0,0,0,4-1.89c4.27-2.76,6.44-7.38,6.44-13.74,0-5.28-1.19-9.56-3.54-12.75a12,12,0,0,0-10-4.89h-13.49v65a7,7,0,0,0,6.95,6.84h1.34l.11,1.15h-24v-1.15h1.45a7.06,7.06,0,0,0,7-6.75V498.91a6.89,6.89,0,0,0-2.12-4.82,6.53,6.53,0,0,0-4.83-2h-1.45v-1.15h29.49c6.38,0,11.58,1.82,15.46,5.41s5.85,8.41,5.85,14.32a23.16,23.16,0,0,1-5.35,15.29,16.65,16.65,0,0,1-12.14,6.37l-1,0,.68.72c2.29,2.45,4.87,5.27,7.65,8.37,12.52,13.82,20.66,22.63,24.22,26.19s6.72,6.5,9.43,8.78a41.47,41.47,0,0,0,7.25,5.06,26.68,26.68,0,0,0,12.76,3.5,16.52,16.52,0,0,0,2.61-.22h0Z" transform="translate(-609.12 -386.06)"/><path class="cls-2" d="M772.54,497.79c-18.8,0-33,13.24-33,30.81s14.18,30.8,33,30.8,33-13.24,33-30.8S791.35,497.79,772.54,497.79Zm0,60.69c-18.28,0-32.06-12.84-32.06-29.88s13.78-29.89,32.06-29.89,32.07,12.85,32.07,29.89S790.82,558.48,772.54,558.48Z" transform="translate(-609.12 -386.06)"/><path class="cls-2" d="M772.54,502.89c-13.78,0-23.78,10.81-23.78,25.71s10,25.7,23.78,25.7,23.78-10.81,23.78-25.7S786.32,502.89,772.54,502.89Zm0,50.49c-13.24,0-22.86-10.42-22.86-24.78s9.62-24.79,22.86-24.79,22.86,10.43,22.86,24.79S785.79,553.38,772.54,553.38Z" transform="translate(-609.12 -386.06)"/><path class="cls-2" d="M841.25,530.39l-18.84-14.51a7.38,7.38,0,0,1-3-6.07,6.07,6.07,0,0,1,1.9-4.34,9.14,9.14,0,0,1,2.77-1.88l.09,0a11.71,11.71,0,0,1,3.36-.89,12.49,12.49,0,0,1,6.69.32c5.05,1.74,5.6,7.33,5.6,7.39l0,.42h2.55l-.18-13.35h-4.53a43,43,0,0,0-9.37-.87,18,18,0,0,0-12.84,5.13,14,14,0,0,0-4.15,10.09,14.63,14.63,0,0,0,5,11.27l18.59,14.34a7.59,7.59,0,0,1,2.81,6.12c0,5.14-4.14,8.45-10.82,8.64-4.09.19-7.28-.79-9.49-2.93-3.33-3.24-3.48-8.27-3.45-9.73V539h-2.25l-.38,1.08a27,27,0,0,0-1,12.45l.12.5.38.34c3.69,3.31,11.26,4.79,17.12,4.79a18.93,18.93,0,0,0,13.43-5.42A15.59,15.59,0,0,0,846,541.6,14.8,14.8,0,0,0,841.25,530.39Zm-.51,21.75A18,18,0,0,1,828,557.28c-5.69,0-13-1.41-16.51-4.56l-.16-.15,0-.21a26,26,0,0,1,.94-11.94l.17-.46H813c0,2,.45,6.74,3.74,9.94,2.4,2.33,5.82,3.4,10.16,3.19,7.22-.21,11.71-3.87,11.71-9.56a8.45,8.45,0,0,0-3.14-6.83l-18.6-14.34a13.7,13.7,0,0,1-4.68-10.57,13.13,13.13,0,0,1,3.88-9.43,17.1,17.1,0,0,1,12.19-4.86,42.18,42.18,0,0,1,9.22.85h3.77l.16,11.52h-.8c-.24-1.43-1.39-6.12-6.15-7.75a17.63,17.63,0,0,0-10.79.6l-1.11.38.19.09a9.6,9.6,0,0,0-2.17,1.62,7,7,0,0,0-2.16,5,8.23,8.23,0,0,0,3.4,6.78l18.83,14.5a13.9,13.9,0,0,1,4.45,10.51A14.72,14.72,0,0,1,840.74,552.14Z" transform="translate(-609.12 -386.06)"/><path class="cls-2" d="M891.5,498.84H861.2a37.51,37.51,0,0,1-9.75-1.35l-2.22-.88v14.5l2.68,0-.07-.52a6.25,6.25,0,0,1,1.12-4.34,4.5,4.5,0,0,1,3.53-1.35H871.7v46.46a3.71,3.71,0,0,1-3.83,3.45h-2.68l0,3.17h22.4l0-3.17h-2.68a3.71,3.71,0,0,1-3.83-3.44V504.87h15.21a4.5,4.5,0,0,1,3.53,1.35,6.25,6.25,0,0,1,1.12,4.34l-.07.52,2.68,0v-14.5l-2.22.88A37.51,37.51,0,0,1,891.5,498.84Zm11-.87v12.21h-.74a6.74,6.74,0,0,0-1.38-4.55,5.32,5.32,0,0,0-4.22-1.67H880.08v47.4a4.63,4.63,0,0,0,4.75,4.35h1.77l0,1.33H866.08l0-1.33h1.77a4.63,4.63,0,0,0,4.75-4.36V504H856.49a5.32,5.32,0,0,0-4.22,1.67,6.74,6.74,0,0,0-1.38,4.55h-.74V498l1,.38a39,39,0,0,0,10.09,1.41h30.3a39,39,0,0,0,10.09-1.41Z" transform="translate(-609.12 -386.06)"/><path class="cls-2" d="M949.66,542.28c-2.67,6.1-5.58,9.42-13.26,9.52H923.49V531.4h14.4c1.34.09,2,.85,2,2.32v2.79l2.78,0v-16.3l-2.78,0V523c0,1.52-.73,2.3-2.15,2.33H923.49V505l17.63,0a4.45,4.45,0,0,1,3.53,1.35,6.23,6.23,0,0,1,1.12,4.34l-.07.51,2.68,0v-14.5l-2.22.88-.24.09a41.75,41.75,0,0,1-9.5,1.24h-28.8l0,2.68.41,0c.64.05,6.23.61,6.23,4.71v44.08c0,.19-.16,4.82-6.19,4.82h-.45l0,2.7h39.25l6.27-16.59h-3Zm1,0h1.12L946.23,557H908.56l0-.87c6.5-.24,6.65-5.66,6.65-5.72V506.3c0-4.4-5.05-5.38-6.66-5.59v-.91h27.87a41.87,41.87,0,0,0,9.77-1.29l.3-.1,1-.39v12.22h-.74a6.67,6.67,0,0,0-1.38-4.55,5.3,5.3,0,0,0-4.22-1.67l-18.55,0v22.24h15.18a2.91,2.91,0,0,0,3.06-3.25v-1.87h.94V535.6h-.94v-1.87a2.89,2.89,0,0,0-2.89-3.24H922.57v22.24H936.4c8.19-.11,11.28-3.62,14.1-10.07Z" transform="translate(-609.12 -386.06)"/><path class="cls-2" d="M1146.19,542.28c-2.68,6.1-5.58,9.42-13.27,9.52H1120V531.4h14.41c1.34.09,2,.85,2,2.32v2.79l2.79,0v-16.3l-2.79,0V523c0,1.52-.72,2.3-2.14,2.33H1120V505l17.64,0a4.43,4.43,0,0,1,3.52,1.35,6.2,6.2,0,0,1,1.13,4.34l-.07.51,2.68,0v-14.5l-2.22.88-.24.09a41.91,41.91,0,0,1-9.5,1.24h-28.8l0,2.68.42,0c.64.05,6.23.61,6.23,4.71v44.08c0,.2-.14,4.82-6.19,4.82h-.45l0,2.7h39.24l6.28-16.59h-3.06Zm1,0h1.12L1142.76,557h-37.68l0-.87c6.5-.24,6.66-5.66,6.66-5.72V506.3c0-4.4-5.06-5.38-6.66-5.59l0-.91H1133a42,42,0,0,0,9.78-1.29l.3-.1,1-.39v12.22h-.74a6.72,6.72,0,0,0-1.38-4.55,5.32,5.32,0,0,0-4.22-1.67l-18.56,0v22.24h15.19a2.9,2.9,0,0,0,3-3.25v-1.87h1V535.6h-1v-1.87a2.89,2.89,0,0,0-2.88-3.24h-15.36v22.24h13.84c8.19-.11,11.27-3.62,14.1-10.07Z" transform="translate(-609.12 -386.06)"/><path class="cls-2" d="M1002.63,547.61l0,0-.87-1c-3.52-4-7.49-9.23-8.12-10.11l-.07-.09a40.41,40.41,0,0,0-4.76-5.61,17.48,17.48,0,0,0,12.51-16.51c0-10.5-8-17-20.94-17H954.88l0,2.91.42,0c.64.05,6.25.55,6.25,4.6V550a3.67,3.67,0,0,1-.21.94c-.46,1.47-1.84,3.95-6,4h-.45l0,2.62h22.77l0-2.46-.5,0v-.13c-4.79,0-5.92-3.22-6.18-4.51V503.51h.14c2,0,5.38-.09,9.05.1,6.86.34,10.89,4,11.06,10.07a14.69,14.69,0,0,1-.58,4.84c-2.31,6.79-6.91,6.91-12.24,7h-.19c-3.08.07-5.35,0-5.38,0l-1.67,0v2.8l.35.09a15.47,15.47,0,0,1,4.49,2.27,19.67,19.67,0,0,1,5.14,4.81c.28.35,1.81,2.52,3.43,4.82l.06.08c3.12,4.43,5.22,7.4,5.83,8.13,3,3.56,7.45,8.95,18.89,8.95h4.64v-3.17l-.44,0C1007.56,554.06,1002.68,547.67,1002.63,547.61Zm10.39,9h-3.72c-11,0-15.33-5.19-18.18-8.62-.59-.7-2.77-3.79-5.79-8.07l-.06-.08c-1.7-2.41-3.17-4.49-3.46-4.86a20.19,20.19,0,0,0-5.37-5,17.37,17.37,0,0,0-4.41-2.28V526.5l.73,0s2.29,0,5.42,0h.19c5.2-.13,10.57-.26,13.09-7.67a15.71,15.71,0,0,0,.63-5.15c-.19-6.6-4.54-10.6-11.94-11-3.7-.19-7.08-.13-9.12-.1l-1,0v47.87c.23,1.23,1.4,5.15,6.69,5.34v.79H955.82v-.79c4.4-.19,5.91-2.94,6.42-4.57a4.37,4.37,0,0,0,.25-1.15,1.24,1.24,0,0,0,0-.21V504.8c0-4.36-5.07-5.29-6.68-5.47l0-1.14h24.53c12.35,0,20,6.17,20,16.1a16.6,16.6,0,0,1-12.61,15.85l-.84.22.65.57a38.65,38.65,0,0,1,5.22,6l.07.1c.64.88,4.64,6.21,8.19,10.18l.85,1c.34.44,5.05,6.49,11.12,7Z" transform="translate(-609.12 -386.06)"/><path class="cls-2" d="M1039.12,554.76c-2.46,0-4.61-1.53-4.68-3.33v-48c0-1.9,2.15-3.45,4.69-3.45H1042l.06-3.18h-24.33l.06,3.18h2.83c2.46,0,4.61,1.54,4.68,3.34v47.95c0,1.91-2.15,3.45-4.69,3.45h-2.83l-.06,3.18H1042l-.06-3.18Zm-20.5,2.26,0-1.34h1.93c3,0,5.55-1.95,5.61-4.36v-48c-.09-2.34-2.61-4.24-5.6-4.24h-1.93l0-1.34h22.46l0,1.34h-1.93c-3,0-5.55,1.95-5.61,4.36v48c.09,2.33,2.61,4.23,5.6,4.23h1.93l0,1.34Z" transform="translate(-609.12 -386.06)"/><path class="cls-2" d="M1096.2,542.4c-2.62,6.07-5.5,9.39-13.23,9.51h-22.52l33.85-51.25.08-.12v-3.89l-2.34,1.14c-.7.35-5.43,1-9.79,1h-21.33a42,42,0,0,1-9.79-1.32l-2.22-.88v14.48l3.08,0,0-.44c0-.06.26-5.76,4.07-5.76h24.67l-33,49.67-.26.4-.06,3h46.27l6.24-16.53h-3.35Zm1-.06h1.42L1093.1,557h-44.7l0-1.79,34-51.27h-26.38c-3.53,0-4.76,3.84-5,6.21h-1.29V498l1,.38a42.77,42.77,0,0,0,10.12,1.39h21.34c4.07,0,9.2-.64,10.2-1.13l1-.5v2.15l-34.72,52.56H1083c8.24-.13,11.31-3.64,14.07-10.07Z" transform="translate(-609.12 -386.06)"/><path class="cls-8" d="M770.42,583.53a26.28,26.28,0,0,1-12.54-3.44,41.35,41.35,0,0,1-7.17-5c-2.7-2.28-5.87-5.22-9.4-8.76S729.62,554,717.1,540.15c-2.79-3.11-5.36-5.92-7.65-8.37a17,17,0,0,0,12.46-6.53,23.59,23.59,0,0,0,5.46-15.59c0-6.05-2-11-6-14.66s-9.28-5.53-15.77-5.53h-30v2.07h1.91a6.11,6.11,0,0,1,4.51,1.88,6.49,6.49,0,0,1,2,4.51v60.54a6.6,6.6,0,0,1-6.5,6.29h-1.91v2.07h24.93l-.2-2.07h-1.76a6.51,6.51,0,0,1-6.49-6.38V493.84h13a11.54,11.54,0,0,1,9.6,4.71c2.29,3.1,3.45,7.29,3.45,12.47,0,6.19-2.09,10.68-6.24,13.35a12.72,12.72,0,0,1-3.88,1.84,28.25,28.25,0,0,1-4.46,1,81.64,81.64,0,0,1-8.39.27h-.49v2l.44,0c.86.09,2.52.92,5.58,4.32,2.6,2.9,8,8.84,15.49,17.18,7.73,8.56,13,14.49,15.76,17.62a72.55,72.55,0,0,0,9.16,8.77,37.23,37.23,0,0,0,5.53,4.09,42.1,42.1,0,0,0,5.9,2.93,28.48,28.48,0,0,0,5.95,1.72,41.25,41.25,0,0,0,6.35.44,33.48,33.48,0,0,0,8.25-1.21l.37-.1v-2l-.57.09A15.66,15.66,0,0,1,770.42,583.53Z" transform="translate(-609.12 -386.06)"/><path class="cls-9" d="M1248.7,584.31a15.54,15.54,0,0,1-2.53.22,26.32,26.32,0,0,1-12.55-3.44,41.71,41.71,0,0,1-7.16-5c-2.71-2.28-5.87-5.22-9.41-8.76s-11.68-12.34-24.2-26.17c-2.79-3.11-5.37-5.93-7.66-8.37a17,17,0,0,0,12.47-6.53,23.64,23.64,0,0,0,5.46-15.59c0-6.05-2-11-6-14.66s-9.28-5.53-15.78-5.53H1151.4v2.07h1.91a6.11,6.11,0,0,1,4.51,1.88,6.53,6.53,0,0,1,2,4.51v60.54a6.6,6.6,0,0,1-6.49,6.29h-1.91v2.07h24.93l-.21-2.07h-1.75a6.51,6.51,0,0,1-6.49-6.38V494.84h13a11.51,11.51,0,0,1,9.59,4.71c2.29,3.1,3.45,7.29,3.45,12.47,0,6.19-2.09,10.68-6.23,13.35a12.78,12.78,0,0,1-3.89,1.84,28.14,28.14,0,0,1-4.45,1,81.78,81.78,0,0,1-8.39.27h-.5v2l.44,0c.86.09,2.53.92,5.58,4.32,2.61,2.9,7.83,8.69,15.5,17.18s13,14.47,15.76,17.62a72.58,72.58,0,0,0,9.16,8.77,37.69,37.69,0,0,0,5.52,4.09,42.78,42.78,0,0,0,5.91,2.93,28.57,28.57,0,0,0,5.94,1.72,41.39,41.39,0,0,0,6.36.44,33.54,33.54,0,0,0,8.25-1.21l.37-.1v-2Z" transform="translate(-609.12 -386.06)"/><path class="cls-10" d="M772.54,498.25C754,498.25,740,511.3,740,528.6s14,30.34,32.53,30.34,32.53-13,32.53-30.34S791.08,498.25,772.54,498.25Zm0,55.59c-13.51,0-23.32-10.62-23.32-25.24s9.81-25.25,23.32-25.25S795.86,514,795.86,528.6,786.05,553.84,772.54,553.84Z" transform="translate(-609.12 -386.06)"/><path class="cls-11" d="M841,530.74l-18.84-14.5a7.82,7.82,0,0,1-3.22-6.42,6.53,6.53,0,0,1,2-4.68,9.69,9.69,0,0,1,2.92-2h0l.1,0a11.85,11.85,0,0,1,3.46-.92,12.84,12.84,0,0,1,6.93.34c5.41,1.85,5.91,7.78,5.91,7.78h1.67l-.18-12.43H837.6a42.48,42.48,0,0,0-9.32-.87,17.56,17.56,0,0,0-12.51,5,13.54,13.54,0,0,0-4,9.76,14.1,14.1,0,0,0,4.85,10.91l18.6,14.37a8,8,0,0,1,3,6.46c0,5.41-4.32,8.9-11.26,9.1-12.95.63-13.48-10.5-13.42-13.13H812l-.27.77a26.55,26.55,0,0,0-1,12.2l.09.35.27.24c3.6,3.23,11,4.68,16.81,4.68a18.46,18.46,0,0,0,13.1-5.28,15.18,15.18,0,0,0,4.51-10.86A14.39,14.39,0,0,0,841,530.74Z" transform="translate(-609.12 -386.06)"/><path class="cls-12" d="M891.5,499.3H861.2a38.29,38.29,0,0,1-9.92-1.38l-1.59-.63v13.36l1.7,0s-.83-6.21,5.1-6.21h15.67v46.93a4.17,4.17,0,0,1-4.29,3.9h-2.22l0,2.25h21.48l0-2.25h-2.22a4.17,4.17,0,0,1-4.29-3.9V504.41h15.67c5.93,0,5.1,6.21,5.1,6.21l1.7,0V497.29l-1.59.63A38.29,38.29,0,0,1,891.5,499.3Z" transform="translate(-609.12 -386.06)"/><path class="cls-13" d="M950.08,542.47c-2.75,6.27-5.75,9.69-13.68,9.79H923V530.94h14.89a2.45,2.45,0,0,1,2.43,2.78v2.33l1.86,0V520.7h-1.86V523a2.49,2.49,0,0,1-2.61,2.79H923V504.51h6.81v0h11.28c5.94,0,5.11,6.21,5.11,6.21l1.69,0V497.36h0l-1.59.63-.27.1a41.78,41.78,0,0,1-9.64,1.26H908.09l0,1.79c.48,0,6.65.61,6.65,5.17v44.09s-.07,5.27-6.65,5.27l0,1.78h38.46l5.92-15.67h-2.08Z" transform="translate(-609.12 -386.06)"/><path class="cls-14" d="M1146.61,542.47c-2.75,6.27-5.75,9.69-13.69,9.79h-13.37V530.94h14.9a2.45,2.45,0,0,1,2.42,2.78v2.33l1.87,0V520.7h-1.87V523a2.49,2.49,0,0,1-2.6,2.79h-14.72V504.51h6.81v0h11.29c5.93,0,5.1,6.21,5.1,6.21l1.7,0V497.36h0l-1.59.63-.28.1a41.68,41.68,0,0,1-9.63,1.26h-28.34l0,1.79c.47,0,6.65.61,6.65,5.17v44.09s-.08,5.27-6.65,5.27l0,1.78h38.46l5.92-15.67h-2.09Z" transform="translate(-609.12 -386.06)"/><path class="cls-15" d="M1002.26,547.88h0l-.87-1c-3.59-4-7.58-9.36-8.15-10.15l-.07-.1a39.28,39.28,0,0,0-5.3-6.09,17,17,0,0,0,13-16.29c0-10.22-7.85-16.56-20.48-16.56h-25l0,2c.5,0,6.68.54,6.68,5.05v45.08a.91.91,0,0,1,0,.16,4,4,0,0,1-.22,1c-.5,1.61-2,4.26-6.44,4.28l0,1.7h21.83l0-2,0,.29c-5.2,0-6.38-3.61-6.64-5v-.53h0s0-.05,0-.08V503.05H971c2,0,5.39-.09,9.09.1,7.13.36,11.32,4.19,11.5,10.52a15.39,15.39,0,0,1-.6,5c-2.42,7.09-7.4,7.22-12.67,7.35h-.19c-3.08.07-5.37,0-5.39,0l-1.21,0v2a16,16,0,0,1,4.61,2.32,20.1,20.1,0,0,1,5.27,4.92c.29.37,1.85,2.58,3.5,4.92,3,4.29,5.21,7.38,5.81,8.11,2.91,3.49,7.31,8.78,18.54,8.78h4.18v-2.27C1007.25,554.5,1002.26,547.88,1002.26,547.88Z" transform="translate(-609.12 -386.06)"/><path class="cls-16" d="M1039.12,499.56h2.38l0-2.26h-23.39l0,2.26h2.38c2.75,0,5.06,1.72,5.14,3.8v25.07h0v22.89c0,2.16-2.36,3.91-5.15,3.91h-2.38l0,2.25h23.39l0-2.25h-2.38c-2.75,0-5.06-1.73-5.14-3.8v-23h0v-25C1034,501.31,1036.34,499.56,1039.12,499.56Z" transform="translate(-609.12 -386.06)"/><path class="cls-17" d="M1096.62,542.58c-2.69,6.25-5.67,9.66-13.65,9.79h-23.38l34.33-52v-3l-1.67.82c-.85.41-5.77,1.08-10,1.08h-21.34a42,42,0,0,1-10-1.36l-1.59-.63v13.35l2.18,0s.22-6.2,4.53-6.2h25.53l-33.45,50.39-.18.28,0,2.39h45.48l5.9-15.61h-2.39Z" transform="translate(-609.12 -386.06)"/><path class="cls-3" d="M639.1,618.86a15.06,15.06,0,0,0,3.09-18.3l-.18-.33V533.46h0V459.27l.18-.33a15.06,15.06,0,0,0-3.09-18.3l-1-.88,7.25-10.37L629.9,394.24l-17.42,35.17,7.25,10.35-1,.88a15.06,15.06,0,0,0-3.09,18.3l.18.33V526h0v74.19l-.18.33a15.06,15.06,0,0,0,3.09,18.3l1,.88-7.26,10.37L628,665.26l17.42-35.17-7.25-10.35Z" transform="translate(-609.12 -386.06)"/><path class="cls-18" d="M618,516.15v80.17a15.92,15.92,0,0,1,9.29-4.25V467.64a15.92,15.92,0,0,1-9.29-4.25Z" transform="translate(-609.12 -386.06)"/><polygon class="cls-19" points="18.23 21.02 7.63 42.59 18.23 51.46 18.23 21.02"/><polygon class="cls-2" points="42.99 52.72 31.49 52.72 35.22 55.68 42.99 52.72"/><path class="cls-2" d="M627.33,467.64s0,1.94.15,5.35.2,8.26.27,14.09.2,12.64.23,19.93.07,15.07.1,22.85-.07,15.55-.1,22.84-.17,14.1-.23,19.93-.21,10.69-.27,14.1-.15,5.34-.15,5.34-.05-1.94-.14-5.34-.21-8.27-.28-14.1-.2-12.64-.23-19.93-.06-15.07-.1-22.84.07-15.56.1-22.85.17-14.1.23-19.93.22-10.69.28-14.09S627.33,467.64,627.33,467.64Z" transform="translate(-609.12 -386.06)"/><path class="cls-2" d="M629,464.4a10.65,10.65,0,0,0,4.46-1,9.75,9.75,0,0,1-2.17.24c-5.83,0-10.56-5-10.56-11.22s4.73-11.23,10.56-11.23a10.38,10.38,0,0,1,2.17.24,10.65,10.65,0,0,0-4.46-1c-6.22,0-11.26,5.36-11.26,12S622.76,464.4,629,464.4Z" transform="translate(-609.12 -386.06)"/><path class="cls-20" d="M628.7,464.4a11.93,11.93,0,0,0,4.74-1,11,11,0,0,1-2.31.24,11.23,11.23,0,0,1,0-22.45,11.75,11.75,0,0,1,2.31.24,12,12,0,1,0-4.74,22.95Z" transform="translate(-609.12 -386.06)"/><path class="cls-2" d="M629,619.24a10.65,10.65,0,0,0,4.46-1,10.38,10.38,0,0,1-2.17.24c-5.83,0-10.56-5-10.56-11.23s4.73-11.22,10.56-11.22a9.75,9.75,0,0,1,2.17.24,10.65,10.65,0,0,0-4.46-1c-6.22,0-11.26,5.36-11.26,12S622.76,619.24,629,619.24Z" transform="translate(-609.12 -386.06)"/><path class="cls-21" d="M628.7,619.24a11.93,11.93,0,0,0,4.74-1,11.75,11.75,0,0,1-2.31.24,11.23,11.23,0,0,1,0-22.45,11,11,0,0,1,2.31.24,12,12,0,1,0-4.74,23Z" transform="translate(-609.12 -386.06)"/><path class="cls-2" d="M627.73,426.1l0-3.8c0-2.54-.07-5.07-.12-7.61,0-1.27-.05-2.54-.1-3.8s-.08-2.54-.14-3.81c-.06,1.27-.1,2.54-.14,3.81s-.08,2.53-.1,3.8c0,2.54-.11,5.07-.11,7.61l0,3.8,0,3.81,0,6.87c-1.59-1.3-3.2-2.58-4.8-3.87-.9-.73-1.81-1.43-2.72-2.14s-1.81-1.43-2.73-2.12c.85.78,1.71,1.55,2.57,2.31s1.71,1.54,2.59,2.3c1.74,1.5,3.46,3,5.22,4.52l.56.48v-.74l0-7.61Z" transform="translate(-609.12 -386.06)"/><polygon class="cls-22" points="18.21 266.56 7.61 244.99 18.21 236.12 18.21 266.56"/><path class="cls-2" d="M627.71,633.6l0,3.8c0,2.54-.07,5.07-.12,7.61,0,1.27-.05,2.53-.1,3.8s-.08,2.54-.14,3.81c-.06-1.27-.1-2.54-.14-3.81s-.08-2.53-.1-3.8c-.05-2.54-.11-5.07-.11-7.61l0-3.8,0-3.81.05-6.87c-1.59,1.3-3.2,2.58-4.8,3.87-.9.73-1.81,1.43-2.72,2.14s-1.81,1.42-2.73,2.12c.85-.78,1.71-1.55,2.57-2.32s1.71-1.53,2.59-2.29c1.74-1.5,3.46-3,5.22-4.52l.56-.48v.74l.05,7.61Z" transform="translate(-609.12 -386.06)"/></g></g></svg>