<svg xmlns="http://www.w3.org/2000/svg" viewBox="0 0 13.07 19.89">
  <defs>
    <style>.cls-1{fill:#231f20;}</style>
  </defs>
  <title>Strength</title>
  <g id="Layer_2" data-name="Layer 2">
    <g id="Layer_1-2" data-name="Layer 1">
	<path class="st0" d="M8.8,6.8c0.6,0.7,1.5,1,2.4,0.9c-0.3,1.2-1.2,4-1.2,4H2.5l-1-2.1c0.5,0.2,1,0.2,1.5,0c1.1-0.3,1.9-1.1,2.3-2.1C6.7,7.6,7.6,8,8.8,6.8"/>
	<path class="st0" d="M3.9,3.5c0.4-0.3,1,0.4,1.4,0.6c0.4,0.2,0.9,0.4,1.4,0.5c0.4,0.1,0.8,0,1.2,0.1C8.8,5.1,8.4,6.8,7.5,7C6.7,7.1,5.8,7,5,6.8c-0.3,1-1,1.8-2,2.2c-2,0.4-2.4-1.2-2.4-3C0.8,6,1,5.9,1.2,5.8C1.8,5.5,2.3,5,2.8,4.4C3,4.2,3.3,4,3.6,3.8"/>
	<path class="st0" d="M11.5,2.1c0.5-0.1,1,0.1,1.3,0.5C13.1,2.9,13.1,3.5,13,4c-0.2,0.3-0.3,0.7-0.6,1c-0.3,0.5-0.7,1-1.1,1.5c-0.1,0.2-0.3,0.3-0.4,0.3C9.9,7,9.3,6.1,9.2,5.3c0-0.3,0-0.5,0.1-0.8c0.3-0.6,1.5-2,2-2.3"/>
	<path class="st0" d="M8.3,0.8C9.1,0.6,9.8,1.2,9.9,2c0,0.1,0,0.2,0,0.3c0,0.2-0.3,0.7-0.5,1C9.2,3.6,8.9,3.9,8.7,4.2C8.6,4.2,8.5,4.3,8.4,4.4C7.9,4,7.1,4.3,6.4,3.8C6.8,2.8,7.2,1,8.3,0.8"/>
	<path class="st0" d="M1.1,0.8C2.8,0.5,3,2,3.2,3.3C2.6,3.6,1.4,5.1,0.6,5.2L0.4,4.7C-0.1,3.5-0.3,1,1.1,0.8"/>
	<path class="st0" d="M4.8,0C6.7,0,6,2.5,6,3.7C5.3,3.6,4.3,2.3,3.6,3C3.5,1.5,3.3,0.1,4.7,0"/>
	<polygon class="st0" points="11,15.7 1.5,15.7 2.2,12.3 10.4,12.3"/>
	<polygon class="st0" points="11.6,19.9 0.9,19.9 1.5,16.5 11,16.5"/>
    </g>
  </g>
</svg>
