<svg xmlns="http://www.w3.org/2000/svg" viewBox="0 0 14.95 21.2"><defs><style>.cls-1{fill:#231f20;}</style></defs><title>Asset 1</title><g id="Layer_2" data-name="Layer 2"><g id="Layer_1-2" data-name="Layer 1"><path class="cls-1" d="M12.79,14.08c-.11.5-.48,1.28-.89,1.37s-3-.52-3.59-1.37C8,13.62,9.73,13.44,10.62,13s1.07-.78,1.58-.51a1.53,1.53,0,0,1,.59,1.56m-4.52,3.5c-.33,0-.43-.94-.79-1s-.47.94-.79,1-.5-.25-.18-1.23a2.41,2.41,0,0,1,1-1.35,2.42,2.42,0,0,1,1,1.35c.32,1,.15,1.28-.17,1.23M3.05,15.45c-.41-.09-.78-.87-.89-1.37a1.54,1.54,0,0,1,.6-1.56c.5-.27.68.1,1.57.51s2.65.59,2.31,1.05c-.61.85-3.18,1.46-3.59,1.37M14.32,9.21c.21-.54,1.52-2.44-.4-5.81S7.48,0,7.48,0,3,0,1,3.4.42,8.67.64,9.21A5.43,5.43,0,0,1,1,11.87c-.21.79-.85,1.43-.79,1.89s.7.82.79,1.49-.09,1.71.86,2,1.77-.15,2,.15-.46,2.53-.21,3,1,.52,1,.52S4.54,20,5.23,20c.35,0,.58.28.58.69a2.14,2.14,0,0,1,0,.5,2.78,2.78,0,0,0,1.12,0S6.69,20,7.48,20s.57,1.17.57,1.17a2.82,2.82,0,0,0,1.13,0,2.14,2.14,0,0,1,0-.5c0-.41.22-.69.58-.69.68,0,.5.95.5.95s.79-.06,1-.52-.49-2.68-.22-3,1.1.12,2-.15.76-1.31.85-2,.73-1,.79-1.49-.58-1.1-.79-1.89a5.31,5.31,0,0,1,.37-2.66"/></g></g></svg>