<svg xmlns="http://www.w3.org/2000/svg" viewBox="0 0 27.35 23.55"><title>TypeAsset 1</title><g id="Layer_2" data-name="Layer 2"><g id="Layer_1-2" data-name="Layer 1"><path d="M11,.54l-.66,1.14a6.45,6.45,0,0,0-1.37-.37V0H6.88V1.31a6.38,6.38,0,0,0-1.38.37L4.85.54l-1.79,1,.66,1.14a6.43,6.43,0,0,0-1,1L1.57,3.06l-1,1.79,1.14.65a6.83,6.83,0,0,0-.37,1.38H0V8.94H1.31a7.11,7.11,0,0,0,.37,1.37L.54,11l1,1.78,1.14-.66a6.89,6.89,0,0,0,1,1l-.66,1.14,1.79,1,.36-.64V12.2a5.12,5.12,0,0,1,5.13-8.85L12.2,2.28l.22-.13.33-.58Z"/><path d="M16.8,15.06A2.06,2.06,0,1,1,18.86,13a2.06,2.06,0,0,1-2.06,2.06m10.55-.69V11.63H25.6a8.77,8.77,0,0,0-.5-1.84l1.52-.87L25.25,6.54l-1.52.88a8.49,8.49,0,0,0-1.34-1.34l.87-1.53L20.88,3.18,20,4.69a9.41,9.41,0,0,0-1.84-.49V2.45H15.42V4.2a8.88,8.88,0,0,0-1.77.47l-.06,0-.72-1.24h0l-.15-.26-.07,0L11.3,4l-1,.56.88,1.53A8.49,8.49,0,0,0,9.87,7.42L8.35,6.54,7,8.92l1.52.87A9.41,9.41,0,0,0,8,11.63H6.25v2.74H8a.69.69,0,0,1,0,.13,8.17,8.17,0,0,0,.48,1.71L7,17.08l1.38,2.39,1.52-.88a9.43,9.43,0,0,0,1.34,1.34l-.88,1.52,2.39,1.37.87-1.51a9.5,9.5,0,0,0,1.83.49v1.75h2.75V21.8A9.41,9.41,0,0,0,20,21.31l.87,1.51,2.38-1.37-.87-1.52a9.43,9.43,0,0,0,1.34-1.34l1.52.88,1.37-2.39-1.52-.87a8.61,8.61,0,0,0,.5-1.84Z"/></g></g></svg>