<?xml version="1.0" encoding="UTF-8" standalone="no"?>
<!-- Generator: Gravit.io -->
<svg xmlns="http://www.w3.org/2000/svg"
  xmlns:xlink="http://www.w3.org/1999/xlink" style="isolation:isolate" viewBox="51 380 500 500">
  <g>
    <path d=" M 51 380 L 551 380 L 551 780.125 L 451.312 880 L 51 880 L 51 380 Z  M 277.889 700.504 L 313.056 700.504 L 313.056 730.719 L 277.889 730.719 L 277.889 700.504 Z  M 301.334 529.281 C 364.048 531.496 391.361 585.885 354.084 626.676 C 344.355 636.748 328.647 643.396 320.91 651.856 C 313.056 660.216 313.056 670.288 313.056 680.36 L 277.889 680.36 C 277.889 663.54 277.889 649.338 285.743 639.266 C 293.48 629.194 309.188 623.252 318.917 616.604 C 347.285 594.043 340.252 562.115 301.334 559.496 C 281.912 559.496 266.167 573.024 266.167 589.712 L 231 589.712 C 231 556.337 262.49 529.281 301.334 529.281 Z " fill-rule="evenodd" fill="rgb(0,0,0)"/>
  </g>
</svg>