<svg xmlns="http://www.w3.org/2000/svg" viewBox="0 0 25.9 19.56">
  <defs>
    <style>.cls-1{fill:#231f20;}</style>
  </defs>
  <title>Wounds</title>
  <g id="Layer_2" data-name="Layer 2">
    <g id="Layer_1-2" data-name="Layer 1">
    <path class="st0" d="M13.4,0.4C13.3,0.1,13.1,0,13,0s-0.4,0.1-0.5,0.4l0,0L8.6,13.6c0,0-0.2,0.6-0.2,1.4c-0.1,2.5,2.1,4.5,4.6,4.5s4.4-1.6,4.5-4.1c0-0.1,0-0.3,0-0.4c0-0.4-0.1-0.8-0.2-1.1"/>
	  <path class="st0" d="M5.9,12.4c-0.1-0.6-2.6-8.7-2.6-8.7C3.2,3.4,3.2,3.4,3,3.4c-0.2,0-0.2,0.1-0.3,0.3l-2.5,8.5c-0.1,0.2-0.1,0.4-0.2,0.9c-0.2,1.4,0.8,3.2,2.4,3.5C4.1,17,5.7,15.9,6,14.3c0.1-0.5,0.1-1,0-1.3"/>
	  <path class="st0" d="M25.6,12.4L25.6,12.4l-2.5-8.7l0,0c-0.1-0.2-0.2-0.2-0.3-0.2c-0.1,0-0.2,0-0.3,0.2l0,0L20,12.3c-0.1,0.3-0.1,0.6-0.1,0.9c-0.1,1.6,0.8,3.2,2.4,3.5c1.6,0.3,3.2-0.8,3.5-2.4c0.1-0.7,0-1-0.1-1.5"/>
  </g>
  </g>
</svg>
